<?xml version="1.0" encoding="utf-8"?>
<!-- Generator: Adobe Illustrator 26.3.1, SVG Export Plug-In . SVG Version: 6.00 Build 0)  -->
<svg version="1.1" id="Layer_1" xmlns="http://www.w3.org/2000/svg" xmlns:xlink="http://www.w3.org/1999/xlink" x="0px" y="0px"
	 viewBox="0 0 217.2 103.7" style="enable-background:new 0 0 217.2 103.7;" xml:space="preserve">
<style type="text/css">
	.st0{fill:#FFFFFF;}
</style>
<path id="Path_837" class="st0" d="M52.2,62.9c-3.7,0-6.7,3-6.7,6.7c0,0.1,0,0.1,0,0.2c0,3.6,3.2,6.6,7.1,6.6c1.5,0,3-0.4,4.4-1.2
	V75c0-4,0.1-4.4,0.2-4.6c0.4-0.2,0.9-0.3,1.3-0.3c0.1,0,0.1-0.2,0.1-0.2h-4.7c-0.1,0-0.1,0.2,0,0.2c0.5,0,1.1,0.1,1.6,0.3
	c0.2,0.1,0.3,0.5,0.3,4.8c-0.8,0.3-1.6,0.5-2.4,0.5c-3.9,0-6.3-3.2-6.3-6.6c0-2.9,1.6-5.8,5.3-5.8c1.3,0.1,2.5,0.6,3.5,1.4
	c0.4,0.5,0.7,1,0.8,1.6c0,0.1,0.2,0.1,0.2,0c0-1.1-0.1-2.2-0.1-3c0,0,0-0.1-0.1-0.1c-0.7,0.2-1.9-0.6-4.1-0.6
	C52.4,62.9,52.3,62.9,52.2,62.9L52.2,62.9z M209.5,62.9c-3.7,0-6.7,3-6.7,6.7c0,0.1,0,0.1,0,0.2c0,3.6,3.2,6.6,7.1,6.6
	c1.5,0,3-0.4,4.4-1.2V75c0-4,0.1-4.4,0.2-4.6c0.4-0.2,0.9-0.3,1.3-0.3c0.1,0,0.1-0.2,0.1-0.2h-4.7c-0.1,0-0.1,0.2,0,0.2
	c0.5,0,1.1,0.1,1.6,0.3c0.2,0.1,0.3,0.5,0.3,4.8c-0.8,0.3-1.6,0.5-2.4,0.5c-3.9,0-6.3-3.2-6.3-6.6c0-2.9,1.6-5.8,5.3-5.8
	c1.3,0.1,2.5,0.6,3.5,1.4c0.4,0.5,0.7,1,0.8,1.6c0,0.1,0.2,0.1,0.2,0c0-1.1-0.1-2.2-0.1-3c0,0,0-0.1-0.1-0.1
	c-0.7,0.2-1.9-0.6-4.1-0.6C209.7,62.9,209.6,62.9,209.5,62.9L209.5,62.9z M151.8,62.9c-3.8,0-6.9,3-7,6.8v0.1c0,3.6,2.9,6.6,6.5,6.6
	c0.1,0,0.1,0,0.2,0c3.8,0,6.9-3.1,7-6.9c0-3.6-2.9-6.5-6.5-6.6C151.9,62.9,151.8,62.9,151.8,62.9L151.8,62.9z M184.4,63
	c-0.1,0-0.2,0-0.2,0.1c0.1,1.6,0.1,3.4,0.1,5.1v3c0,4-0.2,4.3-0.3,4.5c-0.5,0.2-1,0.4-1.5,0.4c-0.1,0-0.1,0.3,0,0.3h4.7
	c0.1,0,0.1-0.3,0-0.3c-0.5,0-1-0.1-1.5-0.3c-0.3-0.2-0.5-0.8-0.6-4.5l-0.1-5.6l10.1,10.8c0.1,0.1,0.4,0.1,0.3,0
	c-0.1-1.6-0.1-3.4-0.1-5.1v-3c0-4,0.2-4.3,0.4-4.5c0.5-0.3,1-0.4,1.5-0.4c0.1,0,0.1-0.3,0-0.3h-4.7c-0.1,0-0.1,0.2,0,0.3
	c0.6,0,1.1,0.1,1.6,0.3c0.2,0.2,0.5,0.5,0.5,4.5l0.1,5.7l-10.1-11C184.6,63,184.5,63,184.4,63L184.4,63z M89,63
	C88.9,63,88.9,63,89,63c-0.6,1.7-1.3,3.5-1.9,5.2l-1.1,3c-1.5,4-1.8,4.4-2,4.6c-0.4,0.2-0.8,0.3-1.3,0.3c-0.1,0-0.1,0.2,0,0.2h3.8
	c0.1,0,0.1-0.2,0-0.2c-0.9-0.1-1.3-0.1-1.3-0.5s0.4-1.7,1.4-4.4v-0.1h4.2v0.1c1.3,3.1,1.6,4.2,1.6,4.5s-0.5,0.3-1.2,0.4
	c-0.1,0-0.1,0.2,0,0.2h4.2c0.1,0,0.1-0.2,0-0.2c-0.4,0-0.8-0.1-1.2-0.3c-0.3-0.2-0.5-0.6-2.1-4.6l-1.2-3C90.2,66.3,89.6,64.9,89,63
	C89.2,63,89.1,63,89,63L89,63z M102.4,63C102.3,63,102.3,63,102.4,63c-0.1,1.7-0.3,3.5-0.4,5.2l-0.2,3c-0.3,4-0.5,4.4-0.7,4.6
	c-0.5,0.2-1,0.4-1.5,0.3c-0.1,0-0.1,0.2,0,0.2h4.3c0.1,0,0.1-0.2,0-0.2c-0.5,0-0.9-0.1-1.3-0.3c-0.2-0.2-0.5-0.6-0.1-4.7l0.3-4.6
	l5.1,9.9c0,0.1,0.1,0.1,0.2,0.1l0,0l4.7-10l0.5,4.8c0.5,4,0.3,4.5,0.1,4.7c-0.4,0.2-0.8,0.2-1.2,0.2c-0.1,0-0.1,0.2,0,0.2h4.7
	c0.1,0,0-0.2-0.1-0.2c-0.5,0-1-0.1-1.4-0.3c-0.3-0.2-0.4-0.6-0.8-4.6l-0.3-3c-0.2-1.9-0.3-3.3-0.4-5.1c0-0.1-0.2-0.1-0.2,0
	l-5.3,11.4l-5.7-11.4C102.5,63,102.5,63,102.4,63L102.4,63z M17.4,63v0.2c0.5,0,1,0.1,1.4,0.3c0.3,0.2,0.4,0.6,0.4,4.6v3
	c0,4-0.2,4.5-0.4,4.6c-0.5,0.2-0.9,0.3-1.4,0.3c-0.1,0-0.1,0.2,0,0.2h5.4c0.1,0,0.1-0.2,0-0.2c-0.6,0-1.2-0.1-1.8-0.3
	c-0.3-0.2-0.4-0.6-0.4-4.6v-0.7c0.9,0.1,1.8,0.1,2.6,0c1.6,2.8,2.7,4.3,3.8,5.1c0.8,0.5,1.7,0.8,2.6,0.7c0.4,0,0.8,0,1.2-0.1v-0.2
	c-0.2,0-0.4,0-0.6,0c-1.4,0-3.1-1.8-5.9-5.9c1.4-0.9,2.4-2.1,2.4-3.8c0-1.6-1.3-3.3-4.3-3.3c-0.9,0-1.7,0-2.5,0
	C19.1,63.1,18.3,63,17.4,63L17.4,63z M136.6,63c-0.1,0-0.1,0.2,0,0.2c0.4,0,0.8,0.1,1.3,0.2c0.2,0.1,0.2,0.4-1.3,2.7l-2.2,3.8
	l-2-3.4c-1.5-2.7-1.7-3-1.5-3.1c0.4-0.1,0.8-0.1,1.2-0.1c0.1,0,0.1-0.2,0-0.2h-4.4c-0.1,0-0.1,0.2,0,0.2c0.4,0,0.8,0,1.2,0.2
	c0.3,0.1,0.4,0.4,2,2.9l1.2,1.8c0.6,0.9,1,1.7,1.5,2.4v0.6c0,4-0.2,4.5-0.4,4.6c-0.5,0.2-1,0.3-1.6,0.3c-0.1,0-0.1,0.2,0,0.2h5.3
	v-0.2c-0.5,0-1.1-0.1-1.6-0.3c-0.3-0.1-0.4-0.6-0.4-4.6v-0.7c0.4-0.8,0.9-1.6,1.4-2.4l1.1-1.8c1.5-2.5,1.7-2.7,1.9-2.8
	c0.4-0.1,0.9-0.2,1.3-0.2c0.1,0,0.1-0.2,0-0.2L136.6,63z M2.1,63.1v0.2c0.5,0,1,0.1,1.5,0.3C3.9,63.8,4,64.2,4,68.2v3
	c0,4-0.2,4.5-0.4,4.6c-0.5,0.2-1,0.3-1.5,0.3c-0.1,0-0.1,0.2,0,0.2c0.9,0,1.8,0,2.6,0s1.2,0,2.1,0c3.6,0,5.1-1.9,5.1-3.9
	c0-1.7-1.2-3-3.4-3.5c1.3-0.7,2.2-1.7,2.2-3S9.5,63,6.8,63c-0.9,0-1.4,0-2.1,0S3,63.1,2.1,63.1L2.1,63.1z M34.2,63.1
	c-0.1,0-0.1,0.2,0,0.2c0.5,0,1.1,0.1,1.6,0.3c0.3,0.2,0.4,0.6,0.4,4.6v3c0,4-0.2,4.5-0.4,4.6c-0.5,0.2-1,0.3-1.6,0.3
	c-0.1,0-0.1,0.2,0,0.2h5.3v-0.2c-0.5,0-1.1-0.1-1.6-0.3c-0.3-0.2-0.4-0.6-0.4-4.6v-3c0-4,0.2-4.5,0.4-4.6c0.5-0.2,1-0.3,1.6-0.3
	c0.1,0,0.1-0.2,0-0.2H34.2z M64.1,63.1v0.2c0.5,0,1,0.1,1.4,0.3c0.3,0.2,0.4,0.6,0.4,4.6v3c0,4-0.2,4.5-0.4,4.6
	c-0.5,0.2-0.9,0.3-1.4,0.3c-0.1,0-0.1,0.2,0,0.2h5v-0.2c-0.5,0-0.9-0.1-1.4-0.3c-0.3-0.2-0.4-0.6-0.4-4.6v-1.4h7.9v1.4
	c0,4-0.2,4.5-0.4,4.6c-0.5,0.2-0.9,0.3-1.4,0.3c-0.1,0-0.1,0.2,0,0.2h5v-0.2c-0.5,0-1-0.1-1.4-0.3c-0.3-0.2-0.4-0.6-0.4-4.6v-3
	c0-4,0.2-4.5,0.4-4.6c0.5-0.2,0.9-0.3,1.4-0.3c0.1,0,0.1-0.2,0-0.2h-5v0.2c0.5,0,1,0.1,1.4,0.3c0.3,0.2,0.4,0.6,0.4,4.6v1.1h-7.9
	v-1.1c0-4,0.2-4.5,0.4-4.6c0.4-0.2,0.9-0.3,1.4-0.3c0.1,0,0.1-0.2,0-0.2H64.1z M173.2,63.1c-0.1,0-0.1,0.2,0,0.2
	c0.5,0,1.1,0.1,1.5,0.3c0.2,0.1,0.3,0.6,0.3,4.6v3.3c0,2.3-1.4,4.1-3.9,4.1c-2.2,0.1-4.2-1.6-4.3-3.8c0-0.2,0-0.4,0-0.5v-3.1
	c0-4,0.2-4.5,0.4-4.6c0.5-0.2,1-0.3,1.5-0.3c0.1,0,0.1-0.2,0-0.2h-5.1v0.2c0.5,0,1,0.1,1.4,0.3c0.3,0.2,0.4,0.6,0.4,4.6v3.5
	c0,2.6,1.9,4.7,5.1,4.7c2.6,0.2,4.9-1.9,5-4.5c0-0.1,0-0.2,0-0.3v-3.4c0-4,0.2-4.4,0.3-4.6c0.2-0.2,0.6-0.3,1.4-0.3
	c0.1,0,0.1-0.2,0-0.2C177.2,63.1,173.2,63.1,173.2,63.1z M6.4,63.5c0.1,0,0.2,0,0.3,0l0,0c1.2,0,2.5,0.9,2.4,2.9
	c0,1.5-0.8,2.6-2.4,2.6c-0.5,0-0.9,0-1.4-0.1c-0.1-0.6-0.1-1.2-0.1-1.8c0-2.4,0.1-3.3,0.1-3.4C5.7,63.5,6,63.5,6.4,63.5L6.4,63.5z
	 M151.4,63.5c3.3,0,5.6,3.3,5.6,6.6c0,2.6-1.4,5.7-5.1,5.7c-3.3,0-5.6-3.3-5.6-6.6C146.3,66.6,147.7,63.5,151.4,63.5z M22.3,63.5
	c2,0,2.9,1.6,2.9,3.5c0,1.6-1,3.1-2.7,3.1c-0.7,0-1.3,0-1.9-0.2c-0.1-0.1-0.1-0.5-0.1-1.7c-0.1-1.5,0-3,0.2-4.5
	C21.2,63.6,21.8,63.5,22.3,63.5L22.3,63.5z M88.7,65.4l1.9,5.2h-3.8L88.7,65.4z M6,69.3c0.2,0,0.3,0,0.5,0l0,0
	c2.2,0,3.9,1.4,3.9,3.5c0.1,1.6-1.1,2.9-2.7,3c-0.1,0-0.2,0-0.3,0c-0.6,0.1-1.3-0.1-1.8-0.4c-0.1-0.2-0.2-1.2-0.2-3.2
	c0-1,0-1.9,0.1-2.9C5.6,69.4,5.8,69.3,6,69.3L6,69.3z"/>
<path id="Path_849" class="st0" d="M158.6,92.7c-0.2,0.1-0.7,0.2-4,0.2c-1.3,0-2.6,0-4-0.1c-0.1,0-0.1,0-0.1,0.1
	c0,0.5-0.1,1.2-0.2,1.9c0,0.1,0.2,0.1,0.2,0c0-0.4,0.2-0.7,0.4-0.9c0.3-0.3,1-0.4,2.4-0.4c0.3,0,0.5,0,0.7,0c0.1,0.5,0.1,1,0.1,1.6
	v3.4c0,2.7-0.1,2.9-0.3,3.1c-0.3,0.1-0.7,0.2-1.1,0.2v0.2h3.7c0.1,0,0.1-0.2,0-0.2c-0.4,0-0.7-0.1-1.1-0.2c-0.2-0.1-0.3-0.3-0.3-3.1
	v-3.4c0-0.5,0-1,0.1-1.6c0.2,0,0.4,0,0.6,0c1.5,0,2.1,0.2,2.4,0.4c0.2,0.3,0.3,0.6,0.2,0.9c0,0.1,0.2,0.1,0.2,0
	C158.6,94.1,158.7,93.4,158.6,92.7L158.6,92.7L158.6,92.7z M130.5,92.7c-1.2,0.1-2.2,1.1-2.3,2.3c0,2.3,3.7,2.6,3.7,4.7
	c0.1,0.9-0.6,1.6-1.5,1.7c-0.1,0-0.1,0-0.2,0c-0.7,0-1.4-0.4-1.7-0.9c-0.3-0.4-0.4-0.8-0.4-1.3c0-0.1-0.2-0.1-0.2,0
	c-0.1,0.6-0.1,1.3,0,1.9c0.6,0.6,1.4,0.9,2.2,0.8c1.4,0,2.9-0.9,2.9-2.6c0-2.3-3.8-3-3.8-4.7c0-0.7,0.5-1.4,1.3-1.4
	c0.1,0,0.1,0,0.2,0c0.5,0,0.9,0.2,1.2,0.5s0.5,0.7,0.5,1.2c0,0.1,0.2,0.1,0.2,0c0-0.7,0-1.4,0-1.9c0,0,0,0-0.1,0
	c-0.5,0.1-0.7-0.2-1.8-0.2C130.7,92.7,130.6,92.7,130.5,92.7L130.5,92.7z M60,92.7C59.9,92.7,59.9,92.7,60,92.7c0,1.2,0,2.4,0,3.6v2
	c0,2.7-0.1,2.9-0.2,3c-0.3,0.2-0.7,0.3-1,0.3c-0.1,0,0,0.2,0,0.2H62c0,0,0.1-0.2,0-0.2c-0.3,0-0.7-0.1-1-0.2
	c-0.2-0.1-0.3-0.5-0.4-3.1l-0.1-3.6l6.8,7.1c0.1,0.1,0.3,0,0.3,0c-0.1-1.1-0.1-2.3-0.1-3.5v-2c0-2.7,0.1-2.9,0.2-3
	c0.3-0.2,0.6-0.2,0.9-0.2c0.1,0,0-0.2,0-0.2h-3.3c0,0-0.1,0.2,0,0.2c0.4,0,0.8,0.1,1.1,0.2c0.1,0.1,0.4,0.3,0.4,3.1l0.1,3.7
	l-6.8-7.2C60.2,92.7,60.1,92.7,60,92.7L60,92.7z M170.6,92.7c0,0-0.1,0.2,0,0.2c0.3,0,0.5,0,0.7,0.1c0.1,0.1,0.2,0.2-0.7,1.8
	l-1.4,2.3l-1.4-2.3c-1-1.6-1-1.7-0.9-1.8c0.2-0.1,0.4-0.1,0.6-0.1c0.1,0,0-0.2,0-0.2h-3.1c0,0-0.1,0.2,0,0.2c0.3,0,0.6,0,0.8,0.1
	s0.4,0.2,1.4,1.9l0.8,1.2c0.4,0.6,0.7,1.1,1,1.7v0.4c0,2.7-0.1,3-0.3,3.1c-0.3,0.1-0.7,0.2-1.1,0.2v0.2h3.8c0.1,0,0.1-0.2,0-0.2
	c-0.4,0-0.7-0.1-1.1-0.2c-0.2-0.1-0.3-0.3-0.3-3.1v-0.4c0.3-0.5,0.6-1.1,1-1.6l0.7-1.2c1-1.7,1.3-1.8,1.4-1.9
	c0.2-0.1,0.5-0.1,0.8-0.2c0.1,0,0-0.2,0-0.2H170.6z M85.3,92.8c0,0-0.1,0.2,0,0.2c0.3,0,0.6,0.1,0.9,0.2c0.2,0.2,0.5,0.6,1.5,3.1
	l0.8,2c0.5,1.3,0.9,2.2,1.3,3.5c0,0.1,0.4,0.1,0.5,0c0.4-1.1,0.9-2.3,1.3-3.5l0.8-2c1.1-2.7,1.4-2.9,1.5-3c0.3-0.2,0.5-0.2,0.8-0.3
	c0.1,0,0-0.2,0-0.2H92c0,0-0.1,0.2,0,0.2c0.6,0.1,0.8,0.2,0.8,0.4c0,0.3-0.1,0.9-0.9,2.8l-1.6,4l-1.5-4c-0.9-2.1-1-2.7-1-2.9
	c0-0.2,0.3-0.3,0.8-0.4c0.1,0,0-0.2,0-0.2h-3.3V92.8z M106.4,92.8c-0.7,0.1-1.4,0.1-2.1,0.1c-0.9,0-2.5,0-3.6,0
	c-0.1,0-0.1,0.2,0,0.2c0.3,0,0.7,0.1,0.9,0.2c0.2,0.1,0.3,0.3,0.3,3.1v2c0,2.7-0.1,2.9-0.3,3.1c-0.3,0.1-0.6,0.2-0.9,0.2v0.2
	c1,0,1.4,0,2.3,0c1.2,0,2,0,2.9,0c0.2,0,0.5-0.1,0.6-0.2c0.2-0.5,0.3-1,0.2-1.6c0-0.1-0.2-0.1-0.2,0c-0.1,0.3-0.2,0.7-0.4,0.9
	c-0.4,0.4-1,0.5-1.6,0.4c-0.8,0-1.1-0.1-1.3-0.3c-0.2-0.2-0.3-0.9-0.3-2.7v-0.9h1.1c1,0,1.2,0.1,1.3,0.2c0.1,0.2,0.2,0.4,0.2,0.7
	h0.2c0-0.8,0-1.3,0.1-2c0,0-0.2-0.1-0.2,0c-0.1,0.5-0.3,0.6-1.6,0.6h-1v-2c0-0.5,0-1,0-1.6c0.4,0,0.8,0,1.2,0c1,0,1.4,0.1,1.7,0.4
	c0.2,0.3,0.3,0.6,0.2,0.9c0,0.1,0.2,0.1,0.2,0C106.4,93.9,106.5,93.3,106.4,92.8C106.5,92.8,106.5,92.8,106.4,92.8L106.4,92.8z
	 M113.7,92.8c-0.1,0-0.1,0.2,0,0.2c0.3,0,0.7,0.1,0.9,0.2c0.2,0.1,0.3,0.3,0.3,3.1v2c0,2.7-0.1,2.9-0.3,3.1
	c-0.3,0.1-0.6,0.2-0.9,0.2c-0.1,0,0,0.2,0,0.2h3.8c0.1,0,0.1-0.2,0-0.2c-0.4,0-0.8-0.1-1.2-0.2c-0.2-0.1-0.3-0.3-0.3-3.1v-0.4
	c0.5,0,0.9,0,1.6,0c1.1,1.9,1.9,2.9,2.6,3.4c0.5,0.4,1.2,0.5,1.9,0.5c0.3,0,0.6,0,0.9-0.1v-0.2h-0.4c-0.9,0-2.1-1.1-4-3.9
	c1-0.5,1.6-1.5,1.7-2.6c0-1.1-0.9-2.2-3-2.2c-0.6,0-1.2,0-1.7,0C115,92.8,114.3,92.8,113.7,92.8L113.7,92.8z M75.6,92.8
	c-0.1,0-0.1,0.2,0,0.2c0.4,0,0.7,0.1,1.1,0.2c0.2,0.1,0.3,0.3,0.3,3.1v2c0,2.7-0.1,2.9-0.3,3.1c-0.3,0.1-0.7,0.2-1.1,0.2v0.2h3.7
	c0.1,0,0.1-0.2,0-0.2c-0.4,0-0.7-0.1-1.1-0.2c-0.2-0.1-0.3-0.3-0.3-3.1v-2c0-2.7,0.1-3,0.3-3.1c0.3-0.1,0.7-0.2,1.1-0.2
	c0.1,0,0-0.2,0-0.2H75.6z M140.1,92.8c-0.1,0-0.1,0.2,0,0.2c0.4,0,0.7,0.1,1.1,0.2c0.2,0.1,0.3,0.3,0.3,3.1v2c0,2.7-0.1,2.9-0.3,3.1
	c-0.3,0.1-0.7,0.2-1.1,0.2v0.2h3.7c0.1,0,0.1-0.2,0-0.2c-0.4,0-0.7-0.1-1.1-0.2c-0.2-0.1-0.3-0.3-0.3-3.1v-2c0-2.7,0.1-3,0.3-3.1
	c0.3-0.1,0.7-0.2,1.1-0.2c0.1,0,0-0.2,0-0.2H140.1z M49.5,92.8c0,0-0.1,0.2,0,0.2c0.4,0,0.7,0.1,1,0.3c0.1,0.1,0.2,0.3,0.2,3v2.2
	c0,1.5-0.8,2.8-2.5,2.8c-1.5,0.1-2.8-1.1-2.9-2.6c0-0.1,0-0.2,0-0.3v-2c0-2.7,0.1-3,0.3-3.1c0.3-0.1,0.7-0.2,1-0.2v-0.2H43
	c-0.1,0-0.1,0.2,0,0.2c0.3,0,0.7,0.1,1,0.2c0.2,0.1,0.3,0.3,0.3,3.1v2.3c0,1.8,1.4,3.2,3.6,3.2c1.8,0.1,3.4-1.3,3.5-3.1v-0.1v-2.3
	c0-2.7,0.1-2.9,0.2-3c0.3-0.2,0.6-0.2,0.9-0.2c0.1,0,0-0.2,0-0.2L49.5,92.8z M116.9,93.2c0.1,0,0.1,0,0.2,0c1.3,0,1.9,0.9,1.9,2.3
	c0.1,1-0.6,1.9-1.6,2c-0.1,0-0.1,0-0.2,0c-0.4,0-0.8,0-1.2-0.2c-0.1-0.1-0.1-0.2-0.1-1c-0.1-1,0-1.9,0.2-2.9
	C116.4,93.3,116.7,93.2,116.9,93.2L116.9,93.2z"/>
<path id="Path_859" class="st0" d="M111.8,0.5c-0.1,0-0.1,0.5,0,0.5l0,0c0.8,0,1.9,0,1.7,1.2c-0.1,1.2-5.2,8.5-7,11.3
	c-0.3,0.4-0.5,0.8-0.5,1.3c-0.1-0.5-0.3-0.9-0.6-1.3c-2.5-3.7-6.8-9.8-6.9-11.3c0-1.2,1-1.2,1.8-1.2l0,0c0.1,0,0.2-0.5,0-0.5H82
	c-0.1,0-0.1,0.4,0,0.5l0,0c0.7,0,1.5,0.2,2.1,0.5c0.1,0.1,0.4,0.2,0.5,0.3c0.7,0.6,1.2,1.3,1.7,2l13,19.2v12c0,1,0.1,1.4-0.7,1.8
	c-0.8,0.4-1.7,0.6-2.6,0.7l0,0c-0.1,0-0.1,0.5,0,0.5h20l0,0c0.1,0,0.1-0.4,0-0.5l0,0c-0.9-0.1-1.8-0.3-2.6-0.7
	c-0.7-0.4-0.7-0.8-0.7-1.8V23.1l13-19.3c0.5-0.8,1.1-1.5,1.8-2.1c0.1-0.1,0.3-0.2,0.5-0.3c0.4-0.3,0.9-0.4,1.4-0.3l0,0
	c0.1,0,0.2-0.5,0-0.5L111.8,0.5z M41.3,0.5c-0.1,0-0.1,0.4,0,0.5l0,0c0.9,0.1,1.8,0.3,2.6,0.7c0.7,0.4,0.7,0.8,0.7,1.8V35
	c0,1,0.1,1.4-0.7,1.8c-0.8,0.4-1.7,0.6-2.6,0.7l0,0c-0.1,0-0.1,0.5,0,0.5h25.5C77.5,38,82,33.8,82,27.1c0-4.9-2.3-7.9-6.8-9.1
	c-0.1,0-0.1-0.1,0-0.1c2.9-0.9,5.5-3,5.5-8.1c0-7-4.7-9.3-14.9-9.3L41.3,0.5z M131.1,0.5c-0.1,0-0.1,0.4,0,0.5l0,0
	c0.5,0,1.1,0.1,1.5,0.4c0.6,0.5,0.7,1.1,0.7,2.1v18.6c0,9,4.9,16.6,19.8,16.6s19.8-7.6,19.8-16.6V3.6l0,0c0-1-0.1-1.4,0.7-1.8
	s1.7-0.6,2.6-0.7l0,0c0.1,0,0.1-0.5,0-0.5h-18.8c-0.1,0-0.1,0.4,0,0.5l0,0c0.9,0,1.7,0.3,2.4,0.7s0.7,0.8,0.7,1.8v18.9
	c0,4.3-2.5,7.6-7.4,7.6s-7.4-3.3-7.4-7.6V3.6c0-1-0.1-1.4,0.7-1.8c0.7-0.4,1.6-0.7,2.4-0.7l0,0c0.1,0,0.1-0.5,0-0.5L131.1,0.5z
	 M56.4,7.5c0.3,0,0.6,0.1,0.9,0.1h4.9c3.8,0,6,0.6,6,4c0,2.2-1.4,4.2-5.8,4.2h-5.1c-0.3,0-0.6,0-0.9,0.1c0,0,0-0.4,0-0.9V8.4
	C56.5,8.1,56.5,7.8,56.4,7.5L56.4,7.5z M56.4,21.5c0.3,0,0.6,0.1,0.9,0.1h4.2c3.3,0,7.4,0,7.4,4.6c0,3.4-2.9,4.6-6.8,4.6h-4.7
	c-0.3,0-0.6,0-0.9,0.1c0,0,0-0.5,0-0.9v-7.6C56.5,22.1,56.5,21.8,56.4,21.5L56.4,21.5z"/>
<path id="Path_862" class="st0" d="M172.5,51.1h-131c-0.2,0-0.3-0.1-0.3-0.3s0.1-0.3,0.3-0.3h131.1c0.2,0,0.3,0.1,0.3,0.3
	C172.9,51,172.7,51.1,172.5,51.1L172.5,51.1z"/>
</svg>
