<?xml version="1.0" encoding="utf-8"?>
<!-- Generator: Adobe Illustrator 26.3.1, SVG Export Plug-In . SVG Version: 6.00 Build 0)  -->
<svg version="1.1" id="Layer_1" xmlns="http://www.w3.org/2000/svg" xmlns:xlink="http://www.w3.org/1999/xlink" x="0px" y="0px"
	 viewBox="0 0 217.2 54.1" style="enable-background:new 0 0 217.2 54.1;" xml:space="preserve">
<style type="text/css">
	.st0{opacity:0.6;fill:#FFFFFF;}
	.st1{fill:#FFFFFF;}
	.st2{display:none;fill:#616265;}
	.st3{display:none;fill:#FF0000;}
</style>
<g id="g293534" transform="translate(66.936798,431.56897)">
	<path id="path4" class="st0" d="M-4.4-378.8l14.5-26.1l-14.4-26h3.6c2,0,4.4,1.4,5.3,3.1l12.6,22.9L4.6-381.9
		c-0.9,1.7-3.4,3.1-5.3,3.1L-4.4-378.8L-4.4-378.8z"/>
	<path id="path22970" class="st1" d="M-61.1-430.9c-2.7,0-4.8,2.1-4.8,4.8v42.5c0,2.6,2.2,4.8,4.8,4.8H-8l14.5-26.1l-14.5-26H-61.1z
		 M-57.8-416.4h4.3l10.6,17.2h0.1v-17.2h3.9v23.3h-4.3l-10.6-17.1H-54v17.1h-3.9V-416.4z M-34.9-416.4h4.1v23.3h-0.1h-4V-416.4z
		 M-26.7-416.4h4.1v9.2H-12v-9.2h4v23.3H-12v-10.5h-10.6v10.5h-4.1V-416.4z"/>
	<g>
		<path id="path288731" class="st1" d="M81.6-388.8v-5.1h-5.1v5.1h-2v-11.4h2v4.5h5.1v-4.5h2v11.4H81.6z"/>
		<path id="path288385" class="st1" d="M36.5-414.4c-1.8,0-3.6,0.6-3.7,2.8h1.8c0.1-0.9,0.8-1.3,1.8-1.3c0.7,0,1.7,0.1,1.7,1.1
			c0,1.1-1.1,1-2.5,1.2c-1.5,0.2-3.2,0.5-3.2,2.6c0,1.6,1.4,2.4,2.8,2.4c1,0,2.1-0.3,2.9-1c0.1,0.7,0.7,1,1.4,1
			c0.3,0,0.9-0.1,1.1-0.2v-1.2c-0.2,0-0.3,0-0.4,0c-0.3,0-0.4-0.2-0.4-0.6h0v-4.2C39.8-413.7,38.1-414.4,36.5-414.4L36.5-414.4z
			 M38-410.1L38-410.1l0,1.3c0,1.2-1.2,1.6-2.1,1.6c-0.7,0-1.7-0.3-1.7-1.1c0-1,0.7-1.2,1.5-1.4C36.5-409.7,37.4-409.7,38-410.1z"/>
		<path id="path288387" class="st1" d="M40.8-414.2h1.4v-2.5H44v2.5h1.7v1.4H44v4.4c0,0.7,0.1,1.1,0.9,1.1c0.3,0,0.5,0,0.8-0.1v1.4
			c-0.4,0-0.8,0.1-1.2,0.1c-1.9,0-2.2-0.7-2.3-2.1v-4.9h-1.4V-414.2z"/>
		<path id="path288799" class="st1" d="M54.1-414.4c-2.6,0-4.1,1.8-4.1,4.3s1.5,4.4,4.1,4.3c2.6,0,4.1-1.8,4.1-4.3
			C58.2-412.6,56.7-414.4,54.1-414.4L54.1-414.4z M54.1-413c1.6,0,2.3,1.5,2.3,2.9c0,1.4-0.7,2.9-2.3,2.9c-1.7,0-2.3-1.5-2.3-2.9
			C51.7-411.5,52.5-413,54.1-413z"/>
		<path id="path288803" class="st1" d="M59.6-414.2h1.7v1.2l0,0c0.6-0.9,1.5-1.5,2.6-1.5c1.8,0,2.9,1,2.9,2.8v5.7H65v-5.1
			c0-1.3-0.6-1.8-1.6-1.8c-1.2,0-2,1-2,2.2v4.8h-1.8L59.6-414.2L59.6-414.2z"/>
		<path id="path288805" class="st1" d="M72-414.4c-1.8,0-3.6,0.6-3.7,2.8h1.8c0.1-0.9,0.8-1.3,1.8-1.3c0.7,0,1.7,0.1,1.7,1.1
			c0,1.1-1.1,1-2.5,1.2c-1.5,0.2-3.2,0.5-3.2,2.6c0,1.6,1.4,2.4,2.8,2.4c1,0,2.1-0.3,2.9-1c0.1,0.7,0.7,1,1.4,1
			c0.3,0,0.9-0.1,1.1-0.2v-1.2c-0.2,0-0.3,0-0.4,0c-0.3,0-0.4-0.2-0.4-0.6h0v-4.2C75.3-413.7,73.6-414.4,72-414.4L72-414.4z
			 M73.5-410.1L73.5-410.1l0,1.3c0,1.2-1.2,1.6-2.1,1.6c-0.7,0-1.7-0.3-1.7-1.1c0-1,0.7-1.2,1.5-1.4C72.1-409.7,73-409.7,73.5-410.1
			L73.5-410.1z"/>
		<path id="path288807" class="st1" d="M77.2-417.3H79v11.4h-1.8V-417.3z"/>
		<path id="path288809" class="st1" d="M85.2-417.3h2v11.4h-2V-417.3z"/>
		<path id="path288811" class="st1" d="M89.1-414.2h1.7v1.2l0,0c0.6-0.9,1.5-1.5,2.6-1.5c1.8,0,2.9,1,2.9,2.8v5.7h-1.8v-5.1
			c0-1.3-0.6-1.8-1.6-1.8c-1.2,0-2,1-2,2.2v4.8h-1.8L89.1-414.2L89.1-414.2z"/>
		<path id="path288813" class="st1" d="M101.3-414.3c-1.5,0-3.5,0.6-3.5,2.3c0,1.7,1.3,2.1,2.6,2.4c1.3,0.3,2.6,0.4,2.7,1.4
			c0,0.9-1.1,1.1-1.8,1.1c-1,0-1.8-0.4-1.9-1.4v0h-1.8c0,1.9,1.6,2.9,3.6,2.9c1.7,0,3.7-0.7,3.7-2.7c0-1.6-1.3-2.1-2.6-2.4
			c-1.4-0.3-2.7-0.4-2.7-1.3c0-0.7,1-0.8,1.5-0.8c0.8,0,1.5,0.3,1.7,1.1h1.9C104.5-413.6,103-414.3,101.3-414.3L101.3-414.3z"/>
		<path id="path288815" class="st1" d="M105.2-414.2h1.4v-2.5h1.8v2.5h1.7v1.4h-1.7v4.4c0,0.7,0.1,1.1,0.9,1.1c0.3,0,0.5,0,0.8-0.1
			v1.4c-0.4,0-0.8,0.1-1.2,0.1c-1.9,0-2.2-0.7-2.3-2.1v-4.9h-1.4V-414.2z"/>
		<path id="path288817" class="st1" d="M114.1-414.2h1.4v-2.5h1.8v2.5h1.7v1.4h-1.7v4.4c0,0.7,0.1,1.1,0.9,1.1c0.3,0,0.5,0,0.8-0.1
			v1.4c-0.4,0-0.8,0.1-1.2,0.1c-1.9,0-2.2-0.7-2.3-2.1v-4.9h-1.4L114.1-414.2z"/>
		<path id="path288819" class="st1" d="M127.2-405.9h-1.8v-1.1h0c-0.4,0.8-1.4,1.4-2.3,1.4c-2.2,0-3.1-1.1-3.1-3.2v-5.2h1.8v5
			c0,1.4,0.6,2,1.6,2c1.5,0,2-1,2-2.2v-4.8h1.8L127.2-405.9L127.2-405.9z"/>
		<path id="path288821" class="st1" d="M128-414.2h1.4v-2.5h1.8v2.5h1.7v1.4h-1.7v4.4c0,0.7,0.1,1.1,0.9,1.1c0.3,0,0.5,0,0.8-0.1
			v1.4c-0.4,0-0.8,0.1-1.2,0.1c-1.9,0-2.2-0.7-2.3-2.1v-4.9H128V-414.2z"/>
		<path id="path288823" class="st1" d="M137.5-414.4c-2.4,0-4,2-4,4.3c0,2.5,1.5,4.3,4,4.3c1.8,0,3.3-1,3.7-2.8h-1.7
			c-0.3,0.9-1,1.4-2,1.4c-1.5,0-2.2-1.1-2.2-2.4h6.1C141.7-412.1,140.1-414.4,137.5-414.4L137.5-414.4z M137.5-412.9
			c1.2,0,2,1,2.1,2.2h-4.2C135.4-412,136.3-412.9,137.5-412.9z"/>
		<path id="path288829" class="st1" d="M89.2-397.3c-2.4,0-4,2-4,4.3c0,2.5,1.5,4.3,4,4.3c1.8,0,3.3-1,3.7-2.8h-1.7
			c-0.3,0.9-1,1.4-2,1.4c-1.5,0-2.2-1.1-2.2-2.4h6.1C93.3-394.9,91.8-397.3,89.2-397.3z M89.2-395.8c1.2,0,2,1,2.1,2.2H87
			C87.1-394.9,88-395.8,89.2-395.8z"/>
		<path id="path288831" class="st1" d="M97.8-397.3c-1.8,0-3.6,0.6-3.7,2.8h1.8c0.1-0.9,0.8-1.3,1.8-1.3c0.7,0,1.7,0.1,1.7,1.1
			c0,1.1-1.1,1-2.5,1.2c-1.5,0.2-3.2,0.5-3.2,2.6c0,1.6,1.4,2.4,2.8,2.4c1,0,2.1-0.3,2.9-1c0.1,0.7,0.7,1,1.4,1
			c0.3,0,0.9-0.1,1.1-0.2v-1.3c-0.2,0-0.3,0-0.4,0c-0.3,0-0.4-0.2-0.4-0.6h0v-4.2C101.1-396.6,99.4-397.3,97.8-397.3L97.8-397.3z
			 M99.3-393L99.3-393l0,1.3c0,1.2-1.2,1.6-2.1,1.6c-0.7,0-1.7-0.3-1.7-1.1c0-1,0.7-1.3,1.5-1.4C97.8-392.6,98.7-392.6,99.3-393
			L99.3-393z"/>
		<path id="path288974" class="st1" d="M111.7-400.2v11.4h1.7v-4.9c0-1.2,0.7-2.2,1.9-2.2c1,0,1.5,0.6,1.6,1.8v5.1h1.7v-5.7
			c0-1.8-1.1-2.8-2.8-2.8c-1,0-1.9,0.6-2.4,1.3h0v-4.2L111.7-400.2z"/>
		<path id="path289518" class="st1" d="M145.7-414.3c-1.5,0-3.5,0.6-3.5,2.3c0,1.7,1.3,2.1,2.6,2.4c1.3,0.3,2.6,0.4,2.7,1.4
			c0,0.9-1.1,1.1-1.8,1.1c-1,0-1.8-0.4-1.9-1.4v0h-1.8c0,1.9,1.6,2.9,3.6,2.9c1.7,0,3.7-0.7,3.7-2.7c0-1.6-1.3-2.1-2.6-2.4
			c-1.4-0.3-2.7-0.4-2.7-1.3c0-0.7,1-0.8,1.5-0.8c0.8,0,1.5,0.3,1.7,1.1h1.9C148.9-413.6,147.4-414.3,145.7-414.3L145.7-414.3z"/>
		<path id="path290609" class="st1" d="M46.7-415.7v-1.6h1.8v1.6H46.7z M46.7-405.9v-8.3h1.8v8.3H46.7z"/>
		<path id="path291682" class="st1" d="M111.2-415.7v-1.6h1.8v1.6H111.2z M111.2-405.9v-8.3h1.8v8.3H111.2z"/>
		<path id="path291766" class="st1" d="M105.7-397.1h1.4v-2.5h1.8v2.5h1.7v1.4h-1.7v4.4c0,0.7,0.1,1.1,0.9,1.1c0.3,0,0.5,0,0.8-0.1
			v1.4c-0.4,0-0.8,0.1-1.2,0.1c-1.9,0-2.2-0.7-2.3-2.1v-4.9h-1.4V-397.1z"/>
		<path id="path292070" class="st1" d="M102.8-400.2h1.8v11.4h-1.8V-400.2z"/>
		<path id="path293099" class="st1" d="M64.5-395.7h1.4v6.9h1.8v-6.9h1.7v-1.4h-1.7v-0.7c0-0.7,0.1-1.1,0.9-1.1c0.3,0,0.5,0,0.8,0.1
			v-1.4c-0.4,0-0.8-0.1-1.2-0.1c-1.9,0-2.2,0.7-2.3,2.1v1.2h-1.4V-395.7z"/>
		<path id="path293650" class="st1" d="M59.9-397.3c-2.6,0-4.1,1.8-4.1,4.3s1.5,4.4,4.1,4.3c2.6,0,4.1-1.8,4.1-4.3
			S62.5-397.3,59.9-397.3z M59.9-395.9c1.6,0,2.3,1.5,2.3,2.9c0,1.4-0.7,2.9-2.3,2.9c-1.7,0-2.3-1.5-2.3-2.9
			C57.5-394.4,58.3-395.9,59.9-395.9z"/>
		<path id="path297505" class="st1" d="M29.2-405.9l-5.2-8.3v8.3h-2v-11.4h2l5.2,8.3v-8.3h2v11.4H29.2z"/>
	</g>
</g>
</svg>
