<?xml version="1.0" encoding="utf-8"?>
<!-- Generator: Adobe Illustrator 26.3.1, SVG Export Plug-In . SVG Version: 6.00 Build 0)  -->
<svg version="1.1" id="Layer_1" xmlns="http://www.w3.org/2000/svg" xmlns:xlink="http://www.w3.org/1999/xlink" x="0px" y="0px"
	 viewBox="0 0 222.5 69.4" style="enable-background:new 0 0 222.5 69.4;" xml:space="preserve">
<style type="text/css">
	.st0{fill:#FFFFFF;}
	.st1{font-family:'Centaur';}
	.st2{font-size:22px;}
	.st3{font-size:20px;}
	.st4{font-family:'CentaurMT-Bold';}
	.st5{font-size:6px;}
	.st6{letter-spacing:2;}
	.st7{fill:none;stroke:#FFFFFF;stroke-width:0.5;stroke-miterlimit:10;}
</style>
<g>
	<path class="st0" d="M8.8,13.3c0.9-1.2,2-2.2,3.1-3.2c4.1-3.6,8.8-6.2,14-7.7c2.7-0.8,5.4-1.3,8.2-1.4c0.1,0,0.2,0,0.3-0.1
		c0.1,0,0.2,0,0.3,0c0.3,0.1,0.6,0.1,1,0c0.7,0,1.4,0,2,0c0.6,0.3,1.3,0.3,1.8,0.6c0.3,0.2,0.6,0.3,0.6,0.6s-0.4,0.4-0.7,0.5
		c-1,0.3-2,0.3-3,0.4c-2.3,0.2-4.6,0.7-6.8,1.4c1,0,2,0.1,3,0c2-0.2,3.9-0.1,5.9,0c2.1,0.2,4.2,0.5,6.3,1.1c0.2,0,0.3,0.1,0.5,0.2
		c-1.6-0.2-3.2-0.3-4.8-0.4c-1.7-0.1-3.3,0-5,0.1c-3,0.2-5.9,0.8-8.7,1.8c-4.4,1.5-8.4,3.8-11.8,7c0,0-0.1,0.1-0.2,0.1
		c-0.6-0.3-1.1-0.8-1.4-1.4c0.2-0.6,0.7-0.8,1.2-1.2c1.8-1.5,3.7-2.8,5.7-3.9c0.2-0.1,0.4-0.3,0.6-0.5C21.6,6.6,22.5,6.2,23,6
		c-3,1-6,2.9-8.8,5.2c-1.2,1-2.3,2.1-3.3,3.3c-0.2,0.2-0.3,0.4-0.6,0.4C9.7,14.5,9.1,14,8.8,13.3z"/>
	<path class="st0" d="M1.1,34.3h0.1c0.4,1,0.4,1.9,0,2.9H1.1H1C1.1,36.2,1.1,35.3,1.1,34.3z"/>
	<path class="st0" d="M35.6,0.8c-0.3,0.2-0.6,0.2-1,0C35,0.8,35.3,0.8,35.6,0.8z"/>
	<path class="st0" d="M1.2,37.2c0-1,0-1.9,0-2.9c0.1-4.5,1-8.9,2.6-13.1c1.1-3,2.8-5.6,5-8c0.4,0.6,1,1.1,1.5,1.5
		c0.1,0.3-0.2,0.5-0.4,0.8c-1,1.2-1.8,2.6-2.4,3.4c0.7-1,1.8-2.4,3-3.6c0.7-0.7,1.4-1.5,2.2-2.1c0.2-0.1,0.3-0.4,0.6-0.3
		c0.5,0.4,1,0.9,1.4,1.4c-1.7,1.7-3.3,3.4-4.6,5.5c-1.3,2-2.4,4.2-3.2,6.4c-0.1,0.2-0.1,0.3-0.1,0.5c2-3.7,3.4-7.7,6.8-10.4l0.1,0.1
		c-0.6,0.8-1.3,1.5-1.9,2.3c-3.1,4.2-5.2,9-6.1,14.3c-0.1,0.5-0.2,1-0.3,1.5c-0.1,0.1-0.2-0.2-0.2-0.1c-0.1,1.3-0.3,2.7-0.3,4
		C5,39.6,5,40.8,5.2,42c0,0.3,0.1,0.5,0.1,0.8v-0.1c-0.1-0.3,0-0.7-0.2-1c-0.1-1.4-0.3-2.9-0.2-4.3c0-0.5-0.1-1,0.5-1.4
		c0,1.4,0,2.7,0,4.1c0.1,0,0.2,0,0.3,0c0.3-2.2,0.3-4.6,0.7-7c0.3,0.1,0.2,0.3,0.1,0.4c0,1.8-0.1,3.6,0.4,5.3
		c0.2-3.8,0.7-7.5,2.1-11c0.1,0,0.1,0,0.2,0c0.1,0.6-0.3,1.1-0.4,1.7c0,0.1-0.1,0.2-0.1,0.2c0,0.1,0,0.1,0,0.2c0-0.1,0-0.1,0-0.2
		c0.7-2.5,1.8-4.7,3.2-6.9c0.2-0.4,0.4-0.8,0.8-1c0.2,0,0.4,0.2,0.5,0.3c1.6,1.6,3.3,3.2,4.9,4.9c0.1,0.1,0.3,0.3,0.3,0.4
		c0.1,0.3,0,0.6-0.1,0.9c-0.5,1.1-1,2.3-1.3,3.5c0.1,0.1,0.1,0.2,0.1,0.4c-0.3,0.5-0.3,1.2-0.5,1.8c0,0.1,0,0.1,0,0s0.1-0.1,0.1-0.1
		c0.1,0,0.1,0,0.2,0c-0.1,1-0.3,2.1-0.3,3.1c-0.2,0.1-0.2,0-0.2-0.1c-0.1-0.1-0.1-0.3-0.2-0.4c-0.1-0.1-0.1-0.3-0.3-0.2
		s-0.2,0.2-0.1,0.4c0.5,1.4,0.1,3,0.3,4.4c0.1,0.5,0.2,0.9,0.1,1.4c0,0.1,0,0.2-0.1,0.2c-0.3,0.3-0.4,0.6,0,0.9
		c0.1,0.1,0.1,0.2,0.2,0.3l0,0c0.3,0.1,0.5,0.4,0.7,0.7c0.5,1.3,1.1,2.6,1.8,3.9c0.4,0.6,0.4,1.3,0.6,1.9c0.1,0.4,0.2,0.7,0.6,0.3
		c0.2-0.2,0.3-0.1,0.4,0c1.4,2.2,3.6,3.5,5.6,5c0.1,0.2-0.1,0.4-0.2,0.5c-1.6,1.6-3.3,3.3-4.9,4.9c0,0-0.1,0.1-0.2,0.1
		c-0.4,0.1-0.6-0.2-0.9-0.4c-2-1.4-3.8-3.1-5.4-4.9c1.2,1.9,2.9,3.3,4.6,4.6c0.4,0.3,1,0.6,1.3,1.1c-0.6,0.8-1.3,1.6-2.2,2.2
		c-4.4-2.4-8.1-5.6-11.3-9.6c-1.2-1.5-2.2-3-3.1-4.7c-1.3-2.4-1.7-5.1-2-7.7C1.4,40.4,1.3,38.8,1.2,37.2z"/>
	<path class="st0" d="M20.5,61.4c0.4-0.6,1-1,1.5-1.6c1.3-1.3,2.7-2.6,3.9-3.9c1.8,0.8,3.6,1.5,5.4,2.2c1.6,0.6,3.4,0.6,5,1.3
		c0.2,0.1,0.3,0.1,0.5-0.1c0.4-0.4,1-0.4,1.5-0.4c2.5-0.2,4.9-0.6,7.2-1.4c2-0.7,3.9-1.7,5.6-2.8c0.2-0.2,0.4-0.4,0.8-0.2
		c0.1,0.1,0.2,0,0.3-0.1c1-1,2-1.9,3.1-2.8c0.1-0.1,0.2-0.1,0.2-0.2c0.3-1.1,1.3-1.6,1.9-2.3c0.7-0.8,1-1.8,1.4-2.8
		c1-2,1.8-4.1,2.4-6.2c0.2-0.7,0.6-1.3,1-1.9c0.2,1.8-0.2,3.5-0.7,5.2c-0.7,2.4-1.8,4.7-2.6,7c0,0.1,0,0.2,0.2,0.1
		c1.8-2.4,3-5,4.1-7.8c0.3-0.9,0.6-1.8,1.1-2.6c0.3-0.5,0.5-1.2,1.1-0.9c0.5,0.2,0.5,0.9,0.4,1.5C65.6,42.9,65,45,64.1,47
		c-0.5,1.1-1.2,2.2-1.6,3.4c0,0.1-0.1,0.3,0,0.4c0.1-0.1,0.2-0.1,0.3-0.1c0.7-0.8,1.3-1.5,2-2.4c0.3,0.3,0.1,0.6,0.3,1
		c1-1,1.6-2.2,2.3-3.5c0.1,0,0.2,0,0.1,0.2c-0.8,2.1-1.9,4.1-3,6c-3.2,5.1-7.2,9.3-12.4,12.3c-2.6,1.5-5.4,2.7-8.3,3.5
		c-0.2,0.1-0.5,0.1-0.7,0.1c-4.3,0.9-10.3,1.1-14.5,0c-1.6-0.4-3.2-0.7-4.8-1.2c-2-0.7-4-1.5-5.8-2.6c0.7-0.7,1.4-1.5,2.2-2.1
		c0.3-0.1,0.5,0.1,0.7,0.2c1.1,0.7,2.3,1.4,3.4,2.1c1.7,1.1,3.7,1.5,5.7,1.8c0.1,0,0-0.2,0-0.1c0,0,0,0-0.1,0
		c-1.2-0.2-2.4-0.6-3.5-1.1c-1.8-0.8-3.6-1.6-5.3-2.8C20.8,61.9,20.5,61.8,20.5,61.4z"/>
	<path class="st0" d="M18.4,27.6c-0.9-0.7-1.7-1.6-2.5-2.4c-1-1-2.2-2-3.1-3.2c-0.2-0.3,0.1-0.6,0.3-0.8c0.2-0.3,0.5-0.5,0.6-0.8
		c-0.6,0.7-1.2,1.5-1.8,2.3c-0.1,0.2-0.3,0.4-0.5,0.4c-0.1,0-0.2-0.1-0.1-0.2c1.3-2.5,2.9-4.6,4.9-6.5c3.6-3.6,7.9-5.8,12.8-7
		c0.1,0,0.2,0,0.4,0c-0.8,0.6-1.5,0.9-2,1.5c-0.4,0.5-1,0.8-1.4,1.3c-0.1,0.1-0.2,0.2-0.1,0.4s0.2,0.1,0.4,0c0.4,0,0.7,0,1.1-0.1
		c-0.1,0.3-0.3,0.3-0.5,0.5c-2.2,1.4-4.4,2.7-6.3,4.6c-0.5,0.5-0.9,1.1-1.2,1.8c-0.2,0.3-0.2,0.7-0.2,1.1s0.1,0.6,0.5,0.5
		c0.9-0.2,1.7-0.3,2.6-0.5c0.1,0,0.3-0.1,0.4-0.1c0.3,0,0.8-0.1,0.9,0.3c0.2,0.4-0.2,0.6-0.4,0.8c-1.7,1.7-3,3.7-4.3,5.6
		C18.7,27.1,18.6,27.3,18.4,27.6z"/>
	<path class="st0" d="M67.5,26.9c-0.8-2.1-2.1-3.8-3.2-5.8c-2.4-4.3-5.5-7.9-9.4-10.8c-0.2-0.1-0.3-0.3-0.5-0.4c0-0.1,0-0.2,0.1-0.1
		c2.7,1.5,5.1,3.6,7.1,5.9c1.4,1.6,2.6,3.2,3.6,5c0.3,0.6,0.6,1.3,0.9,1.9c0.3,0.2,0.3,0.7,0.5,1c-0.1,0.2,0,0.3,0,0.5
		c0.3,0.9,0.6,1.7,0.8,2.6C67.7,26.9,67.7,26.9,67.5,26.9z"/>
	<path class="st0" d="M54.2,17.1c-2.4-2.1-5.1-4-8.1-5.2c-0.7-0.3-1.4-0.5-2.1-0.8V11v-0.1c2.7,0.5,5.1,1.6,7.3,3.2
		c1.1,0.8,2.1,1.7,3,2.8C54.4,17.1,54.4,17.1,54.2,17.1z"/>
	<path class="st0" d="M11.4,23.1C12.2,22,13,20.9,14,20c-0.2,0.8-1,1.2-1.3,2c-1.8,2.4-3,5.1-3.9,7.9c-0.3,0-0.2-0.1-0.1-0.3
		C8.9,29,9,28.4,9.2,27.8c-0.1-0.3,0.1-0.5,0.2-0.7c0.2-0.8,0.7-1.5,1-2.3c0.1-0.2,0.3-0.5,0.2-0.7C10.9,23.8,11.1,23.3,11.4,23.1z"
		/>
	<path class="st0" d="M31.7,7.5c1.5-0.3,3-0.5,4.5-0.5c1.8,0,3.5,0.1,5.2,0.8c-3.2-0.3-6.4-0.5-9.6-0.2C31.7,7.7,31.7,7.6,31.7,7.5z
		"/>
	<path class="st0" d="M51.9,8.1c-1.8-1-3.7-2-5.7-2.8c2.4,0,4.2,1.2,5.8,2.7C52.1,8.1,52,8.2,51.9,8.1z"/>
	<path class="st0" d="M5.5,36.1c-0.3,0.4-0.2,0.9-0.2,1.4c-0.1,1.5,0.1,3,0.1,4.5c0.1,0.1,0.1,0.3-0.1,0.3c-0.6-2.8-0.6-5.7,0-8.3
		c0.2,0.2,0,0.5,0.2,0.6c0,0.1,0,0.3,0,0.4c-0.1,0.3-0.1,0.5,0,0.8C5.5,35.8,5.5,36,5.5,36.1z"/>
	<path class="st0" d="M26.2,20.6c-0.9,0.5-1.7,1.2-2.6,1.8c-0.1-0.1-0.1-0.1,0-0.2c0.3-0.5,0.6-0.9,1-1.4s1-0.3,1.5-0.4
		C26.2,20.4,26.3,20.5,26.2,20.6z"/>
	<path class="st0" d="M16.2,44.1c-0.9-0.7-0.9-0.7-0.1-1.5C16.1,43.1,16.2,43.6,16.2,44.1z"/>
	<path class="st0" d="M32.5,18.3c-0.3,0.1-0.7,0.1-1,0.2c-0.2,0.1-0.3-0.1-0.3-0.3c0-0.2,0.2-0.2,0.3-0.2c0.3,0,0.7,0,1,0
		C32.6,18.1,32.6,18.2,32.5,18.3z"/>
	<path class="st0" d="M16.3,37c0.1,0,0.2,0.1,0.2,0.1c0,0.2,0,0.4,0,0.6c0,0.4,0,0.8-0.1,1.2C16.2,38.3,16.3,37.7,16.3,37z"/>
	<path class="st0" d="M37.5,18.1c0.5-0.1,0.9-0.4,1.3,0.2C38.3,18.3,37.9,18.3,37.5,18.1z"/>
	<path class="st0" d="M17,32.5c0-0.1,0-0.3,0-0.4c0.2,0,0.5-0.2,0.4,0.3c-0.1,0.4-0.1,0.8-0.4,1.1c0,0,0-0.1-0.1-0.1
		C16.8,33,16.8,32.7,17,32.5z"/>
	<path class="st0" d="M11.4,23.1c-0.2,0.3-0.3,0.9-0.8,1c0.1-0.4,0.5-0.7,0.7-1.1C11.3,23,11.4,23,11.4,23.1z"/>
	<path class="st0" d="M67.4,45.9c0-0.1-0.1-0.1-0.1-0.2c0.2-0.4,0.2-0.8,0.5-1.1c0-0.1,0.1,0,0.1,0C67.8,45.1,67.7,45.5,67.4,45.9z"
		/>
	<path class="st0" d="M66.9,23.6c-0.4-0.2-0.4-0.6-0.5-1C66.9,22.8,66.9,23.2,66.9,23.6z"/>
	<path class="st0" d="M47.2,21.6c-0.3-0.2-0.7-0.4-1.1-0.6C46.6,20.9,46.8,21,47.2,21.6z"/>
	<path class="st0" d="M16.9,44.8c-0.3-0.2-0.5-0.4-0.7-0.7C16.9,43.9,16.7,44.5,16.9,44.8z"/>
	<path class="st0" d="M6.5,33.5c0-0.1,0-0.3-0.1-0.4c0-0.3,0.1-0.6,0.1-0.9c0.1,0,0.2,0,0.1,0.1C6.6,32.7,6.8,33.1,6.5,33.5z"/>
	<path class="st0" d="M54.2,15.2c-0.3-0.3-0.5-0.5-0.8-0.8l0.1-0.1C53.8,14.6,54.1,14.9,54.2,15.2C54.3,15.2,54.3,15.2,54.2,15.2z"
		/>
	<path class="st0" d="M68.7,36c-0.2-0.5-0.1-0.8-0.1-1.1C68.7,35.2,69,35.5,68.7,36z"/>
	<path class="st0" d="M62.8,50.6c-0.1,0.2-0.2,0.4-0.5,0.5c0-0.3,0.1-0.6,0.3-0.8C62.6,50.5,62.7,50.5,62.8,50.6z"/>
	<path class="st0" d="M54.2,17.1c0.1-0.1,0.1-0.1,0.2-0.2c0.2,0.2,0.4,0.3,0.5,0.7C54.5,17.6,54.4,17.3,54.2,17.1z"/>
	<path class="st0" d="M69.5,39.7c0-0.3,0-0.6,0.3-1C69.8,39.2,69.7,39.5,69.5,39.7z"/>
	<path class="st0" d="M44,10.9c0,0.1,0,0.1,0,0.2c-0.3-0.1-0.6-0.2-0.9-0.3c0,0-0.1,0,0-0.1l0,0C43.4,10.7,43.7,10.8,44,10.9z"/>
	<path class="st0" d="M67.9,44.7L67.9,44.7C67.8,44.7,67.8,44.7,67.9,44.7c-0.1-0.2-0.1-0.5,0.2-0.7C68.2,44.3,68.1,44.5,67.9,44.7z
		"/>
	<path class="st0" d="M69.1,41.1c-0.1-0.3,0.1-0.5,0.2-0.7C69.4,40.6,69.3,40.9,69.1,41.1z"/>
	<path class="st0" d="M31.9,4.1c-0.3,0.1-0.5,0.1-0.9,0.2C31.3,4,31.6,4,31.9,4.1z"/>
	<path class="st0" d="M54.2,15.2c0.1,0,0.1,0,0.2,0c0.2,0.2,0.4,0.3,0.5,0.5C54.6,15.6,54.4,15.4,54.2,15.2z"/>
	<path class="st0" d="M22.6,23.4c-0.2,0.3-0.3,0.5-0.6,0.6C22.1,23.7,22.2,23.6,22.6,23.4z"/>
	<path class="st0" d="M9.4,27.1c0,0.3-0.1,0.5-0.2,0.7c-0.1,0-0.1,0-0.2,0C9,27.5,9.2,27.3,9.4,27.1z"/>
	<path class="st0" d="M7,30.8c0,0.3,0,0.5-0.2,0.7C6.6,31.2,6.9,31,7,30.8C6.9,30.7,6.9,30.7,7,30.8z"/>
	<path class="st0" d="M51.9,8.1C52,8.1,52,8,52,8c0.2,0.1,0.4,0.2,0.5,0.5C52.3,8.4,52.1,8.3,51.9,8.1z"/>
	<path class="st0" d="M70,38c0,0.3,0,0.5-0.2,0.7C69.8,38.4,69.8,38.2,70,38z"/>
	<path class="st0" d="M32.5,18.3c0-0.1,0-0.2,0-0.2c0.2,0,0.3,0,0.5,0C32.9,18.4,32.7,18.3,32.5,18.3z"/>
	<path class="st0" d="M6.7,32.3L6.7,32.3c-0.1-0.2-0.1-0.5,0-0.4C6.9,31.9,6.8,32.2,6.7,32.3z"/>
	<path class="st0" d="M54.6,9.7l-0.1,0.1c-0.2-0.1-0.3-0.2-0.5-0.4C54.3,9.4,54.5,9.6,54.6,9.7z"/>
	<path class="st0" d="M16.9,34.1L16.9,34.1h-0.1c-0.1-0.3-0.1-0.6,0.3-0.7l0,0C17,33.6,17.1,33.9,16.9,34.1z"/>
	<path class="st0" d="M30.2,7.9c-0.2,0.1-0.5,0.2-0.8,0c0.3-0.1,0.5-0.1,0.7-0.2C30.2,7.8,30.2,7.8,30.2,7.9
		C30.2,7.8,30.2,7.9,30.2,7.9z"/>
	<path class="st0" d="M27.7,11c0.2-0.2,0.4-0.2,0.7-0.3c0,0,0.1,0.1,0,0.1l0,0c-0.2,0.1-0.5,0.2-0.7,0.3V11L27.7,11z"/>
	<path class="st0" d="M23.3,22.8c-0.1,0.2-0.2,0.3-0.5,0.4c0.1-0.3,0.3-0.4,0.5-0.5C23.3,22.7,23.3,22.8,23.3,22.8z"/>
	<path class="st0" d="M31.7,7.5l0.1,0.1c-0.1,0.1-0.3,0.1-0.4,0.1s-0.1-0.1,0-0.2C31.5,7.5,31.6,7.5,31.7,7.5z"/>
	<path class="st0" d="M52.8,13.9c-0.1-0.1-0.3-0.1-0.3-0.4C52.7,13.6,52.9,13.6,52.8,13.9z"/>
	<path class="st0" d="M42.6,10.7c-0.2-0.1-0.4-0.1-0.6-0.2C42.3,10.4,42.5,10.4,42.6,10.7C42.6,10.6,42.6,10.6,42.6,10.7L42.6,10.7z
		"/>
	<path class="st0" d="M7,30.8L7,30.8C6.9,30.8,6.9,30.8,7,30.8c-0.1-0.2,0-0.4,0-0.7c0-0.1,0.1-0.1,0.1,0C7.1,30.4,7.1,30.6,7,30.8z
		"/>
	<path class="st0" d="M5.5,35.7c-0.2-0.3-0.2-0.5,0-0.8C5.5,35.2,5.5,35.4,5.5,35.7z"/>
	<path class="st0" d="M30.2,7.9L30.2,7.9c0.2-0.1,0.4-0.2,0.6-0.2C30.6,7.9,30.4,7.8,30.2,7.9z"/>
	<path class="st0" d="M23.3,22.8c0-0.1,0-0.1,0-0.2c0.1-0.1,0.3-0.3,0.4-0.4c0,0.1,0,0.1,0,0.2C23.5,22.5,23.4,22.7,23.3,22.8z"/>
	<path class="st0" d="M42.6,10.7v-0.1c0.2,0,0.4-0.1,0.5,0.1v0.1C42.9,10.8,42.7,10.7,42.6,10.7z"/>
	<path class="st0" d="M27.7,11v0.1c-0.1,0-0.2,0.2-0.4,0.1C27.4,11,27.6,11,27.7,11z"/>
	<path class="st0" d="M26.2,20.6l-0.1-0.1c0.1-0.1,0.3-0.1,0.5-0.1C26.4,20.5,26.3,20.5,26.2,20.6z"/>
	<path class="st0" d="M68.8,37.2c-0.1-0.1-0.1-0.3,0-0.5C68.9,36.9,68.9,37.1,68.8,37.2z"/>
	<path class="st0" d="M28.4,10.8v-0.1c0.1-0.2,0.3-0.2,0.5-0.1C28.7,10.7,28.6,10.8,28.4,10.8z"/>
	<path class="st0" d="M55.3,18.2c-0.1-0.1-0.1-0.2-0.2-0.2c0,0,0-0.1,0.1-0.1C55.4,18,55.4,18.1,55.3,18.2z"/>
	<path class="st0" d="M59.1,50.6c-0.1,0.1-0.1,0.3-0.3,0.2s0-0.3,0.1-0.4C59,50.5,59.1,50.6,59.1,50.6z"/>
	<path class="st0" d="M67.5,26.9l0.1-0.1c0.1,0.1,0.2,0.3,0.1,0.4C67.7,27.2,67.6,27,67.5,26.9z"/>
	<path class="st0" d="M21.2,25c0,0-0.1,0.1-0.2,0.2c0,0-0.1,0-0.1-0.1s0.1-0.1,0.2-0.2C21.1,24.9,21.2,24.9,21.2,25z"/>
	<path class="st0" d="M7.1,30.1L7.1,30.1c-0.1-0.1,0-0.2,0.1-0.4C7.2,29.9,7.2,30,7.1,30.1z"/>
	<path class="st0" d="M13.3,12.9c-2.2,1.9-4.1,4.1-5.8,6.4c-0.1,0.1-0.2,0.3-0.3,0.4c0,0.1-0.1,0.1-0.3,0.1c0.3-0.6,0.7-1.1,1-1.7
		c0.4-0.6,0.8-1.2,1.2-1.7c0.4-0.6,0.8-1.1,1.2-1.6c0.6-0.6,1.2-1.3,1.8-1.9c3.1-3.2,6.7-5.5,10.9-7.1c0.2-0.1,0.4-0.2,0.7-0.2
		c0,0.2-0.1,0.2-0.2,0.2C20.7,7.4,18,9.1,15.4,11C14.7,11.7,14,12.2,13.3,12.9z"/>
	<path class="st0" d="M28.6,4.5c0.2,0,0.3-0.1,0.6-0.2C29,4.7,28.8,4.6,28.6,4.5z"/>
	<path class="st0" d="M27.7,4.9c-0.1,0.1-0.2,0.1-0.4,0C27.5,4.9,27.6,4.8,27.7,4.9C27.8,4.8,27.8,4.8,27.7,4.9
		C27.8,4.8,27.8,4.9,27.7,4.9z"/>
	<path class="st0" d="M27.7,4.9C27.7,4.8,27.7,4.8,27.7,4.9c0.1-0.1,0.3-0.2,0.4-0.2C28.1,4.9,27.9,4.8,27.7,4.9z"/>
	<path class="st0" d="M20.5,61.4c1.6,1.2,3.4,2.1,5.2,2.9c1.4,0.7,2.9,1.1,4.5,1.5c-0.4,0.3-0.7,0.3-1.1,0.2c-2.6-0.5-5-1.6-7.1-3.1
		c-0.6-0.4-1.3-0.8-1.9-1.2c-1.3-1-2.6-1.9-3.8-3c-1-0.9-1.8-1.9-2.4-3.1C16,57.8,18,59.9,20.5,61.4z"/>
	<path class="st0" d="M10.9,50.9c0.6,1,1.2,1.9,1.8,3c-2.8-2.3-6-11.1-5-17.8c0,1.6,0.1,3.2,0.3,4.8c0.2,1.6,0.6,3.2,1.1,4.8
		s1.1,3.1,1.8,4.5c0.1,0.1,0,0.2,0,0.2C10.9,50.6,10.8,50.8,10.9,50.9z"/>
	<path class="st0" d="M5.2,23c-0.9,1.9-1.7,3.7-2.4,5.6C2.7,26.4,3.8,24.6,5.2,23z"/>
	<path class="st0" d="M17,33.4c-0.2,0.2-0.2,0.4-0.3,0.7c-0.2,0.2-0.1,0.4-0.5,0.7c0.3-0.8,0.2-1.7,0.7-2.3C17,32.8,17,33.1,17,33.4
		z"/>
	<path class="st0" d="M5.2,42.2c0-0.1,0.1-0.2,0.1-0.3c0.2,0.3,0.1,0.7,0.1,1.1c0.1,0.1,0,0.2-0.1,0.1C5.3,42.8,5.3,42.5,5.2,42.2z"
		/>
	<path class="st0" d="M8.7,29.6c0,0.1,0.1,0.2,0.1,0.3c0,0.2-0.1,0.5-0.3,0.7C8.4,30.1,8.6,29.9,8.7,29.6z"/>
	<path class="st0" d="M7.8,34.8c0.1,0.3,0.1,0.7-0.1,1C7.6,35.4,7.8,35.1,7.8,34.8z"/>
	<path class="st0" d="M5.6,44.5c0-0.2-0.1-0.5-0.1-0.8c0.3,0.3,0.3,0.6,0.3,0.9C5.7,44.6,5.6,44.6,5.6,44.5z"/>
	<path class="st0" d="M12.8,54.2c0.3,0.1,0.4,0.2,0.5,0.5C13.1,54.6,13,54.4,12.8,54.2z"/>
	<path class="st0" d="M8.4,31.3c-0.1,0.2-0.1,0.5-0.2,0.8C8.1,31.8,8.1,31.5,8.4,31.3C8.4,31.3,8.4,31.3,8.4,31.3z"/>
	<path class="st0" d="M10.9,50.9c-0.1-0.2-0.4-0.3-0.1-0.6c0.1,0.1,0.2,0.2,0.4,0.2C11.1,50.7,11,50.8,10.9,50.9z"/>
	<path class="st0" d="M5.6,44.5L5.6,44.5c0.3,0.1,0.3,0.3,0.2,0.6C5.7,44.9,5.7,44.7,5.6,44.5z"/>
	<path class="st0" d="M5.3,43.1L5.3,43.1c0.2,0,0.3,0.2,0.1,0.3C5.3,43.4,5.4,43.3,5.3,43.1z"/>
	<path class="st0" d="M16.2,35.3c0.1,0.1,0,0.2-0.1,0.3H16C16.1,35.5,16,35.4,16.2,35.3z"/>
	<path class="st0" d="M11.1,50.6c-0.2,0-0.3-0.1-0.4-0.2l0.1-0.1C11,50.4,11.1,50.5,11.1,50.6z"/>
	<path class="st0" d="M8.4,31.3H8.3c0-0.2-0.1-0.4,0.1-0.5C8.6,31,8.4,31.2,8.4,31.3z"/>
	<path class="st0" d="M15.3,18.7c-0.1,0.3-0.2,0.4-0.5,0.5C14.9,18.9,15,18.8,15.3,18.7z"/>
</g>
<text transform="matrix(1 0 0 1 79.1897 24.3798)" class="st0 st1 st2">Simmons Center</text>
<text transform="matrix(1 0 0 1 71.3849 41.5109)" class="st0 st1 st3">For Cancer Research</text>
<text transform="matrix(1 0 0 1 78.428 58.5509)" class="st0 st4 st5 st6">BRIGHAM YOUNG UNIVERISTY</text>
<line class="st7" x1="74.8" y1="48.4" x2="218.3" y2="48.4"/>
</svg>
