<?xml version="1.0" encoding="utf-8"?>
<!-- Generator: Adobe Illustrator 26.3.1, SVG Export Plug-In . SVG Version: 6.00 Build 0)  -->
<svg version="1.1" id="Layer_1" xmlns="http://www.w3.org/2000/svg" xmlns:xlink="http://www.w3.org/1999/xlink" x="0px" y="0px"
	 viewBox="0 0 222.5 68.3" style="enable-background:new 0 0 222.5 68.3;" xml:space="preserve">
<style type="text/css">
	.st0{fill:#FFFFFF;}
</style>
<g>
	<path class="st0" d="M49.6,3h-0.4c0-0.4-0.1-0.9-0.3-1.1c-0.3-0.3-0.8-0.6-2.7-0.6c-0.4,0-0.6,0-0.7,0c-0.1,0.2-0.1,0.8-0.1,1.9v4
		c0,3,0.2,3.4,0.4,3.5c0.2,0.1,0.7,0.2,1.3,0.3c0.1,0,0.1,0.4,0,0.4c-0.8,0-4.1,0-4.9,0c-0.1,0-0.1-0.4,0-0.4
		c0.7-0.1,1.1-0.2,1.3-0.3s0.3-0.5,0.3-3.5v-4c0-1.1,0-1.7-0.1-1.9c-0.2,0-0.5,0-0.8,0c-1.8,0-2.3,0.2-2.7,0.6
		C40,2.1,39.9,2.6,39.8,3c0,0.1-0.4,0-0.4-0.1c0.1-0.8,0.2-1.8,0.2-2.4c0,0,0-0.1,0.1-0.1c0.6,0.1,2,0.2,4.9,0.2
		c4.1,0,4.7-0.1,5-0.2c0.1,0,0.1,0,0.1,0.1C49.8,1.1,49.7,2.1,49.6,3"/>
	<path class="st0" d="M58.8,11.3c-0.1,0-0.1-0.4,0-0.4c0.7-0.1,1-0.2,1.2-0.3s0.4-0.5,0.4-3.5v-1h-6.2v1c0,3,0.2,3.4,0.4,3.5
		s0.5,0.2,1.2,0.3c0.1,0,0.1,0.4,0,0.4c-0.8,0-3.8,0-4.7,0c0,0-0.1-0.4,0-0.4c0.7-0.1,1-0.2,1.2-0.3s0.3-0.5,0.3-3.5V4.7
		c0-3-0.1-3.4-0.3-3.5c-0.2-0.1-0.5-0.2-1.2-0.3c-0.1,0-0.1-0.4,0-0.4c0.8,0,3.8,0,4.7,0v0.4c-0.7,0.1-1,0.2-1.2,0.3
		s-0.4,0.5-0.4,3.5v0.7h6.2V4.7c0-3-0.2-3.4-0.4-3.5c-0.2-0.1-0.5-0.2-1.2-0.3c-0.1,0-0.1-0.4,0-0.4c0.8,0,3.8,0,4.6,0
		c0.1,0,0.1,0.4,0,0.4c-0.7,0.1-1,0.2-1.2,0.3s-0.3,0.5-0.3,3.5v2.4c0,3,0.2,3.4,0.3,3.5c0.2,0.1,0.5,0.2,1.2,0.3
		c0.1,0,0.1,0.4,0,0.4C62.7,11.3,59.7,11.3,58.8,11.3"/>
	<path class="st0" d="M72.6,11.1c-0.1,0.2-0.2,0.3-0.7,0.3c-1.1,0-2.3-0.1-3.7-0.1c-1.1,0-1.8,0-3,0c-0.1,0-0.1-0.4,0-0.4
		c0.7-0.1,1-0.2,1.2-0.3s0.4-0.5,0.4-3.5V4.7c0-3-0.2-3.4-0.4-3.5c-0.2-0.1-0.5-0.2-1.2-0.3c-0.1,0-0.1-0.4,0-0.4c1.3,0,3.4,0,4.6,0
		c1.4,0,2.2,0,2.7-0.1c0.1,0,0.1,0,0.1,0.1c-0.1,0.6-0.1,1.4-0.2,2.2c0,0.1-0.4,0.1-0.4,0c0-0.4-0.1-0.8-0.3-1.1
		c-0.3-0.3-0.8-0.4-2-0.4c-0.7,0-1.1,0-1.3,0c-0.1,0.2-0.1,0.7-0.1,1.8v2.3h1.3c1.6,0,1.9-0.4,2-1c0-0.1,0.4-0.1,0.4,0
		c0,0.5-0.1,2.4-0.1,2.9c0,0.1-0.4,0.1-0.4,0c0-0.3-0.1-0.7-0.3-0.9C71,6.2,70.8,6,69.6,6h-1.2v1.1c0,2,0.2,2.9,0.4,3.2
		c0.2,0.2,0.4,0.3,1.5,0.3s1.6-0.2,2-0.6c0.2-0.2,0.4-0.6,0.6-1.1c0-0.1,0.3,0,0.3,0.1C72.8,9.8,72.7,10.8,72.6,11.1"/>
	<path class="st0" d="M90,10.7c-0.2,0.3-1.4,0.8-3.4,0.8c-3.5,0-6.1-2.4-6.1-5.4c0-2.9,2.3-5.7,6.1-5.7c2,0,2.9,0.6,3.6,0.5
		c0.1,0,0.1,0,0.1,0.1c0,0.6,0.1,1.5,0.1,2.4c0,0.1-0.4,0.1-0.4,0c0-0.4-0.3-1-0.7-1.3c-0.6-0.6-1.6-1-2.8-1c-3.1,0-4.2,2.2-4.2,4.6
		c0,2.7,1.7,5.2,4.5,5.2c1.3,0,2.1-0.2,2.7-0.9c0.3-0.4,0.6-1,0.7-1.5c0-0.1,0.4,0,0.4,0.1C90.4,9.4,90.1,10.5,90,10.7"/>
	<path class="st0" d="M100.4,11.3c-0.1,0-0.1-0.4,0-0.4c0.7-0.1,1-0.2,1.2-0.3s0.4-0.5,0.4-3.5v-1h-6.2v1c0,3,0.2,3.4,0.4,3.5
		c0.2,0.1,0.5,0.2,1.2,0.3c0.1,0,0.1,0.4,0,0.4c-0.8,0-3.8,0-4.6,0c0,0-0.1-0.4,0-0.4c0.7-0.1,1-0.2,1.2-0.3s0.3-0.5,0.3-3.5V4.7
		c0-3-0.1-3.4-0.3-3.5c-0.2-0.1-0.5-0.2-1.2-0.3c-0.1,0-0.1-0.4,0-0.4c0.8,0,3.8,0,4.6,0v0.4c-0.7,0.1-1,0.2-1.2,0.3
		s-0.4,0.5-0.4,3.5v0.7h6.2V4.7c0-3-0.2-3.4-0.4-3.5c-0.2-0.1-0.5-0.2-1.2-0.3c-0.1,0-0.1-0.4,0-0.4c0.8,0,3.8,0,4.6,0
		c0.1,0,0.1,0.4,0,0.4c-0.7,0.1-1,0.2-1.2,0.3s-0.3,0.5-0.3,3.5v2.4c0,3,0.2,3.4,0.3,3.5c0.2,0.1,0.5,0.2,1.2,0.3
		c0.1,0,0.1,0.4,0,0.4C104.2,11.3,101.2,11.3,100.4,11.3"/>
	<path class="st0" d="M117.1,1.3c-0.2,0.1-0.3,0.4-0.3,3.5v2.8c0,2-1.7,4-4.4,4c-2.7,0-4.5-1.8-4.5-3.9v-3c0-3-0.2-3.4-0.4-3.5
		c-0.2-0.1-0.5-0.2-1.2-0.3c-0.1,0-0.1-0.4,0-0.4c0.8,0,3.9,0,4.7,0c0,0,0.1,0.4,0,0.4c-0.7,0.1-1,0.2-1.2,0.3s-0.4,0.5-0.4,3.5v2.4
		c0,2.1,1.3,3.4,3.4,3.4s3.1-1.4,3.1-3.2V4.7c0-3-0.2-3.3-0.3-3.5C115.4,1,115,1,114.3,0.9c-0.1,0,0-0.4,0-0.4c0.8,0,3.1,0,3.9,0
		c0.1,0,0.1,0.4,0,0.4C117.6,1,117.3,1.1,117.1,1.3"/>
	<path class="st0" d="M130.3,11.3c-1.1,0-1.9-0.1-2.6-0.6c-0.9-0.6-1.8-1.6-3.2-3.9c-0.8,0-1.1,0-1.8,0v0.4c0,3,0.2,3.4,0.4,3.5
		c0.2,0.1,0.7,0.2,1.5,0.3c0.1,0,0.1,0.4,0,0.4c-0.8,0-4.2,0-5,0c-0.1,0-0.1-0.4,0-0.4c0.7-0.1,1-0.2,1.2-0.3s0.3-0.5,0.3-3.5V4.7
		c0-3-0.2-3.4-0.3-3.5c-0.2-0.1-0.5-0.2-1.2-0.3c-0.1,0-0.1-0.4,0-0.4c0.8,0,1.7,0,2.3,0c0.6,0,1.3,0,2.1,0c2.6,0,4,1.4,4,2.7
		s-1,2.4-2.2,3.1c2.3,3.3,3.5,4.4,4.9,4.4c0.2,0,0.4,0,0.5,0s0.1,0.4,0.1,0.4C131,11.3,130.7,11.3,130.3,11.3 M124.1,1.2
		c-0.6,0-1,0.1-1,0.2c-0.1,0.1-0.3,1.1-0.3,3.3c0,1,0.1,1.1,0.2,1.2c0.2,0.2,0.5,0.3,1.3,0.3c1.3,0,2.1-1.1,2.1-2.4
		C126.4,2.3,125.7,1.2,124.1,1.2z"/>
	<path class="st0" d="M140.5,10.7c-0.2,0.3-1.4,0.8-3.4,0.8c-3.5,0-6.1-2.4-6.1-5.4c0-2.9,2.3-5.7,6.1-5.7c2,0,2.9,0.6,3.6,0.5
		c0.1,0,0.1,0,0.1,0.1c0,0.6,0.1,1.5,0.1,2.4c0,0.1-0.4,0.1-0.4,0c0-0.4-0.3-1-0.7-1.3c-0.6-0.6-1.6-1-2.8-1c-3.1,0-4.2,2.2-4.2,4.6
		c0,2.7,1.7,5.2,4.5,5.2c1.3,0,2.1-0.2,2.7-0.9c0.3-0.4,0.6-1,0.7-1.5c0-0.1,0.4,0,0.4,0.1C140.9,9.4,140.7,10.5,140.5,10.7"/>
	<path class="st0" d="M150.8,11.3c-0.1,0-0.1-0.4,0-0.4c0.7-0.1,1-0.2,1.2-0.3s0.4-0.5,0.4-3.5v-1h-6.2v1c0,3,0.2,3.4,0.4,3.5
		s0.5,0.2,1.2,0.3c0.1,0,0.1,0.4,0,0.4c-0.8,0-3.9,0-4.7,0c0,0-0.1-0.4,0-0.4c0.7-0.1,1-0.2,1.2-0.3s0.3-0.5,0.3-3.5V4.7
		c0-3-0.1-3.4-0.3-3.5c-0.2-0.1-0.5-0.2-1.2-0.3c-0.1,0-0.1-0.4,0-0.4c0.8,0,3.8,0,4.7,0v0.4c-0.7,0.1-1,0.2-1.2,0.3
		s-0.4,0.5-0.4,3.5v0.7h6.2V4.7c0-3-0.2-3.4-0.4-3.5c-0.2-0.1-0.5-0.2-1.2-0.3c-0.1,0-0.1-0.4,0-0.4c0.8,0,3.8,0,4.6,0
		c0.1,0,0.1,0.4,0,0.4c-0.7,0.1-1,0.2-1.2,0.3s-0.3,0.5-0.3,3.5v2.4c0,3,0.2,3.4,0.3,3.5c0.2,0.1,0.5,0.2,1.2,0.3
		c0.1,0,0.1,0.4,0,0.4C154.6,11.3,151.6,11.3,150.8,11.3"/>
	<path class="st0" d="M167.7,11.5c-3.3,0-5.7-2.4-5.7-5.4c0-2.9,2.5-5.7,6-5.7c3.3,0,5.7,2.4,5.7,5.4
		C173.7,8.7,171.2,11.5,167.7,11.5 M167.6,1.1c-3,0-3.9,2.5-3.9,4.5c0,2.7,1.6,5.2,4.4,5.2c3,0,3.9-2.5,3.9-4.5
		C172,3.6,170.3,1.1,167.6,1.1z"/>
	<path class="st0" d="M182.9,2.8c0,0.1-0.4,0.1-0.4-0.1c0-0.4-0.1-0.8-0.3-1c-0.3-0.3-0.9-0.6-2.1-0.6c-0.7,0-1.3,0-1.5,0.1
		c0,0.2-0.1,0.8-0.1,1.9v2.4h1.2c1.6,0,1.9-0.2,2-0.8c0-0.1,0.4,0,0.4,0c0,0.5-0.1,2.1-0.1,2.6h-0.4c0-0.3-0.1-0.7-0.2-0.8
		c-0.2-0.2-0.4-0.2-1.6-0.2h-1.2v0.9c0,3,0.2,3.4,0.4,3.5c0.2,0.1,0.7,0.2,1.5,0.3c0.1,0,0.1,0.4,0,0.4c-0.8,0-4.2,0-5,0
		c-0.1,0-0.1-0.4,0-0.4c0.6-0.1,1-0.2,1.2-0.3s0.3-0.5,0.3-3.5V4.7c0-3-0.2-3.5-0.3-3.6c-0.2-0.1-0.5-0.2-1.2-0.3
		c-0.1,0-0.1-0.3,0-0.3c1.3,0,3.5,0,4.6,0c1.5,0,2.4,0,3-0.1c0.1,0,0.1,0,0.1,0.1C183,1.1,183,1.9,182.9,2.8"/>
	<path class="st0" d="M10.9,23.6c-1.3,0.1-2.1,0.2-2.5,0.5c-0.4,0.2-0.8,1.1-0.7,7.1l0.1,8.9c0.1,5.8-1.3,8.3-7,11
		c-0.1,0.1-0.4-0.4-0.3-0.5c2.9-2.1,4.4-3.5,4.4-10.5v-8.9c0-6-0.3-6.9-0.7-7.1c-0.4-0.2-1.3-0.3-2.5-0.5c-0.1,0-0.1-0.7,0-0.7
		c1.5,0,7.7,0,9.2,0C11,22.9,11.1,23.6,10.9,23.6"/>
	<path class="st0" d="M28.7,43.9c-0.2,0.2-1.2,0.4-2.5,0.4c-2,0-3-0.1-5.7-0.1c-2.1,0-3.7,0-6.1,0.1c-0.1,0-0.1-0.7,0-0.7
		c1.3-0.1,2-0.2,2.4-0.5c0.4-0.2,0.7-1.1,0.7-7.1v-4.8c0-6-0.3-6.9-0.7-7.1c-0.4-0.2-1.2-0.3-2.4-0.5c-0.1,0-0.1-0.7,0-0.7
		c2.6,0,6.9,0.1,9,0.1c2.8,0,3.9,0,4.8-0.2c0.2,0,0.2,0.1,0.2,0.1c-0.1,1.1-0.2,2.8-0.4,4.6c0,0.1-0.7,0.1-0.7-0.1
		c0-0.8-0.3-1.7-0.8-2.2c-0.7-0.7-1.5-1-3.4-1c-1.3,0-2.5,0-2.8,0.1c-0.1,0.3-0.1,1.5-0.1,3.6v4.7H23c3.1,0,3.2-0.9,3.4-2.1
		c0-0.1,0.7-0.1,0.7,0c0,0.9-0.1,5-0.2,5.9c0,0.1-0.7,0.1-0.7,0c0-0.6-0.2-1.7-0.5-2s-0.5-0.5-2.8-0.5h-2.7v2.2
		c0,4.2,0.2,6.2,0.5,6.5S22,43,24,43s2.8-0.5,3.4-1.1c0.4-0.4,0.8-1.4,1.1-2.6c0-0.2,0.7,0,0.7,0.1C29.1,41.4,28.7,43.8,28.7,43.9"
		/>
	<path class="st0" d="M39.5,44.7c-2.7,0-5-1.2-5.3-1.6c0-0.1-0.4-3.5-0.2-5.2c0-0.2,0.7-0.2,0.8,0c0.1,1.3,0.7,2.9,1.2,3.6
		c0.8,1.2,2.2,2.1,4.2,2.1c2.3,0,3.5-1.5,3.5-3.9c0-5.2-8.7-5.5-8.7-11.4c0-3.1,2.5-5.8,6-5.8c2.5,0,2.9,0.8,4.3,0.6
		c0.1,0,0.2,0,0.2,0.1c0,1.2,0.1,3.1,0,4.9c0,0.1-0.7,0.1-0.8-0.1c-0.1-1.3-0.4-2.5-1-3.2c-0.7-0.8-1.6-1.3-3.1-1.3
		c-1.8,0-3.1,1.5-3.1,3.6c0,4.4,8.8,5.5,8.8,11.2C46.3,42.4,42.8,44.7,39.5,44.7"/>
	<path class="st0" d="M70.3,24.2c-0.3,0.2-0.6,1-0.6,7v5.5c0,3.9-3,7.7-8.7,7.7c-5.1,0-8.3-3.4-8.3-7.7v-5.6c0-6-0.3-6.9-0.7-7.1
		s-1-0.3-2.3-0.5c-0.1,0-0.1-0.7,0-0.7c1.5,0,7.3,0,8.9,0c0.1,0,0.1,0.7,0,0.7c-1.3,0.1-2,0.2-2.4,0.5c-0.4,0.2-0.7,1.1-0.7,7.1v5
		c0,3.6,2.3,6.6,6.6,6.6c4,0,6.1-3.1,6.1-6.3V31c0-6-0.3-6.8-0.6-7c-0.4-0.3-1.1-0.4-2.4-0.6c-0.1,0-0.1-0.7,0-0.7
		c1.5,0,5.8,0,7.4,0c0.1,0,0.2,0.7,0,0.7C71.3,23.7,70.7,23.8,70.3,24.2"/>
	<path class="st0" d="M81.3,44.7c-2.7,0-5-1.2-5.3-1.6c0-0.1-0.4-3.5-0.2-5.2c0-0.2,0.7-0.2,0.8,0c0.1,1.3,0.7,2.9,1.2,3.6
		c0.8,1.2,2.2,2.1,4.2,2.1c2.3,0,3.5-1.5,3.5-3.9c0-5.2-8.7-5.5-8.7-11.4c0-3.1,2.5-5.8,6-5.8c2.5,0,2.9,0.8,4.3,0.6
		c0.1,0,0.2,0,0.2,0.1c0,1.2,0.1,3.1,0,4.9c0,0.1-0.7,0.1-0.8-0.1c-0.1-1.3-0.4-2.5-1-3.2c-0.7-0.8-1.6-1.3-3.1-1.3
		c-1.8,0-3.1,1.5-3.1,3.6c0,4.4,8.8,5.5,8.8,11.2C88.1,42.4,84.6,44.7,81.3,44.7"/>
	<path class="st0" d="M120.4,43.2c-0.1,0.2-2.3,1.5-6.5,1.5c-7,0-11.5-4.9-11.5-10.9c0-5.6,4-11.4,11.4-11.4c3.7,0,5.6,1.3,6.7,1
		c0.1,0,0.2,0.1,0.2,0.1c0,1.1,0.1,3.5,0.1,5.3c0,0.1-0.7,0.1-0.8-0.1c-0.1-1.4-0.6-2.5-1.3-3.3c-1-1-3.1-1.9-5.3-1.9
		c-5.7,0-8,4.6-8,9.3c0,5.4,3.4,10.5,8.4,10.5c2.4,0,4-0.7,5.1-2.1c0.7-0.9,1.1-1.8,1.4-2.8c0-0.2,0.7,0,0.7,0.1
		C121,40,120.5,43.1,120.4,43.2"/>
	<path class="st0" d="M140.6,44.2c-0.1,0-0.1-0.7,0-0.7c1.3-0.1,1.8-0.3,2.3-0.5c0.4-0.2,0.7-1.1,0.7-7.1v-2h-12.1v2
		c0,6,0.3,6.9,0.7,7.1c0.4,0.2,0.9,0.3,2.2,0.5c0.1,0,0.1,0.7,0,0.7c-1.6,0-7.2,0-8.7,0c-0.1,0-0.1-0.7,0-0.7
		c1.3-0.1,1.9-0.3,2.3-0.5c0.4-0.2,0.7-1.1,0.7-7.1v-4.8c0-6-0.3-6.9-0.7-7.1c-0.4-0.2-1-0.3-2.3-0.5c-0.1,0-0.1-0.7,0-0.7
		c1.5,0,7.2,0,8.7,0c0.1,0,0.1,0.7,0,0.7c-1.3,0.1-1.8,0.2-2.2,0.5c-0.4,0.2-0.7,1.1-0.7,7.1v1.5h12.1v-1.5c0-6-0.3-6.9-0.7-7.1
		s-1-0.3-2.3-0.5c-0.1,0-0.1-0.7,0-0.7c1.5,0,7.2,0,8.7,0c0.1,0,0.1,0.7,0,0.7c-1.3,0.1-1.8,0.2-2.3,0.5c-0.4,0.2-0.7,1.1-0.7,7.1
		V36c0,6,0.3,6.9,0.7,7.1c0.4,0.2,1,0.3,2.3,0.5c0.1,0,0.1,0.7,0,0.7C147.8,44.2,142.2,44.2,140.6,44.2"/>
	<path class="st0" d="M174.2,44.2c-2.9,0-4.4-0.3-5.7-1.2c-1.7-1.2-3.5-3.4-6.1-7.9c-1.6,0-2.3,0-3.5,0V36c0,6,0.3,6.9,0.7,7.1
		c0.4,0.2,1.4,0.3,2.9,0.5c0.1,0,0.1,0.7,0,0.7c-1.5,0-7.8,0-9.3,0c-0.1,0-0.1-0.7,0-0.7c1.3-0.1,1.8-0.2,2.2-0.5
		c0.4-0.2,0.7-1.1,0.7-7.1v-4.8c0-6-0.3-6.9-0.7-7.1s-1-0.3-2.2-0.5c-0.2,0-0.1-0.7,0-0.7c1.5,0,3.1,0.1,4.3,0.1s2.5-0.1,4-0.1
		c4.9,0,7.4,2.7,7.4,5.2c0,2.6-1.6,4.7-3.9,6.2c4.7,7,7.3,9.2,9.5,9.2c1.3,0,2.1-0.2,2.5-0.4s0.7-1.1,0.7-7.1v-4.8
		c0-6-0.3-6.9-0.7-7.1s-1.2-0.3-2.5-0.5c-0.1,0-0.1-0.7,0-0.7c1.5,0,7.7,0,9.2,0c0.1,0,0.1,0.7,0,0.7c-1.3,0.1-2.1,0.2-2.5,0.5
		c-0.4,0.2-0.7,1.1-0.7,7.1V36c0,6,0.3,6.9,0.7,7.1c0.4,0.2,1.2,0.3,2.5,0.5c0.2,0,0.2,0.7,0,0.7C182.1,44.2,175.8,44.2,174.2,44.2
		 M161.5,24c-1.1,0-2.1,0.2-2.2,0.3c-0.2,0.2-0.4,2.1-0.4,6.8c0,2,0.1,2.3,0.2,2.5c0.2,0.2,1.1,0.4,2.7,0.4c2.7,0,4-2,4-4.6
		C165.8,26.2,164.6,24,161.5,24z"/>
	<path class="st0" d="M192.9,44.7c-2.7,0-5-1.2-5.3-1.6c0-0.1-0.4-3.5-0.2-5.2c0-0.2,0.7-0.2,0.8,0c0.1,1.3,0.7,2.9,1.1,3.6
		c0.8,1.2,2.2,2.1,4.2,2.1c2.3,0,3.5-1.5,3.5-3.9c0-5.2-8.7-5.5-8.7-11.4c0-3.1,2.5-5.8,6-5.8c2.5,0,2.9,0.8,4.3,0.6
		c0.1,0,0.2,0,0.2,0.1c0,1.2,0.1,3.1,0,4.9c0,0.1-0.7,0.1-0.8-0.1c-0.1-1.3-0.4-2.5-1-3.2c-0.7-0.8-1.6-1.3-3.1-1.3
		c-1.8,0-3.1,1.5-3.1,3.6c0,4.4,8.8,5.5,8.8,11.2C199.8,42.4,196.3,44.7,192.9,44.7"/>
	<path class="st0" d="M221.6,28.2c0,0.2-0.7,0.2-0.7-0.1c0-0.8-0.1-2.4-0.7-3c-0.7-0.7-2-1.3-4.9-1.3c-0.8,0-1.2,0-1.5,0.1
		c-0.1,0.3-0.1,1.9-0.1,4v8c0,6,0.3,6.9,0.7,7.1c0.4,0.2,1.2,0.3,2.5,0.5c0.1,0,0.1,0.7,0,0.7c-1.6,0-7.7,0-9.3,0
		c-0.1,0-0.1-0.7,0.1-0.7c1.3-0.1,2.1-0.2,2.5-0.5c0.4-0.2,0.7-1.1,0.7-7.1v-8c0-2.1,0-3.7-0.1-4c-0.3-0.1-0.9-0.1-1.6-0.1
		c-3.1,0-4.1,0.3-4.9,1.3c-0.5,0.6-0.9,1.8-1.1,3.1c0,0.2-0.7,0.1-0.7-0.1c0.2-1.7,0.4-4.2,0.5-5.3c0-0.1,0.2-0.2,0.4-0.1
		c1.1,0.2,3.3,0.4,9,0.4c7.9,0,8.6-0.2,9.2-0.4c0.2-0.1,0.4,0,0.4,0.1C221.9,24,221.8,26.5,221.6,28.2"/>
	<path class="st0" d="M19.7,66.7c-3.3,0-5.7-2.4-5.7-5.4c0-2.9,2.5-5.7,6-5.7c3.3,0,5.7,2.4,5.7,5.4C25.6,63.9,23.2,66.7,19.7,66.7
		 M19.5,56.3c-3,0-3.9,2.5-3.9,4.5c0,2.7,1.6,5.2,4.4,5.2c3,0,3.9-2.5,3.9-4.5C23.9,58.8,22.3,56.3,19.5,56.3z"/>
	<path class="st0" d="M34.9,58c0,0.1-0.4,0.1-0.4-0.1c0-0.4-0.1-0.8-0.3-1c-0.3-0.3-0.9-0.6-2.1-0.6c-0.7,0-1.3,0-1.5,0.1
		c0,0.2-0.1,0.8-0.1,1.9v2.4h1.2c1.6,0,1.9-0.2,2-0.8c0-0.1,0.4,0,0.4,0c0,0.5-0.1,2.1-0.1,2.6h-0.4c0-0.3-0.1-0.7-0.2-0.8
		c-0.2-0.2-0.4-0.2-1.6-0.2h-1.2v0.9c0,3,0.2,3.4,0.4,3.5c0.2,0.1,0.7,0.2,1.5,0.3c0.1,0,0.1,0.4,0,0.4c-0.8,0-4.2,0-5,0
		c-0.1,0-0.1-0.4,0-0.4c0.7-0.1,1-0.2,1.2-0.3c0.2-0.1,0.3-0.5,0.3-3.5V60c0-3-0.2-3.5-0.3-3.6c-0.2-0.1-0.5-0.2-1.2-0.3
		c-0.1,0-0.1-0.3,0-0.3c1.3,0,3.5,0,4.6,0c1.5,0,2.4,0,3-0.1c0.1,0,0.1,0,0.1,0.1C35.1,56.4,35,57.1,34.9,58"/>
	<path class="st0" d="M49.5,66.3c-0.1,0.2-0.3,0.3-0.7,0.3c-1.1,0-2.3-0.1-3.7-0.1c-1.1,0-1.9,0-3.2,0v-0.4c0.7-0.1,1-0.2,1.2-0.3
		c0.2-0.1,0.3-0.5,0.3-3.5V60c0-3-0.1-3.4-0.3-3.5s-0.5-0.2-1.2-0.3c-0.1,0-0.1-0.4,0-0.4c0.8,0,3.8,0,4.6,0v0.4
		c-0.7,0.1-1,0.2-1.2,0.3c-0.2,0-0.3,0.4-0.3,3.5v2.4c0,2,0.2,2.9,0.4,3.2c0.2,0.2,0.4,0.3,1.4,0.3s1.6-0.2,2-0.7
		c0.4-0.4,0.7-1.1,0.8-1.7c0-0.1,0.4,0,0.4,0.1C49.9,64.4,49.7,66,49.5,66.3"/>
	<path class="st0" d="M57.7,66.6c0,0-0.1-0.4,0-0.4c0.5,0,0.9-0.2,0.9-0.4c0-0.3-0.2-0.8-1.2-3.2H54c-0.8,2.1-1,2.7-1,3.1
		c0,0.3,0.2,0.4,1,0.5c0.1,0,0.1,0.4,0,0.4c-0.5,0-2.8,0-3.6,0c-0.1,0-0.1-0.4,0-0.4c0.5,0,0.8-0.1,1.1-0.3c0.3-0.2,0.7-0.9,1.7-3.5
		l0.9-2.4c0.5-1.4,1.1-2.9,1.5-4.2c0-0.1,0.7-0.1,0.8,0c0.5,1.5,1,2.6,1.6,4.2l1,2.4c1.3,3.1,1.5,3.3,1.8,3.5s0.6,0.3,1.1,0.3
		c0.1,0,0,0.4,0,0.4C60.9,66.6,58.5,66.6,57.7,66.6 M55.7,58l-1.4,3.8h2.8L55.7,58z"/>
	<path class="st0" d="M71.1,58.2h-0.4c0-0.4-0.1-0.9-0.3-1.1c-0.3-0.3-0.8-0.6-2.7-0.6c-0.4,0-0.6,0-0.7,0c-0.1,0.2-0.1,0.8-0.1,1.9
		v4c0,3,0.2,3.4,0.4,3.5c0.2,0.1,0.6,0.2,1.3,0.3c0.1,0,0.1,0.4,0,0.4c-0.8,0-4.1,0-4.9,0c-0.1,0-0.1-0.4,0-0.4
		c0.7-0.1,1.1-0.2,1.3-0.3c0.2-0.1,0.3-0.5,0.3-3.5v-4c0-1.1,0-1.7-0.1-1.9c-0.2,0-0.5,0-0.8,0c-1.8,0-2.3,0.2-2.7,0.6
		c-0.3,0.2-0.4,0.7-0.5,1.1c0,0.1-0.4,0-0.4-0.1c0.1-0.8,0.2-1.8,0.3-2.4c0,0,0-0.1,0.1-0.1c0.6,0.1,2,0.2,4.9,0.2
		c4.1,0,4.7-0.1,5-0.2c0.1,0,0.1,0,0.1,0.1C71.3,56.3,71.2,57.3,71.1,58.2"/>
	<path class="st0" d="M82.6,58.2h-0.4c0-0.4-0.1-0.9-0.3-1.1c-0.3-0.3-0.8-0.6-2.7-0.6c-0.4,0-0.6,0-0.7,0c-0.1,0.2-0.1,0.8-0.1,1.9
		v4c0,3,0.2,3.4,0.4,3.5c0.2,0.1,0.7,0.2,1.3,0.3c0.1,0,0.1,0.4,0,0.4c-0.8,0-4.1,0-4.9,0c-0.1,0-0.1-0.4,0-0.4
		c0.7-0.1,1.1-0.2,1.3-0.3c0.2-0.1,0.3-0.5,0.3-3.5v-4c0-1.1,0-1.7-0.1-1.9c-0.2,0-0.5,0-0.8,0c-1.8,0-2.3,0.2-2.7,0.6
		c-0.3,0.2-0.4,0.7-0.5,1.1c0,0.1-0.4,0-0.4-0.1c0.1-0.8,0.2-1.8,0.2-2.4c0,0,0-0.1,0.1-0.1c0.6,0.1,2,0.2,4.9,0.2
		c4.1,0,4.7-0.1,5-0.2c0.1,0,0.1,0,0.1,0.1C82.8,56.3,82.8,57.3,82.6,58.2"/>
	<path class="st0" d="M91.7,66.3c-0.1,0.2-0.2,0.3-0.7,0.3c-1.1,0-2.3-0.1-3.7-0.1c-1.1,0-1.8,0-3,0c-0.1,0-0.1-0.4,0-0.4
		c0.7-0.1,1-0.2,1.2-0.3c0.2-0.1,0.4-0.5,0.4-3.5V60c0-3-0.2-3.4-0.4-3.5c-0.2-0.1-0.5-0.2-1.2-0.3c-0.1,0-0.1-0.4,0-0.4
		c1.3,0,3.4,0,4.6,0c1.4,0,2.2,0,2.7-0.1c0.1,0,0.1,0,0.1,0.1c-0.1,0.6-0.1,1.4-0.2,2.2c0,0.1-0.4,0.1-0.4,0c0-0.4-0.1-0.8-0.3-1.1
		c-0.3-0.3-0.8-0.4-2-0.4c-0.7,0-1.1,0-1.3,0c-0.1,0.2-0.1,0.7-0.1,1.8v2.3h1.3c1.6,0,1.9-0.4,2-1c0-0.1,0.4-0.1,0.4,0
		c0,0.5-0.1,2.4-0.1,2.9c0,0.1-0.4,0.1-0.4,0c0-0.3-0.1-0.7-0.2-0.9c-0.2-0.1-0.4-0.3-1.6-0.3h-1.2v1.1c0,2,0.2,2.9,0.4,3.2
		c0.2,0.2,0.4,0.3,1.5,0.3s1.6-0.2,2-0.6c0.2-0.3,0.4-0.6,0.6-1.1c0-0.1,0.3,0,0.3,0.1C92,65.1,91.9,66,91.7,66.3"/>
	<path class="st0" d="M105,66.5c-1.1,0-1.9-0.1-2.6-0.6c-0.9-0.6-1.8-1.6-3.2-3.9c-0.8,0-1.1,0-1.8,0v0.4c0,3,0.2,3.4,0.4,3.5
		c0.2,0.1,0.7,0.2,1.5,0.3c0.1,0,0.1,0.4,0,0.4c-0.8,0-4.2,0-5,0c-0.1,0-0.1-0.4,0-0.4c0.7-0.1,1-0.2,1.2-0.3
		c0.2-0.1,0.3-0.5,0.3-3.5V60c0-3-0.2-3.4-0.3-3.5c-0.2-0.1-0.5-0.2-1.2-0.3c-0.1,0-0.1-0.4,0-0.4c0.8,0,1.7,0,2.3,0
		c0.6,0,1.3,0,2.1,0c2.6,0,4,1.4,4,2.7s-1,2.4-2.2,3.1c2.3,3.3,3.5,4.4,4.9,4.4c0.2,0,0.4,0,0.5,0s0.1,0.4,0.1,0.4
		C105.8,66.5,105.5,66.5,105,66.5 M98.8,56.4c-0.6,0-1,0.1-1,0.2c-0.1,0.1-0.3,1.2-0.3,3.4c0,1,0.1,1.1,0.2,1.2
		c0.2,0.2,0.5,0.3,1.3,0.3c1.3,0,2.1-1.1,2.1-2.4C101.1,57.6,100.5,56.4,98.8,56.4z"/>
	<path class="st0" d="M111.3,61.4c-0.1,0.1-0.2,0.1-0.4,0.1h-2.1c-2,0-2.4,0.3-2.6,0.7c0,0.1-0.4,0-0.4-0.1c0-0.4,0.1-1.1,0.2-1.5
		h2.5c2,0,2.3-0.3,2.5-0.7c0-0.1,0.4,0,0.4,0.1C111.4,60.4,111.3,61.3,111.3,61.4"/>
	<path class="st0" d="M123.1,64.9c-1.2,1.1-2.5,1.6-4.7,1.6c-0.8,0-2,0-2.6,0s-1.6,0-2.3,0c-0.1,0-0.1-0.4,0-0.4
		c0.7-0.1,1-0.2,1.2-0.3c0.2-0.1,0.4-0.5,0.4-3.5V60c0-3-0.2-3.4-0.4-3.5c-0.2-0.1-0.5-0.2-1.2-0.3c-0.1,0-0.1-0.4,0-0.4
		c0.7,0,1.7,0,2.3,0c0.6,0,2.2,0,3,0c3.5,0,6.1,2.3,6.1,5.3C124.8,62.5,124.1,63.9,123.1,64.9 M118.3,56.4c-1,0-1.3,0.2-1.5,0.3
		c-0.1,0.1-0.2,0.9-0.2,3.2v2.5c0,2,0.2,2.9,0.4,3.1c0.3,0.3,0.6,0.4,1.5,0.4c3.3,0,4.8-1.5,4.8-4.6
		C123.2,58.8,121.5,56.4,118.3,56.4z"/>
	<path class="st0" d="M132.5,66.6c0,0-0.1-0.4,0-0.4c0.5,0,0.9-0.2,0.9-0.4c0-0.3-0.2-0.8-1.2-3.2h-3.4c-0.8,2.1-1,2.7-1,3.1
		c0,0.3,0.3,0.4,1,0.5c0.1,0,0.1,0.4,0,0.4c-0.5,0-2.8,0-3.6,0c-0.1,0-0.1-0.4,0-0.4c0.5,0,0.8-0.1,1.1-0.3c0.3-0.2,0.7-0.9,1.7-3.5
		l0.9-2.4c0.5-1.4,1.1-2.9,1.5-4.2c0-0.1,0.7-0.1,0.8,0c0.5,1.5,1,2.6,1.6,4.2l1,2.4c1.3,3.1,1.5,3.3,1.8,3.5s0.6,0.3,1.1,0.3
		c0.1,0,0,0.4,0,0.4C135.7,66.6,133.3,66.6,132.5,66.6 M130.4,58l-1.4,3.8h2.8L130.4,58z"/>
	<path class="st0" d="M145.1,56.3c-0.4,0.2-0.8,0.7-1.6,2.1l-0.9,1.5c-0.4,0.6-0.8,1.3-1.2,1.9v0.6c0,3,0.2,3.4,0.3,3.5
		c0.2,0.1,0.7,0.2,1.3,0.3c0.1,0,0.1,0.4,0,0.4c-0.8,0-4.1,0-4.9,0c-0.1,0-0.1-0.4,0-0.4c0.7-0.1,1.1-0.2,1.3-0.3
		c0.2-0.1,0.3-0.5,0.3-3.5v-0.5c-0.4-0.7-0.7-1.3-1.2-2l-1-1.5c-1.1-1.7-1.4-2-1.7-2.1s-0.6-0.2-1.1-0.2c-0.1,0-0.1-0.4,0-0.4
		c0.8,0,3.3,0,4.1,0c0.1,0,0.1,0.4,0,0.4c-0.4,0-0.6,0.1-0.7,0.2c-0.1,0.1-0.1,0.3,1,2L141,61l1.7-2.7c0.9-1.4,1-1.8,0.8-2
		c-0.1-0.1-0.4-0.2-0.8-0.2c-0.1,0,0-0.4,0-0.4c0.5,0,2.8,0,3.6,0c0.1,0,0.1,0.4,0,0.4C145.8,56.2,145.4,56.2,145.1,56.3"/>
	<path class="st0" d="M154.8,66.7c-1.6,0-2.7-0.8-2.8-1c-0.1-0.6-0.1-1.5,0-2.4c0-0.1,0.4-0.1,0.4,0c0.1,0.7,0.3,1.2,0.6,1.6
		c0.5,0.6,1.1,1.1,2.1,1.1c1.2,0,1.9-0.8,1.9-2c0-2.5-4.6-2.9-4.6-5.6c0-1.7,1.6-2.9,3.2-2.9c1.3,0,1.6,0.5,2.3,0.3
		c0.1,0,0.1,0,0.1,0.1c0,0.6,0,1.4,0,2.3c0,0.1-0.4,0.1-0.4,0c0-0.5-0.3-1.2-0.6-1.5c-0.4-0.4-1-0.6-1.5-0.6c-1,0-1.7,0.6-1.7,1.7
		c0,2.1,4.7,2.9,4.7,5.6C158.5,65.6,156.5,66.7,154.8,66.7"/>
	<path class="st0" d="M166.4,66.6c0,0-0.1-0.4,0-0.4c0.5,0,0.9-0.2,0.9-0.4c0-0.3-0.2-0.8-1.2-3.2h-3.4c-0.8,2.1-1,2.7-1,3.1
		c0,0.3,0.2,0.4,1,0.5c0.1,0,0.1,0.4,0,0.4c-0.5,0-2.8,0-3.6,0c-0.1,0-0.1-0.4,0-0.4c0.5,0,0.8-0.1,1.1-0.3c0.3-0.2,0.7-0.9,1.7-3.5
		l0.9-2.4c0.5-1.4,1.1-2.9,1.5-4.2c0-0.1,0.7-0.1,0.8,0c0.5,1.5,1,2.6,1.5,4.2l1,2.4c1.3,3.1,1.5,3.3,1.8,3.5s0.6,0.3,1,0.3
		c0.1,0,0,0.4,0,0.4C169.6,66.6,167.2,66.6,166.4,66.6 M164.3,58l-1.4,3.8h2.8L164.3,58z"/>
	<path class="st0" d="M170.6,66.6v-0.4c0.7-0.1,1.1-0.2,1.3-0.3c0.2-0.1,0.4-0.5,0.4-3.5V60c0-3-0.2-3.4-0.4-3.5s-0.6-0.2-1.3-0.3
		c-0.1,0-0.1-0.4,0-0.4c0.8,0,4.1,0,4.9,0v0.4c-0.7,0.1-1.1,0.2-1.3,0.3s-0.4,0.5-0.4,3.5v2.4c0,3,0.2,3.4,0.4,3.5s0.6,0.2,1.3,0.3
		c0.1,0,0.1,0.4,0,0.4C174.7,66.6,171.4,66.6,170.6,66.6"/>
	<path class="st0" d="M188.5,56.5c-0.2,0.1-0.3,0.4-0.3,3.5v2.4c0,1.4,0,2.9,0.1,4.2c0,0.1-0.5,0.1-0.6,0l-8.2-8.3l0.1,4.1
		c0,2.8,0.3,3.3,0.5,3.5c0.2,0.1,0.7,0.3,1.2,0.3c0.1,0,0.1,0.4,0,0.4c-0.9,0-3.3,0-4.2,0c-0.1,0-0.1-0.4,0-0.4
		c0.7-0.1,1.1-0.2,1.3-0.3c0.2-0.1,0.3-0.4,0.3-3.5V60c0-1.4,0-2.9-0.1-4.2c0-0.1,0.6-0.1,0.6,0l8.2,8.4l-0.1-4.2
		c0-3-0.3-3.4-0.5-3.5c-0.2-0.2-0.6-0.2-1.3-0.3c-0.1,0-0.1-0.4,0-0.4c0.8,0,3.4,0,4.2,0c0.1,0,0.1,0.4,0,0.4
		C189,56.2,188.7,56.3,188.5,56.5"/>
	<path class="st0" d="M200.9,58.2h-0.4c0-0.4-0.1-0.9-0.3-1.1c-0.3-0.3-0.8-0.6-2.7-0.6c-0.4,0-0.6,0-0.7,0
		c-0.1,0.2-0.1,0.8-0.1,1.9v4c0,3,0.2,3.4,0.4,3.5c0.2,0.1,0.7,0.2,1.3,0.3c0.1,0,0.1,0.4,0,0.4c-0.8,0-4.1,0-4.9,0
		c-0.1,0-0.1-0.4,0-0.4c0.7-0.1,1.1-0.2,1.3-0.3c0.2-0.1,0.3-0.5,0.3-3.5v-4c0-1.1,0-1.7-0.1-1.9c-0.2,0-0.5,0-0.8,0
		c-1.8,0-2.3,0.2-2.7,0.6c-0.3,0.2-0.4,0.7-0.5,1.1c0,0.1-0.4,0-0.4-0.1c0.1-0.8,0.2-1.8,0.3-2.4c0,0,0-0.1,0.1-0.1
		c0.6,0.1,2,0.2,4.9,0.2c4.1,0,4.7-0.1,5-0.2c0.1,0,0.1,0,0.1,0.1C201,56.3,201,57.3,200.9,58.2"/>
	<path class="st0" d="M204.9,66.7c-1.6,0-2.7-0.8-2.8-1c-0.1-0.6-0.1-1.5,0-2.4c0-0.1,0.4-0.1,0.4,0c0.1,0.7,0.3,1.2,0.6,1.6
		c0.5,0.6,1.1,1.1,2.1,1.1c1.2,0,1.9-0.8,1.9-2c0-2.5-4.6-2.9-4.6-5.6c0-1.7,1.6-2.9,3.2-2.9c1.3,0,1.6,0.5,2.3,0.3
		c0.1,0,0.1,0,0.1,0.1c0,0.6,0,1.4,0,2.3c0,0.1-0.4,0.1-0.4,0c0-0.5-0.3-1.2-0.6-1.5c-0.4-0.4-1-0.6-1.5-0.6c-1,0-1.7,0.6-1.7,1.7
		c0,2.1,4.7,2.9,4.7,5.6C208.6,65.6,206.6,66.7,204.9,66.7"/>
</g>
</svg>
