<?xml version="1.0" standalone="no"?>
<!DOCTYPE svg PUBLIC "-//W3C//DTD SVG 20010904//EN"
 "http://www.w3.org/TR/2001/REC-SVG-20010904/DTD/svg10.dtd">
<svg version="1.0" xmlns="http://www.w3.org/2000/svg"
 width="1221.000000pt" height="1221.000000pt" viewBox="0 0 1221.000000 1221.000000"
 preserveAspectRatio="xMidYMid meet">
<metadata>
Created by potrace 1.11, written by Peter Selinger 2001-2013
</metadata>
<g transform="translate(0.000000,1221.000000) scale(0.100000,-0.100000)"
fill="#000000" stroke="none">
<path d="M4273 10256 c-3 -5 -6 -311 -5 -681 l0 -673 -2021 0 c-1112 -1 -2031
-1 -2043 -1 l-21 -1 -1 -3042 c0 -1674 1 -3052 3 -3063 4 -20 12 -20 2042 -20
l2038 0 5 680 5 680 678 0 677 0 0 3062 c0 1685 -3 3063 -7 3064 -75 6 -1346
1 -1350 -5z m-5 -4417 c0 -1253 -3 -1699 -12 -1699 -6 -1 -617 -2 -1358 -3
l-1348 -2 -1 65 c0 80 0 3263 0 3306 l1 31 1359 0 1359 0 0 -1698z"/>
<path d="M6623 10262 l-23 -3 0 -3742 0 -3742 673 1 c369 1 677 2 682 3 7 1
10 403 10 1188 l0 1188 1352 2 c958 1 1355 -2 1360 -10 3 -5 7 -539 8 -1186 1
-647 2 -1178 3 -1181 1 -3 307 -5 680 -5 l677 0 2 1192 1 1193 -681 2 -682 3
0 675 0 675 -1360 5 -1360 5 0 1869 0 1868 -660 2 c-363 0 -670 0 -682 -2z"/>
<path d="M10724 8902 l-41 -3 0 -1189 c0 -1077 2 -1190 16 -1190 27 -1 1294
-1 1323 -1 l26 1 -1 1191 -2 1191 -640 2 c-352 0 -658 0 -681 -2z"/>
</g>
</svg>
