<?xml version="1.0" encoding="utf-8"?>
<!-- Generator: Adobe Illustrator 26.3.1, SVG Export Plug-In . SVG Version: 6.00 Build 0)  -->
<svg version="1.1" id="Layer_1" xmlns="http://www.w3.org/2000/svg" xmlns:xlink="http://www.w3.org/1999/xlink" x="0px" y="0px"
	 viewBox="0 0 42 42" style="enable-background:new 0 0 42 42;" xml:space="preserve">
<style type="text/css">
	.st0{opacity:0.6;fill:#FFFFFF;enable-background:new    ;}
</style>
<path class="st0" d="M25,4.9c-1.7-2.1-3.2-4.2-3.6-4.6h-0.1l0,0c-0.3,0.4-1.8,2.5-3.6,4.6c-14.9,19,2.4,31.9,2.4,31.9l0.1,0.1
	c0.1,2,0.5,4.8,0.5,4.8H22c0,0,0.3-2.8,0.5-4.8l0.1-0.1C22.6,36.8,39.9,24,25,4.9z M21.4,36.6L21.4,36.6c0,0-0.8-0.7-1-1l0,0
	l0.9-20.7c0,0,0,0,0.1,0l0,0l0.9,20.7l0,0C22.2,35.9,21.4,36.6,21.4,36.6z"/>
</svg>
