<?xml version="1.0" encoding="utf-8"?>
<!-- Generator: Adobe Illustrator 26.3.1, SVG Export Plug-In . SVG Version: 6.00 Build 0)  -->
<svg version="1.1" id="Layer_1" xmlns="http://www.w3.org/2000/svg" xmlns:xlink="http://www.w3.org/1999/xlink" x="0px" y="0px"
	 viewBox="0 0 42 42" style="enable-background:new 0 0 42 42;" xml:space="preserve">
<style type="text/css">
	.st0{opacity:0.6;}
	.st1{fill:#FFFFFF;}
</style>
<g transform="matrix(2.21262 0 0 2.21262 -39.453867 -1.770085)" class="st0">
	<path class="st1" d="M32.8,6.4l-1.4,1.4c2.3,2.3,2.3,6,0,8.2s-6,2.3-8.2,0s-2.3-6,0-8.2l3.6-3.6l0.5-0.5V0.9l-5.5,5.5
		c-3,3-3,7.9-0.1,10.9c0,0,0,0,0.1,0.1c3,3,7.9,3,10.9,0.1c0,0,0,0,0.1-0.1C35.8,14.3,35.8,9.4,32.8,6.4z"/>
	<circle class="st1" cx="30.1" cy="5" r="1"/>
</g>
</svg>
