<?xml version="1.0" encoding="utf-8"?>
<!-- Generator: Adobe Illustrator 26.3.1, SVG Export Plug-In . SVG Version: 6.00 Build 0)  -->
<svg version="1.1" id="Layer_1" xmlns="http://www.w3.org/2000/svg" xmlns:xlink="http://www.w3.org/1999/xlink" x="0px" y="0px"
	 viewBox="0 0 42 42" style="enable-background:new 0 0 42 42;" xml:space="preserve">
<style type="text/css">
	.st0{opacity:0.6;fill:#FFFFFF;}
</style>
<path class="st0" d="M20.3,0.4c-0.6,1.4-1.4,2.3-2.5,2.9c-4.2,2.4-8.3,4.9-12.4,7.4c-1.4,0.8-2,1.9-2,3.6c0.2,5,0.4,9.9,0.5,14.9
	c0.1,1.6,0.8,2.7,2.2,3.4c4.8,2.4,9.6,4.8,14.4,7.2c0.1,0.1,0.3,0.1,0.4,0.2c-0.7,1.6-0.9,1.7-2.3,0.9c-4.8-2.7-9.7-5.4-14.5-8
	C2.6,32.2,2,31.2,2,29.5c0.1-5.6,0.1-11.2,0-16.8c0-1.6,0.6-2.6,2-3.3C9.4,6.4,14.7,3.5,20.3,0.4z"/>
<path class="st0" d="M22.8,36.4c0,0.2,0,0.3,0,0.4c-0.5,2-0.7,2-2.5,1.1c-4.4-2.2-8.7-4.4-13.1-6.6c-1-0.5-1.4-1.1-1.5-2.3
	c-0.1-4.8-0.3-9.6-0.6-14.4c-0.1-1.3,0.4-2,1.4-2.6c3.5-2,7-4.1,10.4-6.2c0.3-0.2,0.6-0.3,0.8-0.5c0.1,0.1,0.1,0.1,0.2,0.2
	c-0.3,0.4-0.6,1-1.1,1.3c-3.2,2.5-6.3,5.1-9.5,7.6c-1.2,0.9-1.6,1.9-1.3,3.4c0.8,3.9,1.4,7.8,2.1,11.6c0.2,1.3,1,2.1,2.2,2.5
	c3.8,1.3,7.5,2.6,11.3,4C22.1,36.1,22.5,36.3,22.8,36.4z"/>
<path class="st0" d="M17.2,8.4c0.3,1.1,0,1.8-0.8,2.5c-2.1,1.9-4.2,3.9-6.3,5.8c-0.9,0.8-1.1,1.7-0.8,2.8c0.8,2.9,1.6,5.7,2.3,8.6
	c0.3,1.2,1,1.8,2.2,2.1c2.7,0.7,5.3,1.4,8,2.2c1.7,0.4,1.8,0.7,1.3,2.6c-0.5-0.2-1.1-0.4-1.6-0.5c-3.5-1.2-6.9-2.5-10.4-3.7
	c-0.9-0.3-1.4-0.8-1.5-1.8c-0.6-3.8-1.3-7.5-2-11.3c-0.2-1.1,0-1.8,0.9-2.5C11.4,13,14.3,10.7,17.2,8.4z"/>
<path class="st0" d="M17.5,11.3c0.7,1.8,0.7,1.8-0.5,3c-1.3,1.2-2.5,2.5-3.8,3.6c-0.7,0.6-0.9,1.3-0.6,2.2c0.6,2.1,1.2,4.1,1.8,6.2
	c0.2,0.9,0.8,1.4,1.6,1.6c1.6,0.4,3.3,0.8,4.9,1.2c1.8,0.4,1.8,0.4,2,2.4c-0.3,0-0.5-0.1-0.8-0.1c-2.7-0.7-5.4-1.5-8.1-2.2
	c-0.7-0.2-1.2-0.6-1.3-1.3c-0.7-2.9-1.6-5.8-2.3-8.7c-0.1-0.5-0.1-1.3,0.3-1.6C12.9,15.5,15.2,13.5,17.5,11.3z"/>
<path class="st0" d="M18.2,14.2c0.9,1.4,0.6,2.4-0.6,3.2c-2.1,1.3-2.4,3-1.5,5.3c1.1,3,0.4,2.5,3.5,3.3c0.2,0.1,0.4,0.1,0.6,0.1
	c1.4,0.1,2.1,0.9,2,2.4c-1.4-0.3-2.8-0.7-4.2-1c-3.2-0.8-2.4-0.1-3.3-3.2c-0.4-1.5-0.9-3-1.3-4.5c-0.1-0.4-0.1-1,0.2-1.2
	C15.1,17.2,16.6,15.7,18.2,14.2z"/>
<path class="st0" d="M21.4,26c-1.4-0.3-2.6-0.6-3.8-1c-0.2-0.1-0.4-0.4-0.4-0.6c-0.4-1.4-0.8-2.7-1.2-4.1c-0.1-0.2,0-0.6,0.2-0.8
	c0.9-0.9,1.8-1.7,2.7-2.7c0.5,1,0.8,1.9,0.1,2.9c-1,1.4-0.7,2.7,0.6,3.8c0.1,0.1,0.3,0.2,0.4,0.3C21.2,24.2,21.3,24.3,21.4,26z"/>
<path class="st0" d="M19.8,19.4c0.4,1.3,0.7,2.5,1,3.8c-0.7,0.4-1.1,0-1.4-0.5C18.4,21,18.4,21,19.8,19.4z"/>
<path class="st0" d="M22.4,41.5c0.6-1.4,1.4-2.3,2.5-2.9c4.2-2.4,8.3-4.9,12.4-7.4c1.4-0.8,2-1.9,2-3.6c-0.2-5-0.4-9.9-0.5-14.9
	c-0.1-1.6-0.8-2.7-2.2-3.4C31.8,6.8,27,4.4,22.2,2c-0.1-0.1-0.3-0.1-0.4-0.2c0.7-1.6,0.9-1.7,2.3-0.9c4.8,2.7,9.7,5.4,14.5,8
	c1.5,0.8,2.1,1.8,2.1,3.5c-0.1,5.6-0.1,11.2,0,16.8c0,1.6-0.6,2.6-2,3.3C33.3,35.5,28,38.5,22.4,41.5z"/>
<path class="st0" d="M19.9,5.5c0-0.2,0-0.3,0-0.4c0.5-2,0.7-2,2.5-1.1c4.4,2.2,8.7,4.4,13.1,6.6c1,0.5,1.4,1.1,1.5,2.3
	c0.1,4.8,0.3,9.6,0.6,14.4c0.1,1.3-0.4,2-1.4,2.6c-3.5,2-7,4.1-10.4,6.2c-0.3,0.2-0.6,0.3-0.8,0.5c-0.1-0.1-0.1-0.1-0.2-0.2
	c0.3-0.4,0.6-1,1.1-1.3c3.2-2.5,6.3-5.1,9.5-7.6c1.2-0.9,1.6-1.9,1.3-3.4c-0.8-3.9-1.4-7.8-2.1-11.6c-0.2-1.3-1-2.1-2.2-2.5
	c-3.8-1.3-7.5-2.6-11.3-4C20.6,5.8,20.2,5.7,19.9,5.5z"/>
<path class="st0" d="M25.5,33.5c-0.3-1.1,0-1.8,0.8-2.5c2.1-1.9,4.2-3.9,6.3-5.8c0.9-0.8,1.1-1.7,0.8-2.8c-0.8-2.9-1.6-5.7-2.3-8.6
	c-0.3-1.2-1-1.8-2.2-2.1c-2.7-0.7-5.3-1.4-8-2.2c-1.7-0.4-1.8-0.7-1.3-2.6c0.5,0.2,1.1,0.4,1.6,0.5c3.5,1.2,6.9,2.5,10.4,3.7
	c0.9,0.3,1.4,0.8,1.5,1.8c0.6,3.8,1.3,7.5,2,11.3c0.2,1.1,0,1.8-0.9,2.5C31.3,28.9,28.4,31.2,25.5,33.5z"/>
<path class="st0" d="M25.2,30.6c-0.7-1.8-0.7-1.8,0.5-3c1.3-1.2,2.5-2.5,3.8-3.6c0.7-0.6,0.9-1.3,0.6-2.2c-0.6-2.1-1.2-4.1-1.8-6.2
	c-0.2-0.9-0.8-1.4-1.6-1.6c-1.6-0.4-3.3-0.8-4.9-1.2c-1.8-0.4-1.8-0.4-2-2.4c0.3,0,0.5,0.1,0.8,0.1c2.7,0.7,5.4,1.5,8.1,2.2
	c0.7,0.2,1.2,0.6,1.3,1.3c0.7,2.9,1.6,5.8,2.3,8.7c0.1,0.5,0.1,1.3-0.3,1.6C29.8,26.4,27.5,28.5,25.2,30.6z"/>
<path class="st0" d="M24.5,27.7c-0.9-1.4-0.6-2.4,0.6-3.2c2.1-1.3,2.4-3,1.5-5.3c-1.1-3-0.4-2.5-3.5-3.3c-0.2-0.1-0.4-0.1-0.6-0.1
	c-1.4-0.1-2.1-0.9-2-2.4c1.4,0.3,2.8,0.7,4.2,1c3.2,0.8,2.4,0.1,3.3,3.2c0.4,1.5,0.9,3,1.3,4.5c0.1,0.4,0.1,1-0.2,1.2
	C27.6,24.7,26.1,26.2,24.5,27.7z"/>
<path class="st0" d="M21.3,15.9c1.4,0.3,2.6,0.6,3.8,1c0.2,0.1,0.4,0.4,0.4,0.6c0.4,1.4,0.8,2.7,1.2,4.1c0.1,0.2,0,0.6-0.2,0.8
	c-0.9,0.9-1.8,1.7-2.7,2.7c-0.5-1-0.8-1.9-0.1-2.9c1-1.4,0.7-2.7-0.6-3.8c-0.1-0.1-0.3-0.2-0.4-0.3C21.5,17.7,21.4,17.7,21.3,15.9z"
	/>
<path class="st0" d="M22.9,22.5c-0.4-1.3-0.7-2.5-1-3.8c0.7-0.4,1.1,0,1.4,0.5C24.3,20.9,24.3,20.9,22.9,22.5z"/>
</svg>
