<?xml version="1.0" encoding="utf-8"?>
<!-- Generator: Adobe Illustrator 26.3.1, SVG Export Plug-In . SVG Version: 6.00 Build 0)  -->
<svg version="1.1" id="Layer_1" xmlns="http://www.w3.org/2000/svg" xmlns:xlink="http://www.w3.org/1999/xlink" x="0px" y="0px"
	 viewBox="0 0 217.2 58.6" style="enable-background:new 0 0 217.2 58.6;" xml:space="preserve">
<style type="text/css">
	.st0{fill:#FFFFFF;}
	.st1{opacity:0.3;fill:#FFFFFF;enable-background:new    ;}
	.st2{fill-rule:evenodd;clip-rule:evenodd;fill:#FFFFFF;}
</style>
<g transform="matrix(2.29404 0 0 2.29404 100.002 155.921)">
	<path class="st0" d="M-28.5-43.5c4.5-1,8-4.5,9-9h-9V-43.5z"/>
	<path class="st0" d="M-42.9-55c0,0.3,0,0.5,0,0.8c0.3,0,0.7,0,1,0c6.3,0,11.5-5.2,11.5-11.5c0-0.4,0-0.8-0.1-1.1
		c-0.2,0-0.5,0-0.7,0C-37.6-66.8-42.9-61.5-42.9-55"/>
	<path class="st0" d="M-19.6-57.6c-0.7-3.1-2.6-5.8-5.3-7.4c-0.1,2.6-0.8,5.1-2,7.4H-19.6z"/>
	<path class="st0" d="M-41.1-48.6c1.7,2.6,4.3,4.5,7.4,5.2v-7.2C-36-49.5-38.5-48.8-41.1-48.6"/>
	<path class="st1" d="M-33.7-57.6l6.8-0.1c1.2-2.3,1.9-4.9,1.9-7.5c-1.7-1-3.6-1.6-5.6-1.7c0,0.4,0.1,0.7,0.1,1.1
		c0.1,6.3-5.1,11.6-11.4,11.7c-0.3,0-0.7,0-1,0c0.2,2,0.8,3.9,1.9,5.5c2.6-0.1,5.1-0.9,7.3-2.2V-57.6z"/>
	<path class="st1" d="M-19.6-57.6h-7.3c-0.8,1.5-1.8,2.8-3,4c-1.1,1.1-2.4,2.1-3.9,2.9v7.2c1.7,0.4,3.5,0.4,5.2,0v-9h9
		C-19.2-54.1-19.2-55.9-19.6-57.6"/>
	<path class="st0" d="M-26.9-57.6h-6.8v6.9c1.4-0.8,2.7-1.8,3.9-2.9C-28.7-54.8-27.7-56.1-26.9-57.6"/>
	<g>
		<path class="st0" d="M-16.5-63.3h2.8c1,0,2.1,0.2,3,0.8c1,0.8,1.5,2.1,1.5,3.4c0,2.6-1.4,4-3,4.3c-0.5,0.1-1,0.1-1.5,0.1h-2.7
			v-8.6H-16.5z M-14.6-56.2c0.2,0,0.5,0,0.7,0c0.7,0.1,1.4-0.1,2-0.6c0.5-0.7,0.8-1.6,0.8-2.4c0-1.2-0.4-2.3-1.6-2.7
			c-0.6-0.1-1.3-0.2-1.9-0.1V-56.2z"/>
		<path class="st0" d="M-4.4-54.8c0-0.3-0.1-0.5-0.1-0.8c-0.4,0.6-1.1,1-1.9,1c-0.5,0-1-0.2-1.4-0.5c-0.3-0.4-0.5-0.8-0.5-1.3
			c0-0.8,0.5-1.6,1.3-1.9c0.8-0.3,1.6-0.4,2.4-0.3c0-0.3,0-0.5-0.1-0.8s-0.4-0.5-0.8-0.5c-0.3,0-0.5,0.1-0.7,0.3
			c-0.1,0.2-0.1,0.3-0.1,0.5H-8c0-0.6,0.2-1.1,0.7-1.4c0.5-0.3,1.2-0.5,1.8-0.5c0.8,0,1.6,0.2,2.1,0.8c0.3,0.4,0.4,1,0.4,1.5v2.4
			c0,0.5,0,1,0.1,1.5H-4.4z M-6.6-56.6L-6.6-56.6c0,0.5,0.4,0.9,0.8,0.9l0,0c0.3,0,0.6-0.1,0.7-0.3c0.3-0.4,0.4-1,0.3-1.5
			C-5.8-57.7-6.6-57.3-6.6-56.6"/>
		<path class="st0" d="M-1.4-59.7c0,0,0-0.7,0-1.1h1.7v0.9c0.4-0.7,1.2-1.1,1.9-1C3-61,3.8-60.5,4.1-59.8c0.2,0.6,0.2,1.2,0.2,1.8
			v3.2H2.4v-3.7c0-0.2,0-0.4-0.1-0.7c-0.2-0.3-0.5-0.5-0.9-0.5s-0.7,0.2-0.9,0.5s-0.2,0.6-0.2,0.9v3.5h-1.8L-1.4-59.7z"/>
		<path class="st0" d="M9.3-54.8c0-0.3-0.1-0.5-0.1-0.8c-0.4,0.6-1.1,1-1.9,1c-0.5,0-1-0.2-1.4-0.5c-0.3-0.4-0.5-0.8-0.5-1.3
			c0-0.8,0.5-1.6,1.3-1.9c0.8-0.3,1.6-0.4,2.4-0.3c0-0.3,0-0.5-0.1-0.8s-0.4-0.5-0.8-0.5c-0.3,0-0.5,0.1-0.7,0.3
			c-0.1,0.2-0.1,0.3-0.1,0.5H5.6c0-0.6,0.2-1.1,0.7-1.4C6.8-60.8,7.5-61,8.1-61c0.8,0,1.6,0.2,2.1,0.8c0.3,0.4,0.4,1,0.4,1.5v2.4
			c0,0.5,0,1,0.1,1.5H9.3z M7.1-56.6L7.1-56.6c0,0.5,0.4,0.9,0.8,0.9l0,0c0.3,0,0.6-0.1,0.7-0.3c0.3-0.4,0.4-1,0.3-1.5
			C7.9-57.7,7.1-57.3,7.1-56.6"/>
		<path class="st2" d="M11.8-58.6h2.9v1.3h-2.9C11.8-57.3,11.8-58.6,11.8-58.6z"/>
		<path class="st0" d="M16.1-63.3h5.5v1.4h-3.7v2.1h3.4v1.4h-3.4v3.7h-1.8V-63.3z"/>
		<path class="st0" d="M25.6-54.8c0-0.3-0.1-0.5-0.1-0.8c-0.4,0.6-1.1,1-1.9,1c-0.5,0-1-0.2-1.4-0.5c-0.3-0.4-0.5-0.8-0.5-1.3
			c0-0.8,0.5-1.6,1.3-1.9c0.8-0.3,1.6-0.4,2.4-0.3c0-0.3,0-0.5-0.1-0.8s-0.4-0.5-0.8-0.5c-0.3,0-0.5,0.1-0.7,0.3
			c-0.1,0.2-0.1,0.3-0.1,0.5H22c0-0.6,0.2-1.1,0.7-1.4c0.5-0.3,1.2-0.5,1.8-0.5c0.8,0,1.6,0.2,2.1,0.8c0.3,0.4,0.4,1,0.4,1.5v2.4
			c0,0.5,0,1,0.1,1.5H25.6z M23.5-56.6L23.5-56.6c0,0.5,0.4,0.9,0.8,0.9l0,0c0.3,0,0.6-0.1,0.7-0.3c0.3-0.4,0.4-1,0.3-1.5
			C24.3-57.7,23.5-57.3,23.5-56.6"/>
		<path class="st0" d="M28.6-59.3c0-0.3,0-1.2-0.1-1.5h1.7v1.2c0.2-0.5,0.6-1.2,2-1.2v1.6c-1.8-0.2-1.9,0.7-1.9,1.5v3h-1.8
			L28.6-59.3z"/>
		<path class="st0" d="M33.1-63.3h1.8v3.3c0.4-0.5,1-0.8,1.7-0.8c1.5,0,2.6,1.2,2.6,3.2c0,2.2-1.3,3-2.5,3c-0.7,0-1.4-0.3-1.8-1
			c0,0.2,0,0.5-0.1,0.8h-1.7V-63.3z M36.1-59.7c-1.3,0-1.3,1.5-1.3,1.9c0,1.4,0.6,2,1.4,2c1.2,0,1.2-1.5,1.2-1.8
			C37.4-58.1,37.3-59.7,36.1-59.7"/>
		<path class="st0" d="M41.8-57.3c0,0.4,0,1.6,1.2,1.6c0.5,0,1-0.3,1-0.8h1.6c0,0.5-0.2,1-0.6,1.3c-0.6,0.5-1.3,0.8-2.1,0.7
			c-0.8,0-1.5-0.2-2.1-0.7c-0.6-0.6-0.8-1.5-0.8-2.3c-0.1-1.1,0.4-2.2,1.2-2.8c0.5-0.3,1.1-0.5,1.7-0.5c1,0,2,0.5,2.4,1.5
			c0.3,0.7,0.4,1.4,0.4,2.2h-3.9V-57.3z M44-58.4c0-0.3,0-1.3-1-1.3c-0.8,0-1.1,0.6-1.1,1.3H44z"/>
		<path class="st0" d="M46.9-59.3c0-0.3,0-1.2-0.1-1.5h1.7v1.2c0.2-0.5,0.6-1.2,2-1.2v1.6c-1.8-0.2-1.9,0.7-1.9,1.5v3h-1.8
			L46.9-59.3z"/>
		<path class="st0" d="M-12.7-50.2c0-0.6-0.5-1-1.1-1c-0.1,0-0.1,0-0.2,0c-1.4,0-1.7,1.5-1.7,2.4c0,1.1,0.3,2.3,1.7,2.3
			c0.4,0,0.7-0.1,1-0.4c0.2-0.2,0.3-0.4,0.3-0.6h0.9c-0.1,1.2-1.2,1.6-2.2,1.6c-2.1,0-2.5-1.8-2.5-3S-16-52-13.9-52
			c0.8,0,2,0.3,2.1,1.7L-12.7-50.2L-12.7-50.2z"/>
		<path class="st0" d="M-8.3-45.9c-0.1-0.2-0.1-0.4-0.1-0.6c-0.2,0.5-0.7,0.8-1.3,0.7c-0.9,0-1.4-0.5-1.4-1.2c0-0.5,0.3-1,0.7-1.2
			s0.9-0.3,1.4-0.3c0.2,0,0.3,0,0.6,0c0-0.5,0-0.7-0.1-0.9c-0.2-0.2-0.4-0.3-0.7-0.3c-0.8,0-0.8,0.5-0.8,0.7h-0.8
			c0-0.3,0.1-0.6,0.3-0.8c0.4-0.3,0.8-0.5,1.3-0.4c0.6-0.1,1.1,0.2,1.5,0.6c0.1,0.2,0.2,0.4,0.1,0.6v2c0,0.3,0,0.7,0.1,1L-8.3-45.9z
			 M-8.8-47.9c-0.3,0-1.5,0-1.5,0.8c0,0.3,0.2,0.7,0.8,0.7c0.3,0,0.7-0.1,0.9-0.4c0.2-0.3,0.2-0.7,0.2-1.1
			C-8.5-47.9-8.7-47.9-8.8-47.9"/>
		<path class="st0" d="M-6.3-49.5V-50h0.8v0.7c0.2-0.5,0.8-0.8,1.3-0.7h0.1c0.7,0,1.4,0.6,1.4,1.4l0,0v2.8h-0.8v-2.6
			c0-0.3-0.1-0.5-0.2-0.7c-0.2-0.2-0.5-0.3-0.7-0.3c-0.6,0-1.1,0.5-1.1,1.1v0.1v2.4h-0.8C-6.3-45.8-6.3-49.5-6.3-49.5z"/>
		<path class="st0" d="M0.9-48.7L0.9-48.7c0-0.5-0.4-0.9-0.8-0.9l0,0C-1-49.6-1-48.4-1-48.1c0,0.8,0.2,1.6,1,1.6l0,0
			c0.5,0,0.9-0.4,0.9-0.9l0,0h0.8c0,0.8-0.7,1.5-1.5,1.5H0.1c-0.5,0-1-0.2-1.3-0.5c-0.4-0.4-0.5-1-0.5-1.6c0-1.7,1-2.2,1.9-2.2
			c0.5,0,0.9,0.2,1.3,0.5c0.2,0.3,0.3,0.6,0.3,0.9H0.9V-48.7z"/>
		<path class="st0" d="M3.2-47.8c0,0.8,0.3,1.5,1.2,1.5c0,0,0,0,0.1,0c0.5,0,0.9-0.4,0.9-0.9h0.8c0,0.3-0.1,0.6-0.4,0.9
			c-0.4,0.4-0.9,0.6-1.4,0.5c-1.3,0-1.9-0.8-1.9-2.1c-0.1-0.7,0.2-1.5,0.8-1.9c0.3-0.2,0.7-0.3,1-0.3c1.8,0,1.8,1.6,1.8,2.3H3.2z
			 M5.3-48.3c0-0.4-0.1-1.2-1-1.2l0,0c-0.6,0-1.1,0.5-1.1,1.1v0.1C3.2-48.3,5.3-48.3,5.3-48.3z"/>
		<path class="st0" d="M7.2-49.1c0-0.3,0-0.6,0-0.8H8v0.8C8.1-49.6,8.5-50,9-50c0.2,0,0.4,0,0.5,0v0.8H9.4c-0.1,0-0.1,0-0.2,0
			c-0.9,0-1.1,0.5-1.1,1.2v2.2H7.2V-49.1z"/>
		<path class="st2" d="M12.5-51.8h0.8v5.9h-0.8V-51.8z"/>
		<path class="st0" d="M14.8-49.5V-50h0.8v0.7c0.2-0.5,0.8-0.8,1.3-0.7H17c0.7,0,1.4,0.6,1.4,1.4l0,0v2.8h-0.8v-2.6
			c0-0.3-0.1-0.5-0.2-0.7c-0.2-0.2-0.5-0.3-0.7-0.3c-0.6,0-1.1,0.5-1.1,1.1v0.1v2.4h-0.8C14.8-45.8,14.8-49.5,14.8-49.5z"/>
		<path class="st0" d="M20.3-47.1c0,0.3,0.2,0.7,0.9,0.7c0.3,0,0.5-0.1,0.7-0.3c0.1,0,0.1-0.2,0.1-0.3c0-0.4-0.3-0.5-0.9-0.6
			c-0.9-0.2-1.6-0.4-1.6-1.2s0.7-1.2,1.6-1.2c0.6-0.1,1.1,0.2,1.5,0.6c0.1,0.2,0.1,0.4,0.1,0.6h-0.8c0-0.6-0.5-0.7-0.8-0.7
			c-0.1,0-0.8,0-0.8,0.6c0,0.4,0.4,0.5,0.6,0.5c1.1,0.3,1.4,0.3,1.6,0.6c0.2,0.2,0.3,0.5,0.3,0.8c0,0.4-0.2,0.8-0.6,1
			s-0.8,0.3-1.2,0.3c-0.8,0-1.6-0.3-1.6-1.3L20.3-47.1z"/>
		<path class="st0" d="M23.3-50H24v-0.9l0.8-0.2v1.1h0.9v0.6h-0.9v2.5c0,0.2,0,0.5,0.5,0.5c0.1,0,0.2,0,0.4,0v0.6
			c-0.2,0-0.4,0.1-0.6,0c-0.7,0-1-0.2-1-0.9v-2.7h-0.7L23.3-50L23.3-50z"/>
		<path class="st0" d="M26.7-51.8h0.9v0.8h-0.9V-51.8z M26.8-50h0.8v4.1h-0.8V-50z"/>
		<path class="st0" d="M28.5-50h0.7v-0.9l0.8-0.2v1.1h0.9v0.6H30v2.5c0,0.2,0,0.5,0.5,0.5c0.1,0,0.2,0,0.4,0v0.6
			c-0.2,0-0.4,0.1-0.6,0c-0.7,0-1-0.2-1-0.9v-2.7h-0.7L28.5-50L28.5-50z"/>
		<path class="st0" d="M32.6-50v2.6c0,0.4,0.1,0.9,0.9,0.9c0.4,0,0.7-0.2,1-0.5c0.1-0.2,0.2-0.5,0.2-0.8V-50h0.8v3.3
			c0,0.1,0,0.5,0,0.8h-0.8v-0.7c-0.2,0.5-0.8,0.8-1.3,0.7c-0.1,0-0.1,0-0.2,0c-0.7,0-1.3-0.6-1.3-1.3v-0.1V-50H32.6z"/>
		<path class="st0" d="M36.1-50h0.7v-0.9l0.8-0.2v1.1h0.9v0.6h-0.9v2.5c0,0.2,0,0.5,0.5,0.5c0.1,0,0.2,0,0.4,0v0.6
			c-0.2,0-0.4,0.1-0.6,0c-0.7,0-1-0.2-1-0.9v-2.7h-0.7L36.1-50z"/>
		<path class="st0" d="M39.9-47.8c0,0.8,0.3,1.5,1.2,1.5c0,0,0,0,0.1,0c0.5,0,0.9-0.4,0.9-0.9h0.8c0,0.3-0.1,0.6-0.4,0.9
			c-0.4,0.4-0.9,0.6-1.4,0.5c-1.3,0-1.9-0.8-1.9-2.1c-0.1-0.7,0.2-1.5,0.8-1.9c0.3-0.2,0.7-0.3,1.1-0.3c1.8,0,1.8,1.6,1.8,2.3H39.9z
			 M42-48.3c0-0.4-0.1-1.2-1-1.2l0,0c-0.6,0-1.1,0.5-1.1,1.1v0.1C39.9-48.3,42-48.3,42-48.3z"/>
	</g>
</g>
</svg>
