<?xml version="1.0" encoding="utf-8"?>
<!-- Generator: Adobe Illustrator 26.3.1, SVG Export Plug-In . SVG Version: 6.00 Build 0)  -->
<svg version="1.1" id="Layer_1" xmlns="http://www.w3.org/2000/svg" xmlns:xlink="http://www.w3.org/1999/xlink" x="0px" y="0px"
	 viewBox="0 0 217.2 54.1" style="enable-background:new 0 0 217.2 54.1;" xml:space="preserve">
<style type="text/css">
	.st0{fill:#FFFFFF;}
</style>
<path class="st0" d="M25.6,49.4c-0.1-0.3-0.1-0.6-0.1-0.8c-0.2-0.7-0.8-1.1-1.5-1.1c-2.1,0-4.3,0-6.4,0c-0.9,0-1.5,0.6-1.6,1.5
	c0,0.1,0,0.3-0.1,0.5c-5.1,0-10.1,0-15.3,0c0-0.9,0-1.8,0-2.7c0-0.1,0.2-0.2,0.3-0.2c1-0.2,2-0.4,2.9-0.5c0.4-0.1,0.6-0.2,0.6-0.7
	c0-8.9,0-17.9,0-26.8c0-0.4-0.1-0.6-0.6-0.7c-1-0.1-2-0.3-3-0.5c-0.1,0-0.3-0.2-0.3-0.4c0-0.7,0-1.5,0-2.2c0-0.3,0.1-0.4,0.3-0.4
	c0.1,0,0.2,0,0.3,0c4.6,0,9.3,0,13.9,0c0.5,0,0.7,0.1,0.8,0.7c0,0.9,0.7,1.5,1.6,1.5c2.1,0,4.2,0,6.3,0c1,0,1.6-0.6,1.7-1.6
	c0-0.4,0.1-0.5,0.5-0.5c4.8,0,9.5,0,14.3,0c0.4,0,0.6,0.1,0.6,0.5c0,0.6,0,1.3,0,1.9c0,0.3-0.1,0.5-0.5,0.5c-1,0.1-1.9,0.3-2.9,0.5
	c-0.4,0.1-0.5,0.2-0.5,0.6c0,2.7,0,5.5,0,8.2c0,6.2,0,12.3,0,18.5c0,0.7,0,0.7,0.7,0.8c0.9,0.2,1.9,0.3,2.8,0.5
	c0.3,0,0.4,0.2,0.3,0.4c0,0.7,0,1.3,0,2c0,0.4-0.1,0.6-0.6,0.6c0,0-0.1,0-0.1,0c-4.7,0-9.3,0-14,0C26,49.4,25.8,49.4,25.6,49.4z
	 M20.7,26.3c-1.2,0-2.2,1-2.2,2.2c0,1.2,1,2.2,2.2,2.2c1.2,0,2.2-1.1,2.2-2.3C22.9,27.2,21.9,26.3,20.7,26.3z M21.1,37.6
	c1.2,0,2.2-1,2.2-2.3c0-1.2-1-2.2-2.2-2.2c-1.2,0-2.2,1-2.2,2.2C18.8,36.6,19.9,37.6,21.1,37.6z M17.8,31.6c0-0.9-0.8-1.7-1.7-1.7
	c-0.9,0-1.7,0.8-1.7,1.7c0,0.9,0.8,1.7,1.8,1.7C17.1,33.3,17.8,32.6,17.8,31.6z M24,32.2c0,0.9,0.8,1.7,1.7,1.7
	c0.9,0,1.8-0.8,1.8-1.7c0-0.9-0.8-1.7-1.7-1.7C24.8,30.5,24,31.3,24,32.2z M16.9,37.3c-0.9,0-1.6,0.7-1.6,1.6c0,0.9,0.7,1.6,1.6,1.6
	c0.9,0,1.6-0.7,1.6-1.6C18.5,38,17.8,37.3,16.9,37.3z M26.5,24.9c0-0.9-0.7-1.6-1.6-1.6c-0.9,0-1.6,0.7-1.6,1.6
	c0,0.9,0.7,1.6,1.6,1.6C25.8,26.5,26.5,25.8,26.5,24.9z M13.7,18.3c0.8,0,1.4-0.6,1.4-1.4c0-0.7-0.6-1.4-1.4-1.4
	c-0.8,0-1.4,0.6-1.4,1.4C12.3,17.7,12.9,18.3,13.7,18.3z M28.1,48.3c0.8,0,1.4-0.6,1.4-1.4c0-0.7-0.6-1.4-1.4-1.4
	c-0.8,0-1.4,0.6-1.4,1.4C26.7,47.7,27.3,48.3,28.1,48.3z M14.1,41.1c-0.7,0-1.3,0.6-1.3,1.3c0,0.7,0.6,1.3,1.3,1.3
	c0.7,0,1.3-0.6,1.3-1.3C15.4,41.7,14.8,41.1,14.1,41.1z M29.2,28.3c0-0.7-0.6-1.3-1.3-1.3c-0.7,0-1.3,0.6-1.3,1.3
	c0,0.7,0.6,1.2,1.3,1.2C28.7,29.5,29.2,29,29.2,28.3z M14.2,34.3c-0.7,0-1.3,0.6-1.3,1.3c0,0.7,0.6,1.3,1.3,1.3
	c0.7,0,1.3-0.6,1.3-1.3C15.5,34.9,14.8,34.3,14.2,34.3z M27.3,22.7c0.7,0,1.3-0.6,1.3-1.3c0-0.7-0.6-1.3-1.2-1.3
	c-0.7,0-1.3,0.6-1.3,1.3C26.1,22.2,26.6,22.7,27.3,22.7z M16.4,19.3c-0.7,0-1.2,0.5-1.2,1.2c0,0.6,0.5,1.2,1.2,1.2
	c0.7,0,1.2-0.5,1.2-1.1C17.6,19.9,17.1,19.3,16.4,19.3z M25.4,44.5c0.7,0,1.2-0.6,1.2-1.2c0-0.6-0.6-1.2-1.2-1.2
	c-0.7,0-1.2,0.5-1.2,1.2C24.2,44,24.7,44.5,25.4,44.5z M18.8,22.8c0,0.6,0.5,1.1,1.1,1.1c0.6,0,1.1-0.5,1.1-1.1
	c0-0.6-0.5-1.1-1.1-1.1C19.3,21.7,18.8,22.2,18.8,22.8z M23,41c0-0.6-0.5-1.1-1.1-1.1c-0.6,0-1.1,0.5-1.1,1.1c0,0.6,0.5,1.1,1.1,1.1
	C22.5,42.1,23,41.6,23,41z M26.9,17c-0.5,0-0.9,0.4-0.9,0.9c0,0.5,0.4,0.9,0.9,0.9c0.5,0,0.9-0.4,0.9-0.9C27.8,17.4,27.4,17,26.9,17
	z M15.7,46c0-0.5-0.4-0.9-0.9-0.9c-0.5,0-0.9,0.4-0.9,0.9c0,0.5,0.4,0.9,0.9,0.9C15.3,46.9,15.7,46.5,15.7,46z"/>
<path class="st0" d="M157.9,24.4c0,0.2,0,0.4,0,0.5c0,3.1,0,6.2,0,9.3c0,0.5-0.1,0.6-0.6,0.5c-0.8,0-1.7,0-2.5,0
	c-0.8,0-0.8,0-0.8-0.8c0-5.5,0-10.9,0-16.4c0-0.1,0-0.1,0-0.2c-0.1-0.5,0.1-0.6,0.6-0.6c0.8,0,1.6,0,2.4,0c0.3,0,0.5,0.1,0.7,0.4
	c2,2.8,4,5.6,6,8.4c0.1,0.2,0.2,0.3,0.4,0.5c0.1-0.1,0.2-0.3,0.3-0.4c2-2.8,4-5.7,6-8.5c0.2-0.3,0.4-0.4,0.8-0.4c0.8,0,1.6,0,2.4,0
	c0.4,0,0.5,0.1,0.5,0.5c0,1.8,0,3.6,0,5.5c0,3.8,0,7.5,0,11.3c0,0.7,0,0.7-0.7,0.7c-0.9,0-1.7,0-2.6,0c-0.5,0-0.6-0.2-0.6-0.6
	c0-3.2,0-6.3,0-9.5c0-0.2,0-0.4,0-0.5c0,0-0.1,0-0.1-0.1c-2,2.8-4.1,5.5-6.1,8.4c-2.1-2.7-4.1-5.4-6.1-8.1
	C158,24.4,157.9,24.4,157.9,24.4z"/>
<path class="st0" d="M212.4,27.8c0-0.4,0-0.6,0-0.9c0-3.2,0-6.3,0-9.5c0-0.4,0.1-0.5,0.5-0.5c1,0,2,0,3,0c0.4,0,0.5,0.1,0.5,0.5
	c0,5.6,0,11.3,0,16.9c0,0.4-0.1,0.5-0.5,0.5c-0.8,0-1.6,0-2.4,0c-0.2,0-0.5-0.2-0.7-0.3c-2.8-3.4-5.6-6.7-8.3-10.1
	c-0.1-0.1-0.2-0.2-0.4-0.4c0,0.3,0,0.5,0,0.7c0,3.2,0,6.4,0,9.6c0,0.7,0,0.7-0.7,0.7c-0.9,0-1.9,0-2.8,0c-0.4,0-0.6-0.1-0.6-0.5
	c0-5.6,0-11.2,0-16.9c0-0.4,0.1-0.6,0.5-0.5c0.8,0,1.6,0,2.4,0c0.3,0,0.5,0.1,0.8,0.4c2.7,3.4,5.5,6.7,8.3,10.1
	C212.1,27.4,212.2,27.5,212.4,27.8z"/>
<path class="st0" d="M108,27.6c0-0.5,0-0.9,0-1.4c0-2.9,0-5.9,0-8.8c0-0.4,0.1-0.5,0.5-0.5c1,0,2,0,3,0c0.4,0,0.5,0.1,0.5,0.5
	c0,5.6,0,11.3,0,16.9c0,0.4-0.1,0.5-0.5,0.5c-0.8,0-1.6,0-2.4,0c-0.3,0-0.6-0.1-0.8-0.4c-2.7-3.4-5.5-6.7-8.3-10
	c-0.1-0.1-0.2-0.2-0.4-0.5c0,0.3,0,0.5,0,0.7c0,3.2,0,6.3,0,9.5c0,0.7,0,0.7-0.8,0.7c-0.9,0-1.8,0-2.6,0c-0.5,0-0.7-0.1-0.7-0.6
	c0-4.7,0-9.4,0-14.1c0-0.9,0-1.8,0-2.7c0-0.4,0.1-0.6,0.5-0.5c0.8,0,1.6,0,2.4,0c0.3,0,0.5,0.1,0.7,0.4c2.7,3.3,5.5,6.7,8.2,10
	c0.1,0.1,0.2,0.3,0.3,0.4C108,27.6,108,27.6,108,27.6z"/>
<path class="st0" d="M53.2,25.8c0-2.8,0-5.6,0-8.4c0-0.5,0.1-0.6,0.6-0.6c1,0,2,0,2.9,0c0.5,0,0.6,0.2,0.6,0.6c0,2,0,4,0,6
	c0,0.4,0.1,0.6,0.6,0.6c2.4,0,4.8,0,7.2,0c0.4,0,0.6-0.1,0.6-0.6c0-2,0-4,0-6c0-0.4,0.1-0.6,0.6-0.6c1,0,2,0,3,0
	c0.4,0,0.5,0.1,0.5,0.5c0,5.6,0,11.3,0,16.9c0,0.4-0.1,0.5-0.5,0.5c-1,0-2.1,0-3.1,0c-0.4,0-0.5-0.2-0.5-0.6c0-2.1,0-4.2,0-6.3
	c0-0.4-0.1-0.6-0.6-0.6c-2.4,0-4.8,0-7.2,0c-0.4,0-0.6,0.1-0.6,0.6c0,2.1,0,4.2,0,6.2c0,0.5-0.2,0.6-0.6,0.6c-1,0-2,0-2.9,0
	c-0.4,0-0.5-0.1-0.5-0.5C53.2,31.5,53.2,28.6,53.2,25.8z"/>
<path class="st0" d="M74.5,22.5c0-1.7,0-3.4,0-5.1c0-0.4,0.1-0.5,0.5-0.5c1,0,2.1,0,3.1,0c0.4,0,0.6,0.1,0.6,0.6c0,3.2,0,6.3,0,9.5
	c0,0.6,0.1,1.1,0.2,1.7c0.5,2.5,2.4,3.3,4.5,3c2-0.3,3.1-1.6,3.3-3.6c0.1-0.7,0.1-1.4,0.1-2.1c0-2.8,0-5.6,0-8.4
	c0-0.4,0.1-0.6,0.5-0.6c1,0,2.1,0,3.1,0c0.3,0,0.5,0.1,0.5,0.4c0,3.4,0.1,6.8,0,10.3c-0.1,2.8-1.1,5.2-3.8,6.6
	c-1.5,0.8-3.2,1-4.9,0.9c-1.3,0-2.5-0.3-3.7-0.9c-2.3-1.2-3.5-3.2-3.7-5.7C74.5,26.5,74.5,24.5,74.5,22.5
	C74.5,22.5,74.5,22.5,74.5,22.5z"/>
<path class="st0" d="M197,34.8c-0.2,0-0.4,0-0.6,0c-1.1,0-2.2,0-3.2,0c-0.3,0-0.5-0.1-0.6-0.4c-0.4-1-0.8-2-1.2-3
	c-0.1-0.4-0.3-0.5-0.7-0.5c-2.5,0-4.9,0-7.4,0c-0.3,0-0.5,0.1-0.7,0.4c-0.4,1-0.8,2-1.3,3.1c-0.1,0.1-0.2,0.3-0.3,0.4
	c-1.3,0-2.6,0-4,0c0.1-0.2,0.1-0.4,0.2-0.5c2.5-5.7,5-11.3,7.6-17c0.1-0.3,0.3-0.5,0.7-0.5c1.1,0,2.1,0,3.2,0c0.3,0,0.5,0.1,0.6,0.3
	c2.6,5.8,5.1,11.5,7.7,17.3C196.9,34.5,196.9,34.6,197,34.8z M187,21c0,0-0.1,0-0.1,0c-0.9,2.2-1.9,4.5-2.8,6.8c2,0,3.8,0,5.7,0
	C188.8,25.5,187.9,23.3,187,21z"/>
<path class="st0" d="M134.4,33c0.5-1,0.9-2,1.4-3.1c1.2,0.8,2.4,1.3,3.7,1.6c1.3,0.3,2.7,0.4,4,0c0.4-0.1,0.9-0.4,1.2-0.7
	c0.7-0.6,0.6-1.6-0.1-2.1c-0.6-0.4-1.2-0.7-1.9-0.9c-1.5-0.4-2.9-0.8-4.4-1.2c-0.4-0.1-0.7-0.3-1.1-0.4c-3.5-1.8-3-6.1-0.8-7.9
	c1.2-1,2.6-1.5,4.2-1.7c2.3-0.3,4.6,0,6.8,0.9c0.4,0.2,0.8,0.4,1.2,0.6c-0.4,1-0.8,2.1-1.3,3.1c-0.7-0.3-1.3-0.6-1.9-0.8
	c-1.6-0.6-3.2-0.8-4.9-0.3c-0.4,0.1-0.8,0.3-1.1,0.6c-0.9,0.8-0.8,2.2,0.3,2.6c0.9,0.4,1.9,0.6,2.8,0.9c1.2,0.3,2.4,0.6,3.5,1
	c1.7,0.6,3,1.7,3.1,3.6c0.2,2.6-0.9,4.5-3.4,5.5c-1.4,0.6-2.8,0.8-4.3,0.7c-2.1,0-4.2-0.4-6.1-1.4c-0.2-0.1-0.4-0.2-0.6-0.3
	C134.7,33.3,134.6,33.2,134.4,33z"/>
<path class="st0" d="M121.9,20.2c-0.3,0-0.5,0-0.7,0c-1.5,0-3,0-4.6,0c-0.4,0-0.5-0.1-0.5-0.5c0-0.8,0-1.6,0-2.4
	c0-0.3,0.1-0.4,0.4-0.4c0.1,0,0.1,0,0.2,0c4.9,0,9.7,0,14.6,0c0.4,0,0.6,0.1,0.5,0.6c0,0.7,0,1.5,0,2.2c0,0.4-0.1,0.6-0.6,0.6
	c-1.5,0-3,0-4.6,0c-0.2,0-0.4,0-0.7,0c0,0.2,0,0.4,0,0.6c0,4.4,0,8.9,0,13.3c0,0.5-0.2,0.6-0.6,0.6c-0.9,0-1.9,0-2.8,0
	c-0.7,0-0.7,0-0.7-0.7c0-4.4,0-8.8,0-13.2C121.9,20.7,121.9,20.5,121.9,20.2z"/>
<path class="st0" d="M139.2,47.8c0-2.3,0-4.6,0-6.9c0.6-0.1,1-0.1,1.5,0.4c1,1.3,2,2.5,3.1,3.8c0.1,0.1,0.2,0.2,0.4,0.5
	c0-1.6,0-3.1,0-4.7c0.4,0,0.8,0,1.2,0c0,2.3,0,4.6,0,6.9c-0.6,0.1-1.1,0.1-1.5-0.5c-1-1.3-2-2.5-3-3.7c-0.1-0.1-0.3-0.3-0.5-0.5
	c0,1.7,0,3.2,0,4.8C140,47.8,139.6,47.8,139.2,47.8z"/>
<path class="st0" d="M82.1,40.8c0,2.4,0,4.6,0,6.9c-0.6,0.2-1.1,0-1.5-0.5c-1-1.3-2.1-2.6-3.2-3.9c-0.1-0.1-0.1-0.1-0.3-0.3
	c0,1.6,0,3.2,0,4.7c-0.5,0-0.8,0-1.3,0c0-2.3,0-4.6,0-6.9c0.6-0.1,1.1-0.1,1.5,0.5c1,1.3,2,2.5,3,3.7c0.1,0.1,0.2,0.2,0.4,0.5
	c0-0.3,0-0.4,0-0.6c0-1.2,0-2.3,0-3.5c0-0.6,0-0.6,0.7-0.6C81.8,40.8,81.9,40.8,82.1,40.8z"/>
<path class="st0" d="M111.8,47.8c-0.4,0-0.8,0-1.2,0c0-2.3,0-4.6,0-6.9c0,0,0-0.1,0.1-0.1c1.2,0,2.4-0.1,3.7,0.1
	c1,0.1,1.8,0.7,2.1,1.8c0.3,1.2-0.1,2.1-1.3,2.7c0,0-0.1,0.1-0.1,0.1c0.5,0.7,1,1.5,1.6,2.3c-0.4,0-0.8,0-1.2,0
	c-0.1,0-0.3-0.1-0.4-0.3c-0.4-0.5-0.7-1-1-1.4c-0.1-0.2-0.4-0.3-0.6-0.3c-0.5,0-1.1-0.2-1.4,0.1c-0.3,0.2-0.1,0.9-0.1,1.4
	C111.8,47.4,111.8,47.6,111.8,47.8z M111.8,44.7c0.8,0,1.5,0.1,2.1,0c0.7-0.1,1.2-0.6,1.2-1.3c0-0.8-0.3-1.3-1.1-1.4
	c-0.7-0.1-1.4,0-2.2,0C111.8,42.9,111.8,43.8,111.8,44.7z"/>
<path class="st0" d="M216.5,47.8c-1.7,0-3.4,0-5.2,0c0-2.3,0-4.6,0-7c1.7,0,3.4,0,5.1,0c0,0.3,0,0.6,0,1c-1.2,0-2.5,0-3.8,0
	c0,0.6,0,1.1,0,1.7c0,0.1,0.3,0.2,0.4,0.2c0.7,0,1.5,0,2.2,0c0.9,0,0.9,0,0.8,1c-0.9,0-1.9,0-2.8,0c-0.5,0-0.6,0.1-0.6,0.6
	c0,1.4,0,1.4,1.4,1.4c0.6,0,1.3,0,1.9,0c0.7,0,0.7,0,0.7,0.7C216.6,47.6,216.5,47.7,216.5,47.8z"/>
<path class="st0" d="M104.6,41.9c-1.3,0-2.5,0-3.8,0c0,0.6,0,1.2,0,1.9c0.3,0,0.6,0,0.9,0c0.6,0,1.3,0,1.9,0c0.5,0,0.6,0.2,0.6,0.6
	c0,0.3-0.1,0.4-0.5,0.4c-0.9,0-1.7,0-2.6,0c-0.3,0-0.4,0.1-0.4,0.4c0,0.4,0,0.8,0,1.2c0,0.4,0.1,0.5,0.5,0.4c1,0,2,0,2.9,0
	c0.2,0,0.4,0,0.6,0c0,0.4,0,0.7,0,1c-1.7,0-3.4,0-5.2,0c0-2.3,0-4.6,0-6.9c1.7,0,3.3,0,5,0C104.6,41.2,104.6,41.5,104.6,41.9z"/>
<path class="st0" d="M63.7,47.8c0.9-2.1,1.8-4.1,2.7-6.1c0-0.1,0.1-0.1,0.1-0.2c0.1-0.5,0.5-0.7,1-0.7c0.5,0,0.7,0.2,0.8,0.6
	c0.9,2,1.8,4,2.7,6c0.1,0.1,0.1,0.3,0.2,0.5c-0.4,0-0.7,0-1.1,0c-0.1,0-0.2-0.1-0.3-0.2c-0.1-0.1-0.1-0.1-0.1-0.2
	c-0.2-1-0.8-1.4-1.9-1.3c-0.6,0.1-1.2,0-1.8,0c-0.2,0-0.4,0.2-0.5,0.3c-0.1,0.1-0.1,0.2-0.2,0.4C64.9,47.9,64.9,47.9,63.7,47.8z
	 M68.8,45.2c-0.4-1-0.9-2-1.3-3c0,0-0.1,0-0.1,0c-0.4,1-0.8,1.9-1.3,3C67,45.2,67.9,45.2,68.8,45.2z"/>
<path class="st0" d="M189.8,40.9c0.4,0,0.8,0,1.3,0c0,1,0,2,0,3c0,0.4,0,0.8,0,1.2c0.1,1.1,0.7,1.7,1.8,1.8c1.1,0,1.8-0.6,1.8-1.7
	c0-1.2,0-2.3,0-3.5c0-0.2,0-0.4,0-0.7c0.4,0,0.8,0,1.2,0c0,0.1,0,0.3,0,0.4c0,1.2,0,2.4,0,3.7c0,2.4-1.7,3.2-3.6,3
	c-1.7-0.2-2.5-1.2-2.5-2.9C189.8,43.6,189.8,42.3,189.8,40.9z"/>
<path class="st0" d="M155.7,42.3c-0.8-0.4-1.5-0.6-2.4-0.5c-0.2,0-0.5,0.1-0.6,0.2c-0.2,0.2-0.5,0.5-0.5,0.7c0,0.2,0.2,0.6,0.5,0.7
	c0.5,0.2,1,0.3,1.5,0.5c0.3,0.1,0.7,0.2,1,0.3c0.6,0.3,1,0.7,1.1,1.4c0.1,0.7-0.2,1.4-0.8,1.7c-0.5,0.3-1,0.4-1.6,0.5
	c-0.9,0.1-1.8-0.1-2.7-0.5c-0.6-0.3-0.6-0.3-0.3-0.9c0.1-0.1,0.1-0.2,0.2-0.4c0.4,0.2,0.8,0.4,1.3,0.5c0.6,0.1,1.3,0.1,1.9,0.1
	c0.4,0,0.7-0.3,0.7-0.7c0-0.5-0.3-0.7-0.6-0.8c-0.6-0.2-1.2-0.3-1.8-0.5c-0.2-0.1-0.4-0.1-0.7-0.2c-0.6-0.3-1.1-0.7-1.1-1.4
	c-0.1-0.8,0.2-1.5,0.9-1.9c1.1-0.6,3-0.6,4.2,0.2C156,41.6,155.8,41.9,155.7,42.3z"/>
<path class="st0" d="M59.7,41.9c-0.3,0.2-0.5,0.5-0.8,0.7c-1.5-1.1-2.9-1-3.9,0c-0.8,0.9-0.8,2.5,0,3.4c0.9,1,2.4,1,3.9,0
	c0.2,0.3,0.4,0.5,0.6,0.9c-0.3,0.7-2,1.3-3.6,1c-1.4-0.3-2.6-1.6-2.8-3c-0.2-1.9,0.6-3.3,2.2-3.9C57,40.4,58.8,40.8,59.7,41.9z"/>
<path class="st0" d="M93.1,46c0.3,0.3,0.5,0.5,0.8,0.7c-0.7,1-2.4,1.5-3.9,1c-1.5-0.4-2.5-1.7-2.6-3.2c-0.1-1.7,0.8-3,2.3-3.6
	c1.5-0.6,3.3-0.2,4.2,0.9c-0.2,0.2-0.5,0.5-0.8,0.7c-0.7-0.7-1.5-1-2.5-0.7c-0.6,0.1-1.1,0.4-1.5,0.9c-0.7,1-0.6,2.5,0.3,3.4
	C90.1,46.9,91.8,47.3,93.1,46z"/>
<path class="st0" d="M209.8,9.1c1.1-0.1,0.9-0.9,0.9-1.6c0-1,0-2,0-3c0-0.5-0.1-0.8-0.6-0.8c0,0-0.1,0-0.1,0c0,0,0-0.1-0.1-0.2
	c0.9,0,1.8,0,2.6,0c0,0.1,0,0.1,0,0.1c-0.7,0.1-0.7,0.6-0.7,1.1c0,1.3,0,1.3,1.3,1.3c0.4,0,0.7,0,1.1,0c0.1,0,0.3-0.2,0.3-0.3
	c0-0.5,0-1.1,0-1.6c0-0.1-0.2-0.3-0.3-0.4c-0.1-0.1-0.2-0.1-0.3-0.1c0,0,0-0.1,0-0.1c0.9,0,1.7,0,2.6,0c0,0.1,0,0.1,0,0.1
	c-0.6,0.1-0.7,0.6-0.7,1.1c0,1.1,0,2.2,0,3.3c0,0.6,0.1,1.1,0.9,1.1c-0.3,0.3-2.4,0.3-2.8,0.1c0,0,0-0.1,0-0.1
	c0.8-0.1,0.7-0.7,0.7-1.2c0-1.3,0-1.3-1.3-1.3c-0.3,0-0.7,0-1,0c-0.3,0-0.4,0.1-0.4,0.4c0,0.4,0,0.8,0,1.2c0,0.4,0.1,0.8,0.6,0.8
	c0.1,0,0.2,0.1,0.2,0.2c-0.9,0-1.8,0-2.7,0C209.9,9.1,209.8,9.1,209.8,9.1z"/>
<path class="st0" d="M128.8,6.4c0.4,1,1.5,2.3,2.4,2.7c0,0,0,0.1,0,0.1c-0.8,0.3-1.9,0-2.4-0.7c-0.3-0.5-0.6-1-0.9-1.5
	c-0.2-0.3-0.4-0.5-0.8-0.3c0,0.6,0,1.2,0,1.8c0,0.1,0.2,0.3,0.4,0.3c0.1,0.1,0.3,0.1,0.4,0.2c0,0,0,0.1,0,0.1c-0.9,0-1.8,0-2.7,0
	c0-0.1,0-0.1,0-0.1c0.8-0.2,0.8-0.7,0.8-1.4c0-1.1,0-2.1,0-3.2c0-0.5-0.1-0.8-0.6-0.8c-0.1,0-0.1-0.1-0.2-0.1
	c0.1-0.1,0.2-0.1,0.3-0.1c1,0,2,0,3,0c0.9,0,1.3,0.4,1.5,1.1c0.2,0.7-0.1,1.2-0.8,1.7C129,6.2,128.9,6.3,128.8,6.4z M127.1,5
	c0,0.3,0,0.6,0,0.9c0,0.1,0.2,0.3,0.3,0.3c0.8,0.1,1.3-0.3,1.4-1c0.1-0.8-0.4-1.5-1.2-1.6c-0.4,0-0.6,0.1-0.6,0.5
	C127.1,4.5,127.1,4.8,127.1,5z"/>
<path class="st0" d="M171.7,6.2c0,1.9-1.3,3.2-3.2,3.2c-1.8,0-3.1-1.2-3.1-3.1c0-1.8,1.4-3.1,3.2-3.1C170.5,3.2,171.7,4.4,171.7,6.2
	z M170.4,6.7c-0.1-1-0.2-1.9-0.8-2.6c-0.7-0.8-1.9-0.7-2.4,0.1c-0.7,1.1-0.5,3.3,0.4,4.2c0.9,0.9,2.2,0.6,2.6-0.6
	C170.4,7.5,170.4,7,170.4,6.7z"/>
<path class="st0" d="M100.5,7.6c0-1.2,0-2.3,0-3.3c0-0.3-0.2-0.5-0.5-0.6c-0.2,0-0.3-0.1-0.5-0.1c0,0,0-0.1,0-0.1c0.8,0,1.5,0,2.3,0
	c0,0.1,0,0.1,0,0.1C101,3.8,101,4.4,101,5.1c0,1.2,0,2.5,0,3.7c0,0.1-0.1,0.4-0.2,0.4c-0.3,0-0.6,0-0.8-0.2
	c-0.6-0.7-1.1-1.4-1.6-2.1c-0.4-0.6-0.9-1.2-1.3-1.7c-0.1-0.1-0.2-0.3-0.4-0.5c0,1.3,0,2.5,0,3.7c0,0.2,0.3,0.4,0.5,0.5
	C97.2,9,97.4,9,97.6,9c0,0,0,0.1,0,0.1c-0.8,0-1.5,0-2.4,0C95.2,9.1,95.3,9,95.4,9C95.9,8.9,96,8.6,96,8.2c0-1.2,0.1-2.5,0.1-3.7
	c0-0.4-0.2-0.6-0.6-0.7c-0.1,0-0.2-0.1-0.3-0.1c0-0.1,0-0.1,0-0.2c0.2,0,0.4,0,0.6,0c1.1-0.2,1.7,0.3,2.2,1.2
	c0.6,0.9,1.4,1.7,2.1,2.6C100.2,7.3,100.3,7.4,100.5,7.6z"/>
<path class="st0" d="M203.2,41.9c-0.8,0-1.5,0-2.3,0c0-0.4,0-0.7,0-1c2,0,3.9,0,5.9,0c0,0.3,0,0.6,0,1c-0.7,0-1.5,0-2.3,0
	c0,0.3,0,0.5,0,0.7c0,1.6,0,3.2,0,4.8c0,0.5-0.2,0.6-0.6,0.6c-0.4,0-0.7,0-0.7-0.5c0-1.6,0-3.1,0-4.7
	C203.2,42.4,203.2,42.2,203.2,41.9z"/>
<path class="st0" d="M181.3,41.9c-0.8,0-1.5,0-2.3,0c0-0.4,0-0.7,0-1c1.9,0,3.9,0,5.9,0c0,0.3,0,0.6,0,1c-0.7,0-1.5,0-2.3,0
	c0,0.3,0,0.5,0,0.7c0,1.6,0,3.2,0,4.8c0,0.5-0.3,0.5-0.6,0.5c-0.4,0-0.7,0-0.7-0.5c0-1.6,0-3.2,0-4.8
	C181.3,42.4,181.3,42.1,181.3,41.9z"/>
<path class="st0" d="M163.7,41.9c-0.8,0-1.5,0-2.3,0c0-0.4,0-0.7,0-1c1.9,0,3.9,0,5.9,0c0,0.3,0,0.6,0,1c-0.8,0-1.5,0-2.3,0
	c0,0.3,0,0.5,0,0.7c0,1.6,0,3.2,0,4.8c0,0.5-0.3,0.5-0.6,0.5c-0.4,0-0.7,0-0.6-0.5c0-1.6,0-3.2,0-4.8
	C163.7,42.4,163.7,42.1,163.7,41.9z"/>
<path class="st0" d="M185.4,3.4c0.9,0,1.8,0,2.7,0c0,0.1,0,0.2-0.1,0.2c-0.7,0.1-0.7,0.6-0.7,1.1c0,0.9,0,1.7,0.1,2.6
	c0.1,0.9,0.6,1.5,1.5,1.5c1,0,1.6-0.4,1.7-1.4c0.1-1.1,0.1-2.1,0-3.2c0-0.2-0.3-0.4-0.5-0.5c-0.1-0.1-0.3-0.1-0.4-0.1
	c0,0,0-0.1,0-0.1c0.7,0,1.5,0,2.2,0c-0.1,0.1-0.1,0.2-0.1,0.2c-0.6,0.1-0.7,0.5-0.7,1c0,1-0.1,2-0.2,3c-0.2,1.1-0.8,1.6-1.9,1.7
	c-0.4,0-0.8,0-1.2,0c-1-0.1-1.5-0.8-1.6-1.7c-0.1-0.9-0.1-1.7-0.1-2.6c0-0.6,0.2-1.4-0.9-1.4C185.3,3.6,185.3,3.5,185.4,3.4z"/>
<path class="st0" d="M121.7,5.4c0,0.6,0,1.1,0,1.8c-0.1-0.1-0.3-0.1-0.3-0.2c-0.1-0.5-0.4-0.5-0.8-0.5c-0.3,0-0.6,0-1,0
	c0,0.7,0,1.3,0,2c0,0.1,0.2,0.2,0.4,0.3c0.2,0.1,0.4,0,0.6,0c0.7,0.1,1.3-0.1,1.6-0.9c0-0.1,0.2-0.2,0.3-0.3c0,0.1,0.1,0.3,0.1,0.4
	c-0.2,1.1-0.2,1.1-1.4,1.1c-1.1,0-2.2,0-3.3,0c-0.2,0-0.3,0-0.5,0c0,0,0-0.1,0-0.1c0.1,0,0.2-0.1,0.3-0.1c0.5,0,0.7-0.3,0.7-0.7
	c0-1.3,0-2.5,0-3.8c0-0.4-0.1-0.7-0.6-0.7c0,0-0.1-0.1-0.2-0.2c1.6,0,3,0,4.6,0c0,0.4-0.1,0.9-0.1,1.3c0,0-0.1,0-0.1,0.1
	c-0.1-0.1-0.2-0.2-0.2-0.3c-0.1-0.5-0.4-0.7-0.9-0.7c-1.2,0-1.2-0.1-1.2,1.2c0,0.3,0,0.7,0,1c0.8,0,1.6,0.4,2-0.7
	C121.6,5.3,121.6,5.4,121.7,5.4z"/>
<path class="st0" d="M86.3,3.4c1,0,1.8,0,2.8,0c0,0.1,0,0.2,0,0.2c-0.7,0.1-0.7,0.6-0.7,1.1c0,0.8,0,1.6,0.1,2.4
	c0.1,1.5,1.1,1.8,2.2,1.6c0.6-0.1,1-0.6,1-1.3c0.1-1,0-1.9,0.1-2.9c0-0.5-0.2-0.8-0.7-0.9c0,0-0.1,0-0.1-0.1c0,0,0-0.1-0.1-0.2
	c0.8,0,1.5,0,2.2,0c0,0.1,0,0.1,0,0.1c-0.7,0.1-0.7,0.7-0.8,1.2c0,1-0.1,2-0.2,2.9c-0.2,1-0.8,1.5-1.8,1.6c-0.3,0-0.7,0-1,0
	c-1.2-0.1-1.8-0.8-1.8-1.9c0-1-0.1-1.9-0.1-2.9c0-0.5-0.1-0.8-0.7-0.8c0,0-0.1,0-0.1,0C86.4,3.6,86.4,3.6,86.3,3.4z"/>
<path class="st0" d="M204.9,9.2c0.7-0.5,0.7-0.5,0.4-1.4c-0.3-0.8-0.3-0.8-1.1-0.7c-1,0.1-1,0.1-1.3,1.1c-0.1,0.4-0.1,0.7,0.4,0.8
	c0.1,0,0.2,0.1,0.2,0.2c-0.7,0-1.5,0-2.3,0c0.1-0.1,0.1-0.2,0.2-0.2c0.6-0.1,0.9-0.5,1-1c0.5-1.4,1.1-2.8,1.6-4.2
	c0.1-0.3,0.3-0.4,0.5-0.4c0.3,0,0.4,0.1,0.5,0.4c0.4,1.2,0.8,2.3,1.2,3.5c0.4,1.2,0.4,1.2,1.5,2C206.9,9.2,206,9.2,204.9,9.2z
	 M205,6.6c-0.2-0.7-0.4-1.3-0.6-1.9c0,0-0.1,0-0.1,0c-0.2,0.6-0.4,1.2-0.6,1.9C204,6.6,204.5,6.6,205,6.6z"/>
<path class="st0" d="M179.1,3.4c-0.1,0.5-0.1,0.9-0.2,1.5c-0.2-0.1-0.2-0.1-0.2-0.1c-0.2-0.3-0.2-0.8-0.5-0.9
	c-0.5-0.1-1-0.1-1.6-0.1c-0.1,0-0.2,0.2-0.2,0.3c0,0.6,0,1.2,0,1.7c0,0.1,0.2,0.3,0.3,0.3c0.4,0,0.8,0,1.2-0.1
	c0.1,0,0.3-0.2,0.4-0.3c0.1-0.1,0.1-0.3,0.2-0.4c0,0,0.1,0,0.1,0c0,0.6,0,1.2,0,2c-0.1-0.1-0.2-0.2-0.3-0.3
	c-0.1-0.4-0.3-0.5-0.7-0.5c-0.4,0-0.8,0-1.2,0c0,0.6,0,1.2,0,1.8c0,0.2,0.2,0.3,0.4,0.4C177,9,177.2,9,177.4,9c0,0,0,0.1,0,0.1
	c-0.9,0-1.9,0-2.8,0c0-0.1,0-0.1,0-0.1c0.8-0.1,0.8-0.6,0.7-1.2c0-1.1,0-2.1,0-3.2c0-0.5,0-1-0.7-1c0,0-0.1,0-0.1-0.1
	c0,0,0-0.1,0-0.2C176,3.4,177.6,3.4,179.1,3.4z"/>
<path class="st0" d="M112.8,7.8c0.4-1.2,0.9-2.4,1.3-3.6c0-0.1-0.1-0.3-0.3-0.4c-0.1-0.1-0.3-0.1-0.5-0.2c0,0,0-0.1,0-0.1
	c0.7,0,1.4,0,2.1,0C114.4,4,114.4,5.1,114,6c-0.4,1-0.8,2-1.2,2.9c-0.1,0.1-0.3,0.2-0.5,0.3c-0.2,0.1-0.4,0-0.5-0.3
	c-0.5-1.3-1-2.7-1.5-4c-0.4-1-0.4-1-1.2-1.4c0.2-0.2,2.3-0.2,2.6-0.1c-0.5,0.5-0.5,0.5-0.2,1.3c0.4,1,0.8,1.9,1.1,2.9
	C112.7,7.8,112.8,7.8,112.8,7.8z"/>
<path class="st0" d="M137,4.8c0-0.2-0.1-0.3-0.1-0.5c-0.1-0.5-0.5-0.8-1-0.8c-0.4,0-0.8,0.2-0.9,0.6c-0.2,0.5,0,0.9,0.4,1.2
	c0.4,0.3,0.8,0.5,1.3,0.8c0.9,0.6,1.2,1.1,1,2c-0.2,0.7-0.8,1.2-1.7,1.3c-1.6,0.2-1.9-0.1-2.1-1.8c0.1,0.1,0.3,0.2,0.3,0.3
	c0.3,0.6,0.7,1,1.3,1.1c0.4,0.1,0.8,0,1.1-0.5c0.2-0.4,0.1-0.8-0.2-1.1c-0.4-0.3-0.8-0.6-1.3-0.9c-0.6-0.4-1.1-0.9-1.1-1.7
	c0-0.9,0.7-1.6,1.7-1.6c0.5,0,1,0.1,1.4,0.1c0.1,0,0.3,0.1,0.3,0.2c0,0.4-0.1,0.8-0.1,1.3C137.1,4.8,137,4.8,137,4.8z"/>
<path class="st0" d="M149.8,9.1c-0.3,0.2-2.6,0.3-3.3,0c0.3-0.1,0.5-0.2,0.6-0.2c0.3,0,0.5-0.2,0.5-0.6c0-1.4,0-2.8,0-4.2
	c0-0.3-0.1-0.4-0.4-0.4c-0.9-0.1-1,0-1.5,0.9c0,0.1-0.2,0.2-0.2,0.3c0-0.1-0.1-0.2-0.1-0.3c0-0.4,0.1-0.8,0.2-1.3c1.8,0,3.6,0,5.4,0
	c-0.1,0.5-0.2,1.1-0.2,1.6c-0.1,0-0.1,0-0.2,0c-0.1-0.2-0.1-0.3-0.2-0.5c-0.1-0.6-1.1-1-1.6-0.6c-0.1,0.1-0.1,0.3-0.1,0.4
	c0,1.3,0,2.5,0,3.8c0,0.6,0.2,0.9,0.8,0.9C149.7,9,149.8,9,149.8,9.1z"/>
<path class="st0" d="M200,3.4c-0.1,0.6-0.2,1.1-0.2,1.6c-0.1,0-0.1,0-0.2,0c-0.1-0.2-0.1-0.3-0.2-0.5c-0.1-0.6-1.1-1-1.6-0.6
	c-0.1,0.1-0.1,0.2-0.1,0.3c0,1.4,0,2.8,0,4.2c0,0.3,0.2,0.5,0.5,0.6c0.1,0,0.3,0.1,0.4,0.1c-0.3,0.2-2.6,0.3-3.3,0
	c0.3-0.1,0.5-0.2,0.6-0.2c0.3,0,0.5-0.2,0.5-0.6c0-1.4,0-2.8,0-4.2c0-0.3-0.1-0.4-0.4-0.4c-0.9-0.1-1,0-1.4,0.9
	c-0.1,0.1-0.2,0.2-0.3,0.3c0-0.1-0.1-0.3-0.1-0.4c0-0.4,0.1-0.8,0.1-1.2C196.4,3.4,198.2,3.4,200,3.4z"/>
<path class="st0" d="M158,9.2c-0.9,0-1.9,0-2.9,0c0.1-0.1,0.1-0.2,0.1-0.2c0.7,0,0.8-0.5,0.8-1.1c0-0.7,0-1.3-0.4-1.9
	c-0.2-0.3-0.3-0.6-0.5-1c-0.4-0.6-0.5-1.4-1.5-1.5c0-0.1,0.1-0.1,0.1-0.2c0.8,0,1.7,0,2.5,0c0,0,0,0.1,0,0.1
	c-0.5,0.2-0.3,0.6-0.1,0.9c0.3,0.5,0.6,1.1,0.9,1.8c0.4-0.8,0.7-1.4,1-2.1c0-0.1-0.1-0.3-0.2-0.4c-0.1-0.1-0.2-0.1-0.4-0.1
	c0,0,0-0.1,0-0.1c0.7,0,1.4,0,2.1,0c0,0.1,0,0.1-0.1,0.2c-0.8,0.1-1.1,0.8-1.4,1.4c-0.2,0.3-0.3,0.7-0.5,0.9
	c-0.6,0.8-0.4,1.7-0.4,2.6c0,0.1,0.2,0.3,0.4,0.4c0.1,0.1,0.3,0.1,0.4,0.2C158,9.1,158,9.1,158,9.2z"/>
<path class="st0" d="M133,47.8c-0.4,0-0.8,0-1.2,0c0-2.3,0-4.6,0-7c0.4,0,0.8,0,1.2,0C133,43.2,133,45.5,133,47.8z"/>
<path class="st0" d="M173.7,47.8c-0.2,0-0.3,0-0.4,0c-0.2,0-0.5,0-0.8,0c0-2.3,0-4.6,0-7c0.4,0,0.8,0,1.2,0
	C173.7,43.2,173.7,45.5,173.7,47.8z"/>
<path class="st0" d="M143,9.2c-0.9,0-1.9,0-2.8,0c0-0.1,0-0.1,0-0.1c0.7-0.1,0.8-0.6,0.8-1.2c0-1.1,0-2.2,0-3.3
	c0-0.5-0.1-0.8-0.6-0.8c0,0-0.1,0-0.1,0c0,0,0-0.1-0.1-0.2c0.9,0,1.8,0,2.7,0c0,0.1,0,0.1,0,0.1c-0.8,0.1-0.7,0.7-0.7,1.2
	c0,0.9,0,1.9,0,2.8C142.2,8.6,142.2,8.6,143,9.2z"/>
<path class="st0" d="M104.1,9.1c1-0.1,0.9-0.9,0.9-1.5c0-0.8,0-1.7,0-2.5c0-0.6,0.2-1.4-0.9-1.5c0,0,0.1-0.1,0.1-0.1
	c0.9,0,1.7,0,2.6,0c0,0.1,0,0.1,0,0.1c-0.7,0.1-0.7,0.6-0.7,1.1c0,1.2,0,2.3,0,3.5c0,0.4,0.1,0.7,0.6,0.8c0.1,0,0.1,0.1,0.2,0.2
	c-0.9,0-1.8,0-2.7,0C104.2,9.1,104.2,9.1,104.1,9.1z"/>
</svg>
