<?xml version="1.0" encoding="utf-8"?>
<!-- Generator: Adobe Illustrator 26.3.1, SVG Export Plug-In . SVG Version: 6.00 Build 0)  -->
<svg version="1.1" id="Layer_1" xmlns="http://www.w3.org/2000/svg" xmlns:xlink="http://www.w3.org/1999/xlink" x="0px" y="0px"
	 viewBox="0 0 42 42" style="enable-background:new 0 0 42 42;" xml:space="preserve">
<style type="text/css">
	.st0{opacity:0.7;fill:#FFFFFF;}
	.st1{opacity:0.9;fill:#FFFFFF;}
	.st2{opacity:0.4;fill:#FFFFFF;}
</style>
<g>
	<path class="st0" d="M20.8,27.2c2.2,0,4.2-1.2,5.3-3.1L20.8,21l-5.3,3.1C16.6,25.9,18.5,27.2,20.8,27.2z"/>
	<path class="st0" d="M28.8,25.7l2.6,1.5c-2.2,3.8-6.3,6.2-10.7,6.2c-4.5,0-8.5-2.5-10.7-6.2l-7.3,4.2c0.3,0.5,0.7,0.9,1.1,1.2
		l15.3,8.8c0.9,0.5,2.3,0.5,3.2,0l15.3-8.8c0.4-0.3,0.8-0.7,1.1-1.2L28.8,25.7z"/>
</g>
<path class="st1" d="M38.8,10.6L20.8,21l18,10.4c0.3-0.5,0.5-1.1,0.5-1.6V12.2C39.3,11.7,39.1,11.1,38.8,10.6z M33.1,21.7h-1.4v1.4
	h-1.4v-1.4H29v-1.4h1.4V19h1.4v1.4h1.4V21.7z M38.3,21.7h-1.4v1.4h-1.4v-1.4h-1.4v-1.4h1.4V19h1.4v1.4h1.4V21.7z"/>
<path class="st2" d="M8.5,21c0-6.8,5.5-12.3,12.3-12.3c4.4,0,8.5,2.4,10.7,6.2l-5.3,3.1c-1.1-1.9-3.1-3.1-5.3-3.1
	c-3.4,0-6.2,2.8-6.2,6.2c0,1.1,0.3,2.2,0.8,3.1l5.3-3.1l18-10.4c-0.3-0.5-0.7-0.9-1.1-1.2L22.4,0.6c-0.9-0.5-2.3-0.5-3.2,0L3.9,9.4
	c-0.9,0.5-1.6,1.8-1.6,2.8v17.6c0,0.5,0.2,1.1,0.5,1.6l7.4-4.3C9.1,25.3,8.5,23.2,8.5,21z"/>
</svg>
