<?xml version="1.0" encoding="utf-8"?>
<!-- Generator: Adobe Illustrator 26.3.1, SVG Export Plug-In . SVG Version: 6.00 Build 0)  -->
<svg version="1.1" id="Layer_1" xmlns="http://www.w3.org/2000/svg" xmlns:xlink="http://www.w3.org/1999/xlink" x="0px" y="0px"
	 viewBox="0 0 50 50" style="enable-background:new 0 0 50 50;" xml:space="preserve">
<style type="text/css">
	.st0{opacity:0.6;fill:#FFFFFF;}
</style>
<path class="st0" d="M49.1,21.2c-0.1-0.1-1.4-1-4-1c-0.7,0-1.4,0.1-2.1,0.2c-0.5-3.5-3.4-5.2-3.5-5.3l-0.7-0.4l-0.5,0.7
	c-0.6,0.9-1,1.9-1.3,2.9c-0.5,2-0.2,3.9,0.8,5.5c-1.2,0.7-3.2,0.8-3.6,0.9H1.9c-0.8,0-1.5,0.7-1.5,1.5c0,2.8,0.4,5.7,1.4,8.3
	c1.1,2.9,2.8,5.1,4.9,6.4c2.4,1.5,6.4,2.3,10.8,2.3c2,0,4-0.2,6-0.5c2.8-0.5,5.4-1.5,7.8-2.9c2-1.2,3.8-2.6,5.3-4.4
	c2.6-2.9,4.1-6.1,5.2-9c0.2,0,0.3,0,0.5,0c2.8,0,4.5-1.1,5.5-2.1c0.6-0.6,1.1-1.3,1.5-2.1l0.2-0.6L49.1,21.2z"/>
<path class="st0" d="M4.9,23.6h4.3c0.2,0,0.4-0.2,0.4-0.4l0,0v-3.9c0-0.2-0.2-0.4-0.4-0.4l0,0H4.9c-0.2,0-0.4,0.2-0.4,0.4l0,0v3.9
	C4.5,23.4,4.7,23.6,4.9,23.6L4.9,23.6"/>
<path class="st0" d="M10.9,23.6h4.3c0.2,0,0.4-0.2,0.4-0.4l0,0v-3.9c0-0.2-0.2-0.4-0.4-0.4l0,0h-4.3c-0.2,0-0.4,0.2-0.4,0.4v3.9
	C10.5,23.4,10.7,23.6,10.9,23.6"/>
<path class="st0" d="M17,23.6h4.3c0.2,0,0.4-0.2,0.4-0.4l0,0v-3.9c0-0.2-0.2-0.4-0.4-0.4l0,0H17c-0.2,0-0.4,0.2-0.4,0.4l0,0v3.9
	C16.6,23.4,16.7,23.6,17,23.6L17,23.6"/>
<path class="st0" d="M23,23.6h4.3c0.2,0,0.4-0.2,0.4-0.4v-3.9c0-0.2-0.2-0.4-0.4-0.4l0,0H23c-0.2,0-0.4,0.2-0.4,0.4l0,0v3.9
	C22.6,23.4,22.8,23.6,23,23.6L23,23.6"/>
<path class="st0" d="M10.9,18.1h4.3c0.2,0,0.4-0.2,0.4-0.4v-3.9c0-0.2-0.2-0.4-0.4-0.4l0,0h-4.3c-0.2,0-0.4,0.2-0.4,0.4v3.9
	C10.5,17.9,10.7,18.1,10.9,18.1"/>
<path class="st0" d="M17,18.1h4.3c0.2,0,0.4-0.2,0.4-0.4v-3.9c0-0.2-0.2-0.4-0.4-0.4l0,0H17c-0.2,0-0.4,0.2-0.4,0.4l0,0v3.9
	C16.6,17.9,16.7,18.1,17,18.1"/>
<path class="st0" d="M23,18.1h4.3c0.2,0,0.4-0.2,0.4-0.4v-3.9c0-0.2-0.2-0.4-0.4-0.4H23c-0.2,0-0.4,0.2-0.4,0.4l0,0v3.9
	C22.6,17.9,22.8,18.1,23,18.1"/>
<path class="st0" d="M23,12.5h4.3c0.2,0,0.4-0.2,0.4-0.4V8.2c0-0.2-0.2-0.4-0.4-0.4H23c-0.2,0-0.4,0.2-0.4,0.4l0,0v3.9
	C22.6,12.3,22.8,12.5,23,12.5"/>
<path class="st0" d="M29,23.6h4.3c0.2,0,0.4-0.2,0.4-0.4v-3.9c0-0.2-0.2-0.4-0.4-0.4l0,0H29c-0.2,0-0.4,0.2-0.4,0.4l0,0v3.9
	C28.6,23.4,28.8,23.6,29,23.6"/>
</svg>
