<?xml version="1.0" encoding="utf-8"?>
<!-- Generator: Adobe Illustrator 26.3.1, SVG Export Plug-In . SVG Version: 6.00 Build 0)  -->
<svg version="1.1" id="Layer_1" xmlns="http://www.w3.org/2000/svg" xmlns:xlink="http://www.w3.org/1999/xlink" x="0px" y="0px"
	 viewBox="0 0 42 42" style="enable-background:new 0 0 42 42;" xml:space="preserve">
<style type="text/css">
	.st0{opacity:0.6;fill:#FFFFFF;enable-background:new    ;}
</style>
<path class="st0" d="M40.7,19.1L22.9,1.3c-1-1-2.7-1-3.7,0L15.4,5l4.7,4.7c1.1-0.4,2.3-0.1,3.2,0.7c0.9,0.9,1.1,2.1,0.7,3.2l4.5,4.5
	c1.1-0.4,2.4-0.1,3.2,0.7c1.2,1.2,1.2,3.2,0,4.4c-1.2,1.2-3.2,1.2-4.4,0c-0.9-0.9-1.1-2.3-0.7-3.4l-4.2-4.2v11.1
	c0.3,0.1,0.6,0.3,0.8,0.6c1.2,1.2,1.2,3.2,0,4.4c-1.2,1.2-3.2,1.2-4.4,0c-1.2-1.2-1.2-3.2,0-4.4c0.3-0.3,0.7-0.5,1-0.7v-11
	c-0.4-0.2-0.7-0.4-1-0.7c-0.9-0.9-1.1-2.3-0.7-3.4l-4.6-4.6L1.4,19c-1,1-1,2.7,0,3.7l17.8,17.8c1,1,2.7,1,3.7,0l17.8-17.8
	C41.7,21.8,41.7,20.2,40.7,19.1"/>
</svg>
