<?xml version="1.0" encoding="utf-8"?>
<!-- Generator: Adobe Illustrator 26.3.1, SVG Export Plug-In . SVG Version: 6.00 Build 0)  -->
<svg version="1.1" id="Layer_1" xmlns="http://www.w3.org/2000/svg" xmlns:xlink="http://www.w3.org/1999/xlink" x="0px" y="0px"
	 viewBox="0 0 42 42" style="enable-background:new 0 0 42 42;" xml:space="preserve">
<style type="text/css">
	.st0{opacity:0.5;}
	.st1{fill:#FFFFFF;}
	.st2{opacity:0.7;fill:#FFFFFF;}
</style>
<g class="st0">
	<polygon class="st1" points="18.1,8.6 11.2,5.2 3.6,8.9 10.7,12.5 	"/>
	<polygon class="st1" points="21.3,10.2 28.5,13.9 21,17.7 13.9,14.1 	"/>
	<polygon class="st1" points="30.9,5.2 38.3,8.9 31.7,12.3 24.5,8.6 	"/>
	<polygon class="st1" points="27.7,3.6 21,0.3 14.4,3.6 21.3,7 	"/>
	<polygon class="st1" points="22.5,32.4 22.5,41.5 30.6,37.5 30.6,28.4 	"/>
	<polygon class="st1" points="30.6,25.2 30.6,16.1 22.5,20.2 22.5,29.2 	"/>
	<polygon class="st1" points="40.3,23.5 40.3,32.6 33.4,36.1 33.4,27 	"/>
	<polygon class="st1" points="40.3,20.3 40.3,11.3 33.4,14.7 33.4,23.8 	"/>
</g>
<path class="st2" d="M19.6,20.2l-5.5-2.7v11.8c0,0-6.7-14.2-7.3-15.5c-0.1-0.2-0.4-0.3-0.5-0.4C5.2,12.8,1.7,11,1.7,11v20.9l4.8,2.6
	v-11c0,0,6.6,12.7,6.7,12.8c0.1,0.1,0.7,1.5,1.4,1.9c0.9,0.6,5,3.1,5,3.1L19.6,20.2z"/>
</svg>
