<?xml version="1.0" encoding="utf-8"?>
<!-- Generator: Adobe Illustrator 26.3.1, SVG Export Plug-In . SVG Version: 6.00 Build 0)  -->
<svg version="1.1" id="Layer_1" xmlns="http://www.w3.org/2000/svg" xmlns:xlink="http://www.w3.org/1999/xlink" x="0px" y="0px"
	 viewBox="0 0 42 42" style="enable-background:new 0 0 42 42;" xml:space="preserve">
<style type="text/css">
	.st0{opacity:0.6;fill:#FFFFFF;enable-background:new    ;}
</style>
<path id="path1948" class="st0" d="M20.7,0.2c-1.7,0-3.3,0.2-4.8,0.4c-4.2,0.7-5,2.3-5,5.2v3.8h9.9v1.3h-9.9H7.2
	c-2.9,0-5.4,1.7-6.2,5C0.1,19.7,0,22,1,26c0.7,2.9,2.4,5,5.3,5h3.4v-4.5c0-3.3,2.8-6.2,6.2-6.2h9.9c2.8,0,5-2.3,5-5.1V5.8
	c0-2.7-2.3-4.7-5-5.2C24.1,0.3,22.4,0.2,20.7,0.2z M15.3,3.2c1,0,1.9,0.9,1.9,1.9S16.4,7,15.3,7c-1,0-1.9-0.8-1.9-1.9
	C13.4,4.1,14.3,3.2,15.3,3.2z"/>
<path id="path1950" class="st0" d="M32.1,10.8v4.4c0,3.4-2.9,6.3-6.2,6.3H16c-2.7,0-5,2.3-5,5.1v9.5c0,2.7,2.3,4.3,5,5.1
	c3.1,0.9,6.2,1.1,9.9,0c2.5-0.7,5-2.2,5-5.1v-3.8H21V31h9.9h5c2.9,0,4-2,5-5c1-3.1,1-6.1,0-10.1c-0.7-2.9-2.1-5-5-5L32.1,10.8
	L32.1,10.8z M26.5,34.8c1,0,1.9,0.8,1.9,1.9c0,1-0.8,1.9-1.9,1.9c-1,0-1.9-0.9-1.9-1.9S25.5,34.8,26.5,34.8z"/>
</svg>
